<?xml version="1.0" encoding="UTF-8"?>
<!DOCTYPE svg PUBLIC "-//W3C//DTD SVG 1.1//EN" "http://www.w3.org/Graphics/SVG/1.1/DTD/svg11.dtd">
<!-- Creator: CorelDRAW 2019 (64-Bit Evaluation Version) -->
<svg xmlns="http://www.w3.org/2000/svg" xml:space="preserve" width="8.29751in" height="3.44884in" version="1.1" style="shape-rendering:geometricPrecision; text-rendering:geometricPrecision; image-rendering:optimizeQuality; fill-rule:evenodd; clip-rule:evenodd"
viewBox="0 0 2310.13 960.2"
 xmlns:xlink="http://www.w3.org/1999/xlink">
 <defs>
  <style type="text/css">
   <![CDATA[
    .str0 {stroke:#BDBFC1;stroke-width:5.8;stroke-miterlimit:2.61313}
    .str1 {stroke:#373435;stroke-width:0.84;stroke-miterlimit:2.61313}
    .fil4 {fill:none}
    .fil0 {fill:#FEFEFE}
    .fil6 {fill:#A9ABAE}
    .fil1 {fill:#373435}
    .fil3 {fill:#FFF212}
    .fil2 {fill:#FEFEFE;fill-rule:nonzero}
    .fil5 {fill:#373435;fill-rule:nonzero}
   ]]>
  </style>
 </defs>
 <g id="Layer_x0020_1">
  <metadata id="CorelCorpID_0Corel-Layer"/>
  <path class="fil0" d="M2047.73 592.98c-0.99,1.66 -2.34,3.13 -4.04,4.33 -27.37,19.29 -76.94,8.81 -105.67,-2.1 -28.74,-10.91 -72.77,-35.95 -80.43,-68.57 -0.47,-2.02 -0.51,-4.02 -0.15,-5.91 -6.94,-6.44 -9.7,-16.7 -6.14,-26.07l1.95 -5.15c1.35,-3.56 3.48,-6.62 6.11,-9.04 -4.18,-7 -5.26,-15.78 -2.15,-23.95l2.66 -7.02c3.26,-8.58 10.4,-14.6 18.67,-16.83 8.17,-38.11 -1.05,-74.91 -15.36,-110.58 -0.15,-0.38 -0.29,-0.75 -0.4,-1.13 -22.14,-53.95 -22.94,-114.09 -2.22,-168.65 21.69,-57.12 64.8,-102.88 120.52,-127.93 55.44,-24.92 118.85,-26.82 175.68,-5.24 57.12,21.69 102.88,64.81 127.93,120.52 24.92,55.44 26.82,118.85 5.24,175.68 -20.76,54.68 -61.17,98.99 -113.65,124.69 -0.12,0.07 -0.24,0.14 -0.37,0.21 -33.91,19.23 -62.75,41.27 -85.48,72.93 4.67,7.14 6,16.35 2.75,24.9l-2.66 7.02c-3.1,8.17 -9.73,14.03 -17.51,16.49 0.36,3.56 -0.08,7.26 -1.43,10.82l-1.95 5.15c-3.56,9.36 -12.43,15.21 -21.89,15.42zm-506.5 -196.75l-55.27 145.93c-6.25,16.51 -21.55,27.07 -39.2,27.07l-58.22 0c-17.54,0 -32.75,-10.42 -39.08,-26.77l-56.27 -145.23 0 133.61c0,23.1 -18.81,41.92 -41.92,41.92l-64.25 0c-7.43,0 -14.62,-1.97 -20.91,-5.6 -5.5,2.56 -11.54,3.86 -17.79,3.86l-70.46 0c-16.59,0 -31.08,-9.26 -38.04,-24.32l-19.42 -42 -70.85 0 0 24.19c0,23.1 -18.81,41.92 -41.92,41.92l-48.05 0c-1.43,0.14 -2.86,0.21 -4.3,0.21l-70.46 0c-1.44,0 -2.88,-0.07 -4.32,-0.21l-91.73 0c-2.86,0 -5.7,-0.29 -8.49,-0.87 -3.16,0.72 -6.4,1.08 -9.65,1.08l-70.74 0c-18.54,0 -34.48,-11.73 -40.01,-29.42l-23.56 -75.44c-0.05,-0.15 -0.09,-0.3 -0.14,-0.45 -1.54,-5.14 -3.51,-10.2 -6.06,-14.93 -0.94,-1.74 -2.02,-3.45 -3.27,-5.01l0 83.33c0,23.1 -18.81,41.92 -41.92,41.92l-63.42 0c-16.52,0 -30.86,-9.63 -37.68,-23.56 -30.6,10.61 -62.66,15.54 -95.2,15.54 -38.75,0 -76.85,-7.07 -112.66,-22 -33.99,-14.17 -65.03,-34.09 -91.49,-59.75 -26.29,-25.49 -46.97,-55.64 -61.72,-89.13 -15.42,-35.01 -22.77,-72.42 -22.77,-110.62 0,-38.2 7.35,-75.61 22.77,-110.62 14.76,-33.51 35.42,-63.7 61.6,-89.32 26.46,-25.89 57.56,-45.89 91.77,-59.93 35.8,-14.69 73.84,-21.63 112.49,-21.63 44.54,0 87.81,9.21 127.69,29.27 25.89,13.02 49.94,29.39 71.11,49.16 438.16,0 876.33,0.26 1314.49,0.41 7.94,0 22.45,1.7 29.17,5.56 4.44,2.55 6.98,6.95 6.98,12.07l0 178.63c0,5.14 -2.56,9.55 -7.02,12.09 -6.68,3.81 -21.18,5.48 -29.06,5.48l-32.1 0c6.51,3.39 12.08,8.54 16.18,15.16 7.76,12.51 8.48,27.53 1.93,40.72l-25.7 51.81c-7.19,14.5 -21.36,23.29 -37.55,23.29l-36.7 0 0 7.36 113.93 0c7.88,0 22.38,1.68 29.06,5.49 4.46,2.55 7.02,6.95 7.02,12.09l0 105.95c0,7.6 -6.13,13.82 -13.74,13.92 -80.39,1.06 -160.79,2.33 -241.19,2.33 -23.1,0 -41.92,-18.81 -41.92,-41.92l0 -132.66zm-1161.63 -200.95c-9.22,-9.37 -19.8,-17.25 -31.32,-23.65 -18.52,-10.29 -38.51,-14.98 -59.65,-14.98 -16.93,0 -33.43,3.17 -48.98,9.93 -15.23,6.62 -29.11,15.73 -40.94,27.4 -11.66,11.51 -20.83,24.99 -27.47,39.96 -6.68,15.08 -9.82,31.08 -9.82,47.55 0,16.27 3.22,32.08 9.82,46.96 6.64,14.97 15.81,28.45 27.47,39.96 11.84,11.68 25.71,20.78 40.95,27.4 15.55,6.76 32.05,9.93 48.98,9.93 21.3,0 41.91,-4.29 60.41,-15.16 11.26,-6.62 21.52,-14.68 30.56,-24.07l0 -171.23zm1691.51 424.55l0 -38.54c0,-5.8 3.34,-10.74 8.71,-12.91 5.37,-2.17 11.21,-0.93 15.23,3.25l116.85 121.16 0 -62.83c0,-7.67 6.25,-13.92 13.92,-13.92l70.39 0c7.67,0 13.92,6.25 13.92,13.92l0 316.29c0,5.8 -3.34,10.74 -8.71,12.91 -5.37,2.17 -11.21,0.93 -15.23,-3.25l-116.84 -121.16 0 62.83c0,7.67 -6.25,13.92 -13.92,13.92l-70.39 0c-4.92,0 -9.25,-2.57 -11.73,-6.44 -2.48,3.87 -6.81,6.44 -11.73,6.44l-211.18 0c-4.92,0 -9.25,-2.57 -11.73,-6.44 -2.48,3.87 -6.81,6.44 -11.73,6.44l-70.39 0c-7.67,0 -13.92,-6.25 -13.92,-13.92l0 -184.52c-2.49,2.35 -5.86,3.8 -9.54,3.8l-56.47 0 0 180.72c0,7.67 -6.25,13.92 -13.92,13.92l-70.39 0c-7.67,0 -13.92,-6.25 -13.92,-13.92l0 -180.72 -56.47 0c-3.69,0 -7.05,-1.45 -9.54,-3.8l0 184.52c0,7.67 -6.25,13.92 -13.92,13.92l-70.39 0c-7.67,0 -13.92,-6.25 -13.92,-13.92l0 -83.4 -42.55 0 0 83.4c0,7.67 -6.25,13.92 -13.92,13.92l-70.39 0c-4.92,0 -9.25,-2.57 -11.73,-6.44 -2.48,3.87 -6.81,6.44 -11.73,6.44l-70.39 0c-4.92,0 -9.25,-2.57 -11.73,-6.44 -2.48,3.87 -6.81,6.44 -11.73,6.44l-211.18 0c-4.92,0 -9.25,-2.57 -11.73,-6.44 -2.48,3.87 -6.81,6.44 -11.73,6.44l-211.18 0c-4.92,0 -9.25,-2.57 -11.73,-6.44 -2.48,3.87 -6.81,6.44 -11.73,6.44l-211.18 0c-4.92,0 -9.25,-2.57 -11.73,-6.44 -2.48,3.87 -6.81,6.44 -11.73,6.44l-211.18 0c-4.92,0 -9.25,-2.57 -11.73,-6.44 -2.48,3.87 -6.81,6.44 -11.73,6.44l-70.39 0c-7.67,0 -13.92,-6.25 -13.92,-13.92l0 -83.4 -42.55 0 0 83.4c0,7.67 -6.25,13.92 -13.92,13.92l-70.39 0c-7.67,0 -13.92,-6.25 -13.92,-13.92l0 -267.63c0,-7.67 6.25,-13.92 13.92,-13.92l211.18 0c4.92,0 9.25,2.57 11.73,6.44 2.48,-3.87 6.81,-6.44 11.73,-6.44l211.18 0c4.92,0 9.25,2.57 11.73,6.44 2.48,-3.87 6.81,-6.44 11.73,-6.44l211.18 0c4.92,0 9.25,2.57 11.73,6.44 2.48,-3.87 6.81,-6.44 11.73,-6.44l211.18 0c4.92,0 9.25,2.57 11.73,6.44 2.48,-3.87 6.81,-6.44 11.73,-6.44l211.18 0c4.92,0 9.25,2.57 11.73,6.44 2.48,-3.87 6.81,-6.44 11.73,-6.44l70.39 0c4.92,0 9.25,2.57 11.73,6.44 2.48,-3.87 6.81,-6.44 11.73,-6.44l211.18 0c4.92,0 9.25,2.57 11.73,6.44 2.48,-3.87 6.81,-6.44 11.73,-6.44l211.18 0c4.92,0 9.25,2.57 11.73,6.44 2.48,-3.87 6.81,-6.44 11.73,-6.44l70.39 0c4.92,0 9.25,2.57 11.73,6.44 2.48,-3.87 6.81,-6.44 11.73,-6.44l211.18 0c3.69,0 7.05,1.45 9.54,3.8zm-891.64 93.23c-2.49,2.35 -5.86,3.8 -9.54,3.8l-126.87 0 0 93.81 126.87 0c3.69,0 7.05,1.45 9.54,3.8l0 -101.41zm-469.28 0c-0.84,0.79 -1.77,1.48 -2.79,2.05 1.01,0.57 1.95,1.25 2.79,2.04l0 -4.09zm-234.64 0c-0.84,0.79 -1.77,1.48 -2.79,2.05 1.01,0.57 1.95,1.25 2.79,2.04l0 -4.09zm4.38 97.32l0 4.09c0.84,-0.79 1.77,-1.48 2.79,-2.04 -1.01,-0.57 -1.95,-1.25 -2.79,-2.05zm-234.64 0l0 4.09c0.84,-0.79 1.77,-1.48 2.79,-2.04 -1.01,-0.57 -1.95,-1.25 -2.79,-2.05zm605.69 0.29l0 -93.81 -42.55 0 0 93.81 42.55 0zm1126.28 0l0 -93.81 -42.55 0 0 93.81 42.55 0z"/>
  <path class="fil1" d="M1824.16 554.55c-76.11,1 -159.83,2.33 -241.01,2.33 -15.42,0 -27.99,-12.58 -27.99,-27.99l0 -208.71 -82.21 217.06c-4.2,11.09 -14.32,18.08 -26.18,18.08l-58.22 0c-11.79,0 -21.84,-6.89 -26.1,-17.88l-83.17 -214.65 0 208.07c0,15.42 -12.58,27.99 -27.99,27.99l-64.25 0c-7.93,0 -15.1,-3.32 -20.2,-8.65 -4.99,4.47 -11.39,6.9 -18.5,6.9l-70.46 0c-11.17,0 -20.72,-6.11 -25.41,-16.24l-23.16 -50.08 -93.67 0 0 38.12c0,15.42 -12.58,27.99 -27.99,27.99l-48.8 0c-1.16,0.14 -2.34,0.21 -3.55,0.21l-70.46 0c-1.21,0 -2.4,-0.07 -3.57,-0.21l-92.47 0c-3.01,0 -5.92,-0.48 -8.64,-1.37 -2.96,1.04 -6.16,1.58 -9.5,1.58l-70.74 0c-12.45,0 -23.01,-7.77 -26.72,-19.65l-23.56 -75.44c-0.03,-0.11 -0.06,-0.2 -0.09,-0.3 -1.81,-6.05 -4.14,-11.98 -7.15,-17.54 -2.15,-3.98 -4.8,-7.73 -8.09,-10.86 -2.69,-2.57 -5.96,-4.37 -9.43,-5.68 -3.68,-1.39 -7.87,-2.01 -11.93,-2.23l0 103.71c0,15.42 -12.58,27.99 -27.99,27.99l-63.42 0c-15.42,0 -27.99,-12.58 -27.99,-27.99l0 -0.22c-33.25,13.82 -68.59,20.19 -104.89,20.19 -36.94,0 -73.17,-6.7 -107.31,-20.92 -32.41,-13.51 -61.92,-32.43 -87.15,-56.89 -25.02,-24.26 -44.63,-52.87 -58.67,-84.74 -14.65,-33.26 -21.59,-68.71 -21.59,-105.01 0,-36.3 6.94,-71.75 21.59,-105.01 14.05,-31.91 33.66,-60.58 58.6,-84.98 25.2,-24.65 54.74,-43.63 87.32,-57 34.15,-14.01 70.34,-20.59 107.2,-20.59 42.39,0 83.47,8.69 121.44,27.79 26.39,13.27 50.67,30.09 71.8,50.65 440.02,0 880.04,0.26 1320.05,0.41 5.05,0 18.14,1.35 22.24,3.71l0 178.63c-4.08,2.33 -17.14,3.66 -22.16,3.66l-127.85 0 0 23.18 76.32 0c9.97,0 18.54,4.77 23.79,13.24 5.26,8.47 5.72,18.26 1.29,27.19l-25.7 51.81c-4.84,9.77 -14.18,15.56 -25.08,15.56l-50.63 0 0 35.2 127.85 0c5.02,0 18.08,1.33 22.16,3.66l0 105.95zm-1430.64 -364.8l0 8.06 0 0.12 0 53.7 0 120.35c-10.83,12.11 -23.39,22.36 -37.43,30.61 -20.66,12.14 -43.64,17.08 -67.46,17.08 -18.86,0 -37.21,-3.56 -54.53,-11.08 -16.82,-7.31 -32.11,-17.37 -45.18,-30.26 -12.92,-12.75 -23.07,-27.64 -30.42,-44.23 -7.39,-16.68 -11.02,-34.37 -11.02,-52.6 0,-18.43 3.54,-36.32 11.02,-53.19 7.35,-16.58 17.5,-31.48 30.42,-44.23 13.07,-12.89 28.35,-22.95 45.18,-30.26 17.32,-7.52 35.67,-11.08 54.53,-11.08 23.52,0 45.8,5.29 66.41,16.73 14.41,8 27.42,18.08 38.48,30.28zm1077.79 10.05l-109.38 -0.17 55.11 148.92 54.26 -148.75zm-447.54 0.18l40.76 86.27 -0.13 -86.66 -40.63 0.39zm-382.4 3.69c0.38,0.36 0.76,0.72 1.13,1.08 7.07,6.85 13.15,14.45 18.27,22.7l0 -23.97 -19.4 0.19zm230.76 75.09l-92.37 0 0 23.18 68.67 0c4.16,0 8.07,0.83 11.61,2.41l12.09 -25.59zm-61.89 130.98l-30.48 0 0 35.2 13.85 0 16.63 -35.2zm-149.47 -53.36c-1.29,2.08 -2.65,4.12 -4.07,6.13 -5.14,7.25 -11,13.89 -17.5,19.88 7.47,9.23 13.23,19.64 17.42,30.78 1.44,3.52 2.84,7.05 4.15,10.62l0 -67.4zm-147.85 -83.63l0 47.22 18.43 0c4.28,0 8.53,-0.57 12.58,-1.98 3.01,-1.04 5.81,-2.51 8.2,-4.63 2.19,-1.94 3.81,-4.22 5.04,-6.87 1.32,-2.82 1.73,-6.01 1.73,-9.09 0,-3.26 -0.46,-6.53 -1.82,-9.51 -1.37,-2.99 -3.18,-5.59 -5.57,-7.85 -2.47,-2.33 -5.35,-4.01 -8.51,-5.24 -3.74,-1.45 -7.64,-2.04 -11.64,-2.04l-18.43 0zm465.21 108.56l-11.55 -25.02 -11.73 25.02 23.28 0z"/>
  <path class="fil2" d="M1802 528.89l-218.85 0 0 -331.18 218.85 0 0 53.05 -155.85 0 0 79.17 104.32 0 -25.7 51.81 -78.62 0 0 91.19 155.85 0 0 55.96zm-894.38 0l-52.25 0 -0.1 0.21 -70.46 0 0.1 -0.21 -96.14 0 0 -331.18 223.96 0.72 -25.59 52.33 -135.37 0 0 79.17 96.66 0 -25.33 51.81 -71.34 0 0 91.19 59.58 0 130.14 -275.43 50.15 0 156.68 331.59 -70.46 0 -30.67 -66.32 -160.82 0 -4.76 10.15 26.02 0 0 55.96zm-236.99 0.21l-70.74 0 -23.56 -75.44c-2.49,-8.29 -5.59,-15.89 -9.33,-22.8 -3.73,-6.91 -8.22,-12.85 -13.4,-17.82 -5.25,-4.97 -11.54,-8.84 -18.86,-11.61 -7.32,-2.76 -15.89,-4.14 -25.84,-4.14l-23.97 0 0 131.81 -63.42 0 0 -0.22c0,-110.32 0,-220.63 0,-330.95l130.77 -0.41c14.02,0 27.15,2.42 39.31,7.25 12.09,4.83 22.59,11.54 31.43,20.1 8.84,8.57 15.68,18.65 20.66,30.26 4.97,11.61 7.46,24.18 7.46,37.72 0,9.67 -1.52,19.06 -4.56,28.18 -2.97,9.12 -7.25,17.55 -12.71,25.29 -5.53,7.74 -12.02,14.58 -19.55,20.52 -7.6,5.94 -15.89,10.43 -24.94,13.47 10.43,3.87 18.93,9.46 25.56,16.79 6.56,7.32 11.81,16.1 15.61,26.32 1.93,4.7 3.73,9.39 5.39,14.09 1.59,4.7 3.32,9.6 5.11,14.72 1.8,5.11 3.73,10.64 5.8,16.58 2,5.94 4.28,12.5 6.77,19.69 3.04,9.12 5.87,16.93 8.5,23.42 2.63,6.49 5.46,12.23 8.5,17.2zm-277.1 -30.88c-32.95,15.77 -68.32,22.86 -104.89,22.86 -33.27,0 -65.79,-5.96 -96.54,-18.77 -29.2,-12.16 -55.7,-29.11 -78.43,-51.15 -22.45,-21.77 -39.94,-47.33 -52.54,-75.93 -13.09,-29.73 -19.21,-61.29 -19.21,-93.73 0,-32.44 6.12,-64 19.21,-93.73 12.63,-28.68 30.15,-54.32 52.56,-76.25 22.64,-22.15 49.09,-39.1 78.37,-51.11 30.8,-12.63 63.33,-18.49 96.58,-18.49 38.04,0 74.78,7.66 108.86,24.8 26.85,13.5 51.22,30.97 71.89,52.83l-53.44 53.27c-13.49,-15.33 -29.46,-27.91 -47.3,-37.83 -24.79,-13.77 -51.7,-20.26 -80,-20.26 -22.72,0 -44.82,4.34 -65.68,13.4 -20.01,8.69 -38.14,20.68 -53.68,36.01 -15.43,15.23 -27.57,33 -36.35,52.81 -9.07,20.46 -13.42,42.18 -13.42,64.54 0,22.17 4.43,43.67 13.42,63.95 8.78,19.81 20.92,37.59 36.35,52.81 15.54,15.33 33.68,27.32 53.68,36.01 20.86,9.06 42.96,13.4 65.68,13.4 28.86,0 56.63,-6.24 81.64,-20.94 8.19,-4.81 15.95,-10.2 23.24,-16.15l0 87.65zm193.38 -200.82c0,-7.74 -1.45,-14.78 -4.35,-21.14 -2.9,-6.36 -6.84,-11.88 -11.81,-16.58 -4.98,-4.7 -10.85,-8.36 -17.62,-10.98 -6.77,-2.63 -14.02,-3.94 -21.76,-3.94l-46.42 0 0 103.21 46.42 0c7.74,0 14.99,-1.17 21.76,-3.52 6.77,-2.35 12.64,-5.73 17.62,-10.16 4.97,-4.42 8.91,-9.74 11.81,-15.96 2.9,-6.22 4.35,-13.2 4.35,-20.93zm-136.51 -119.88l641.96 -6.19 0.28 182.91 62.84 138.53 1.96 -321.45 644.48 0.98 0 -51.55 -1299.01 -0.44 -52.51 57.2zm571.51 231.79l-55.13 -119.37 -55.96 119.37 111.08 0zm229.37 121.54l-64.24 0 0 -335.09 64.24 0 0 335.09zm319.74 -331.56l-124.24 328.03 -58.22 0 -127.11 -328.03 70.53 0 85.29 230.44 84.06 -230.44 69.71 0z"/>
  <path class="fil3" d="M2144.73 50.82c101.97,38.72 153.24,152.77 114.52,254.74 -18.68,49.19 -54.9,86.58 -98.83,107.77l0.07 0.03c-37.82,21.45 -64.29,44.1 -84.82,73.97l-169.32 -64.3c8.86,-37.41 1.14,-73.67 -14.05,-111.52l0.07 0.03c-18.8,-45 -21.07,-97.01 -2.39,-146.2 38.72,-101.97 152.77,-153.24 254.74,-114.52z"/>
  <path class="fil4 str0" d="M2015.02 236.89c-0.36,-0.69 -0.09,-1.56 0.61,-1.92l24.09 -12.54c0.41,-0.21 0.86,-0.22 1.28,-0.02 0.42,0.2 0.69,0.56 0.78,1.01l3.77 19.59 9.79 -6.52c0.36,-0.24 0.77,-0.3 1.18,-0.18 0.42,0.12 0.73,0.39 0.91,0.79l6.22 13.83 0.18 0.39 0.26 -0.26 18.31 -18.33c0.38,-0.38 0.89,-0.51 1.4,-0.36 0.51,0.15 0.88,0.54 0.99,1.06l5.18 22.95 12.76 -3.49c0.41,-0.11 0.8,-0.05 1.15,0.18 0.35,0.23 0.57,0.57 0.63,0.98l1.48 9.96 0.45 3.04 3.1 -1.94 11.14 -6.98c0.37,-0.23 0.77,-0.28 1.18,-0.15 0.41,0.13 0.71,0.4 0.88,0.8l4.67 10.88"/>
  <path class="fil5" d="M160.97 727.27l0 -24.33 -70.39 0 0 24.33 70.39 0zm-140.78 170.31l0 -85.11 0 -12.21 0 -72.99 0 -30.62 0 -66.71 211.18 0 0 267.63 -70.39 0 0 -97.32 -70.39 0 0 97.32 -70.39 0zm234.64 0l0 -72.99 140.78 0 0 -24.33 -140.78 0 0 -170.31 211.18 0 0 72.99 -140.79 0 0 24.33 140.79 0 0 170.31 -211.18 0zm234.64 0l0 -72.99 140.79 0 0 -24.33 -140.79 0 0 -170.31 211.18 0 0 72.99 -140.79 0 0 24.33 140.79 0 0 170.31 -211.18 0zm375.43 -72.99l0 -121.65 -70.39 0 0 121.65 70.39 0zm-140.79 72.99l0 -267.63 211.18 0 0 267.63 -211.18 0zm234.64 0l0 -267.63 211.18 0 0 72.99 -140.79 0 0 121.65 140.79 0 0 72.99 -211.18 0zm234.64 0l0 -267.63 70.39 0 0 267.63 -70.39 0zm234.64 -170.31l0 -24.33 -70.39 0 0 24.33 70.39 0zm-140.79 170.31l0 -267.63 211.18 0 0 267.63 -70.39 0 0 -97.32 -70.39 0 0 97.32 -70.39 0zm305.04 0l0 -194.64 -70.39 0 0 -72.99 211.18 0 0 72.99 -70.39 0 0 194.64 -70.39 0zm164.25 0l0 -267.63 70.39 0 0 267.63 -70.39 0zm234.64 -72.99l0 -121.65 -70.39 0 0 121.65 70.39 0zm-140.79 72.99l0 -267.63 211.18 0 0 267.63 -211.18 0zm445.82 48.66l-140.78 -145.98 0 97.32 -70.39 0 0 -316.29 140.79 145.98 0 -97.32 70.39 0 0 316.29z"/>
  <path class="fil6" d="M70.45 884.35l6.9 0 0 -90.42 -6.9 0 0 90.42zm140.79 0l6.89 0 0 -241.17 -184.72 0 0 6.89 177.83 0 0 234.28zm-43.94 -143.85l-89.95 0 0 -43.89 -6.9 0 0 50.79 96.85 0 0 -6.9zm278.58 143.85l6.89 0 0 -143.85 -140.78 0 0 -43.89 -6.89 0 0 50.79 140.78 0 0 136.96zm0 -194.64l6.89 0 0 -46.54 -184.72 0 0 6.89 177.83 0 0 39.64zm-43.94 148.1l-133.89 0 0 6.9 133.89 0 0 -6.9zm278.58 46.54l6.9 0 0 -143.85 -140.79 0 0 -43.89 -6.89 0 0 50.79 140.78 0 0 136.96zm0 -194.64l6.9 0 0 -46.54 -184.72 0 0 6.89 177.83 0 0 39.64zm-43.94 148.1l-133.89 0 0 6.9 133.89 0 0 -6.9zm278.58 46.54l6.89 0 0 -241.17 -184.72 0 0 6.89 177.83 0 0 234.28zm-43.94 -46.54l-89.95 0 0 -141.21 -6.89 0 0 148.1 96.85 0 0 -6.9zm278.58 46.54l6.89 0 0 -46.54 -140.78 0 0 -141.21 -6.9 0 0 148.1 140.79 0 0 39.64zm0 -194.64l6.89 0 0 -46.54 -184.72 0 0 6.89 177.83 0 0 39.64zm93.86 194.64l6.89 0 0 -241.17 -43.94 0 0 6.89 37.04 0 0 234.28zm93.86 0l6.89 0 0 -90.42 -6.89 0 0 90.42zm140.79 0l6.89 0 0 -241.17 -184.72 0 0 6.89 177.83 0 0 234.28zm-43.94 -143.85l-89.95 0 0 -43.89 -6.89 0 0 50.79 96.85 0 0 -6.9zm208.19 143.85l6.9 0 0 -187.74 -6.9 0 0 187.74zm70.39 -194.64l6.89 0 0 -46.54 -184.72 0 0 6.89 177.83 0 0 39.64zm93.86 194.64l6.9 0 0 -241.17 -43.94 0 0 6.89 37.04 0 0 234.28zm234.64 0l6.9 0 0 -241.17 -184.72 0 0 6.89 177.83 0 0 234.28zm-43.94 -46.54l-89.95 0 0 -141.21 -6.89 0 0 148.1 96.85 0 0 -6.9zm285.47 75.65l0 -270.29 -43.94 0 0 6.89 37.04 0 0 256.25 6.89 7.15zm-50.83 -160.58l-133.89 -138.83 0 14.04 133.89 138.83 0 -14.04zm-96.85 131.46l6.89 0 0 -102.82 -6.89 -7.15 0 109.97z"/>
  <path class="fil1" d="M2027.26 366.46l0 0c5.99,2.27 10.5,6.75 13,12.16l102.13 -113.37c1.26,-1.4 3.43,-1.51 4.83,-0.25 1.4,1.26 1.51,3.43 0.25,4.83l-105.11 116.67c0.31,3.45 -0.12,7.01 -1.4,10.46l-18.15 48.73 -44.2 -16.78 18.14 -48.74c1.35,-3.61 3.51,-6.7 6.2,-9.13l-1.17 -156.53c-0.01,-1.88 1.51,-3.43 3.39,-3.45 1.88,-0.01 3.43,1.51 3.44,3.39l1.14 152.29c5.4,-2.24 11.63,-2.51 17.48,-0.29z"/>
  <path class="fil1 str1" d="M2151.82 32.16c111.38,42.29 167.39,166.87 125.09,278.25 -20.4,53.73 -59.96,94.57 -107.95,117.71l0.08 0.03c-41.31,23.43 -70.22,48.17 -92.65,80.8l-184.95 -70.23c9.68,-40.86 1.25,-80.46 -15.35,-121.81l0.08 0.03c-20.53,-49.16 -23.02,-105.96 -2.61,-159.69 42.29,-111.38 166.87,-167.39 278.25,-125.09zm-225.53 386.27l139.37 52.92c30.1,-39.79 60.74,-57.39 89.7,-71.46 42.67,-20.57 75.44,-56.32 92.26,-100.61 36.15,-95.21 -11.71,-201.67 -106.92,-237.82 -95.21,-36.15 -201.67,11.71 -237.82,106.92 -16.82,44.29 -16.03,92.78 2.23,136.49 15.33,36.88 25.87,55.24 21.18,113.56z"/>
  <rect class="fil1" transform="matrix(0.956734 0.36329 -0.36329 0.956734 1877.73 441.687)" width="216.66" height="34" rx="13.33" ry="13.33"/>
  <rect class="fil1" transform="matrix(0.887565 0.337025 -0.266349 0.701437 1869.82 485.102)" width="216.66" height="34" rx="13.33" ry="13.33"/>
  <path class="fil1" d="M2035.67 585.93c-16.79,11.84 -53.96,10.98 -92.71,-3.74 -38.76,-14.72 -67.12,-38.74 -71.82,-58.74l164.54 62.48z"/>
 </g>
</svg>
