<?xml version="1.0" encoding="UTF-8"?>
<svg 
  xmlns="http://www.w3.org/2000/svg"
  xml:space="preserve"
  width="8.41402in"
  height="3.61in"
  version="1.1"
  style="shape-rendering:geometricPrecision; text-rendering:geometricPrecision; image-rendering:optimizeQuality; fill-rule:evenodd; clip-rule:evenodd"
  viewBox="0 0 8539.9 3664.01"
  xmlns:xlink="http://www.w3.org/1999/xlink"
>
 <defs>
  <style type="text/css">
   <![CDATA[
    .str0 {stroke:#373435;stroke-width:3.04;stroke-miterlimit:2.61313}
    .fil0 {fill:#FEFEFE}
    .fil6 {fill:#A9ABAE}
    .fil4 {fill:#A9ABAE}
    .fil1 {fill:#373435}
    .fil3 {fill:#FFF212}
    .fil2 {fill:#FEFEFE;fill-rule:nonzero}
    .fil5 {fill:#373435;fill-rule:nonzero}
   ]]>
  </style>
    <clipPath id="id0">
     <path d="M-0 45.35l8539.9 0 0 3618.66 -8539.9 0 0 -3618.66z"/>
    </clipPath>
 </defs>
 <g id="Layer_x0020_1">
  <metadata id="CorelCorpID_0Corel-Layer"/>
  <g id="_2652242558704">
   <g style="clip-path:url(#id0)">
    <image x="-0" y="45.35" width="8539.9" height="3618.66" xlink:href="banner_web_Images\banner_web_ImgID1.png"/>
   </g>
   <path className="fil0" d="M7478.76 2161.72c-3.59,6.06 -8.54,11.42 -14.72,15.77 -99.78,70.34 -280.49,32.12 -385.23,-7.65 -104.77,-39.78 -265.27,-131.07 -293.22,-249.97 -1.73,-7.35 -1.87,-14.65 -0.54,-21.56 -25.3,-23.47 -35.34,-60.9 -22.38,-95.03l7.12 -18.76c4.93,-12.99 12.67,-24.12 22.27,-32.97 -15.25,-25.51 -19.17,-57.51 -7.86,-87.31l9.71 -25.57c11.88,-31.28 37.91,-53.23 68.07,-61.34 29.79,-138.95 -3.82,-273.1 -55.99,-403.11 -0.55,-1.37 -1.04,-2.75 -1.47,-4.14 -80.71,-196.69 -83.64,-415.92 -8.11,-614.83 79.08,-208.24 236.25,-375.05 439.37,-466.37 202.11,-90.86 433.26,-97.76 640.44,-19.09 208.24,79.08 375.05,236.25 466.37,439.37 90.86,202.11 97.76,433.26 19.09,640.44 -75.69,199.33 -222.99,360.89 -414.31,454.57 -0.44,0.26 -0.89,0.53 -1.34,0.78 -123.63,70.12 -228.77,150.46 -311.61,265.87 17.03,26.05 21.86,59.62 10.03,90.78l-9.71 25.58c-11.31,29.8 -35.48,51.13 -63.82,60.1 1.31,12.99 -0.3,26.46 -5.23,39.45l-7.12 18.76c-12.96,34.13 -45.31,55.44 -79.81,56.21zm-1846.46 -717.25l-201.49 531.99c-22.79,60.17 -78.56,98.68 -142.9,98.68l-212.26 0c-63.93,0 -119.38,-37.98 -142.48,-97.59l-205.15 -529.42 0 487.09c0,84.22 -68.58,152.8 -152.8,152.8l-234.21 0c-27.08,0 -53.29,-7.17 -76.24,-20.43 -20.06,9.31 -42.08,14.05 -64.87,14.05l-256.87 0c-60.49,0 -113.3,-33.76 -138.69,-88.66l-70.81 -153.11 -258.29 0 0 88.2c0,84.22 -68.58,152.8 -152.8,152.8l-175.17 0c-5.2,0.51 -10.43,0.76 -15.66,0.76l-256.87 0c-5.25,0 -10.51,-0.25 -15.74,-0.76l-334.39 0c-10.42,0 -20.79,-1.06 -30.97,-3.17 -11.52,2.63 -23.32,3.92 -35.18,3.92l-257.88 0c-67.57,0 -125.72,-42.76 -145.86,-107.25l-85.88 -275.01c-0.17,-0.55 -0.34,-1.09 -0.5,-1.64 -5.62,-18.75 -12.79,-37.18 -22.1,-54.43 -3.43,-6.35 -7.37,-12.58 -11.92,-18.27l0 303.8c0,84.22 -68.58,152.8 -152.8,152.8l-231.18 0c-60.24,0 -112.49,-35.09 -137.35,-85.9 -111.55,38.69 -228.42,56.65 -347.07,56.65 -141.26,0 -280.16,-25.79 -410.71,-80.19 -123.93,-51.64 -237.05,-124.26 -333.53,-217.82 -95.83,-92.92 -171.21,-202.82 -224.99,-324.91 -56.2,-127.61 -83,-264.01 -83,-403.28 0,-139.27 26.8,-275.65 83,-403.27 53.8,-122.16 129.12,-232.23 224.58,-325.61 96.46,-94.37 209.83,-167.29 334.57,-218.46 130.5,-53.54 269.2,-78.85 410.08,-78.85 162.37,0 320.1,33.58 465.5,106.71 94.4,47.48 182.05,107.13 259.24,179.22 1597.33,0.01 3194.67,0.96 4792.01,1.5 28.93,0.01 81.84,6.18 106.34,20.26 16.18,9.3 25.46,25.33 25.46,44l0 651.22c0,18.73 -9.34,34.8 -25.61,44.08 -24.34,13.88 -77.21,20 -105.92,20l-117.01 0c23.74,12.35 44.02,31.12 59,55.26 28.3,45.62 30.9,100.35 7.04,148.44l-93.67 188.87c-26.23,52.87 -77.88,84.91 -136.9,84.91l-133.81 0 0 26.82 415.34 0c28.72,0 81.58,6.12 105.92,20 16.27,9.28 25.61,25.35 25.61,44.08l0 386.26c0,27.72 -22.37,50.38 -50.08,50.74 -293.08,3.85 -586.16,8.51 -879.27,8.51 -84.22,0 -152.8,-68.58 -152.8,-152.8l0 -483.61zm-4234.77 -732.57c-33.63,-34.17 -72.18,-62.87 -114.17,-86.2 -67.53,-37.51 -140.39,-54.62 -217.45,-54.62 -61.73,0 -121.87,11.56 -178.57,36.19 -55.53,24.12 -106.12,57.33 -149.26,99.89 -42.52,41.95 -75.95,91.1 -100.15,145.68 -24.37,54.97 -35.8,113.3 -35.8,173.35 0,59.31 11.75,116.93 35.8,171.19 24.2,54.57 57.63,103.72 100.15,145.67 43.15,42.56 93.74,75.77 149.28,99.89 56.69,24.63 116.83,36.19 178.55,36.19 77.65,0 152.8,-15.64 220.22,-55.26 41.05,-24.13 78.45,-53.53 111.4,-87.74l0 -624.23zm6166.47 1547.7l0 -140.5c0,-21.13 12.16,-39.15 31.75,-47.06 19.59,-7.91 40.86,-3.37 55.52,11.83l425.96 441.68 0 -229.06c0,-27.95 22.8,-50.75 50.75,-50.75l256.62 0c27.95,0 50.75,22.8 50.75,50.75l0 1153.04c0,21.13 -12.16,39.15 -31.75,47.06 -19.59,7.91 -40.86,3.37 -55.52,-11.83l-425.96 -441.68 0 229.06c0,27.95 -22.8,50.75 -50.75,50.75l-256.62 0c-17.93,0 -33.74,-9.38 -42.77,-23.48 -9.03,14.1 -24.84,23.48 -42.77,23.48l-769.86 0c-17.93,0 -33.74,-9.38 -42.77,-23.48 -9.03,14.1 -24.84,23.48 -42.77,23.48l-256.62 0c-27.95,0 -50.75,-22.8 -50.75,-50.75l0 -672.68c-9.09,8.58 -21.35,13.86 -34.79,13.86l-205.87 0 0 658.82c0,27.95 -22.8,50.75 -50.75,50.75l-256.62 0c-27.95,0 -50.75,-22.8 -50.75,-50.75l0 -658.82 -205.87 0c-13.44,0 -25.69,-5.27 -34.79,-13.85l0 672.67c0,27.95 -22.8,50.75 -50.75,50.75l-256.62 0c-27.95,0 -50.75,-22.8 -50.75,-50.75l0 -304.04 -155.13 0 0 304.04c0,27.95 -22.8,50.75 -50.75,50.75l-256.62 0c-17.93,0 -33.74,-9.38 -42.77,-23.48 -9.03,14.1 -24.84,23.48 -42.77,23.48l-256.62 0c-17.93,0 -33.74,-9.38 -42.77,-23.48 -9.03,14.1 -24.84,23.48 -42.77,23.48l-769.86 0c-17.93,0 -33.74,-9.38 -42.77,-23.48 -9.03,14.1 -24.84,23.48 -42.77,23.48l-769.86 0c-17.93,0 -33.74,-9.38 -42.77,-23.48 -9.03,14.1 -24.84,23.48 -42.77,23.48l-769.86 0c-17.93,0 -33.74,-9.38 -42.77,-23.48 -9.03,14.1 -24.84,23.48 -42.77,23.48l-769.86 0c-17.93,0 -33.74,-9.38 -42.77,-23.48 -9.03,14.1 -24.84,23.48 -42.77,23.48l-256.62 0c-27.95,0 -50.75,-22.8 -50.75,-50.75l0 -304.04 -155.12 0 0 304.04c0,27.95 -22.8,50.75 -50.75,50.75l-256.62 0c-27.95,0 -50.75,-22.8 -50.75,-50.75l0 -975.65c0,-27.95 22.8,-50.75 50.75,-50.75l769.86 0c17.93,0 33.74,9.38 42.77,23.48 9.03,-14.1 24.84,-23.48 42.77,-23.48l769.86 0c17.93,0 33.74,9.38 42.77,23.48 9.03,-14.1 24.84,-23.48 42.77,-23.48l769.86 0c17.93,0 33.74,9.38 42.77,23.48 9.03,-14.1 24.84,-23.48 42.77,-23.48l769.86 0c17.93,0 33.74,9.38 42.77,23.48 9.03,-14.1 24.84,-23.48 42.77,-23.48l769.86 0c17.93,0 33.74,9.38 42.77,23.48 9.03,-14.1 24.84,-23.48 42.77,-23.48l256.62 0c17.93,0 33.74,9.38 42.77,23.48 9.03,-14.1 24.84,-23.48 42.77,-23.48l769.86 0c17.93,0 33.74,9.38 42.77,23.48 9.03,-14.1 24.84,-23.48 42.77,-23.48l769.86 0c17.93,0 33.74,9.38 42.77,23.48 9.03,-14.1 24.84,-23.48 42.77,-23.48l256.62 0c17.93,0 33.74,9.38 42.77,23.48 9.03,-14.1 24.84,-23.48 42.77,-23.48l769.86 0c13.44,0 25.69,5.27 34.79,13.85zm-3250.5 339.88c-9.09,8.58 -21.35,13.85 -34.79,13.85l-462.49 0 0 341.98 462.49 0c13.44,0 25.69,5.27 34.79,13.85l0 -369.69zm-1710.79 0c-3.06,2.89 -6.47,5.39 -10.16,7.46 3.69,2.06 7.1,4.57 10.16,7.45l0 -14.91zm-855.39 0c-3.06,2.89 -6.47,5.39 -10.16,7.46 3.69,2.06 7.1,4.57 10.16,7.45l0 -14.91zm15.96 354.78l0 14.91c3.06,-2.88 6.47,-5.39 10.16,-7.45 -3.69,-2.06 -7.1,-4.57 -10.16,-7.46zm-855.39 0l0 14.91c3.06,-2.88 6.47,-5.39 10.16,-7.45 -3.69,-2.06 -7.1,-4.57 -10.16,-7.46zm2208.06 1.05l0 -341.98 -155.12 0 0 341.98 155.12 0zm4105.9 0l0 -341.98 -155.13 0 0 341.98 155.13 0z"/>
   <path className="fil1" d="M6663.7 2021.63c-277.45,3.64 -582.65,8.51 -878.61,8.51 -56.21,0 -102.06,-45.85 -102.06,-102.06l0 -760.87 -299.7 791.28c-15.32,40.45 -52.19,65.9 -95.44,65.9l-212.26 0c-42.98,0 -79.63,-25.1 -95.16,-65.18l-303.21 -782.5 0 758.51c0,56.21 -45.85,102.06 -102.06,102.06l-234.21 0c-28.89,0 -55.05,-12.12 -73.65,-31.52 -18.21,16.31 -41.52,25.15 -67.45,25.15l-256.87 0c-40.71,0 -75.54,-22.27 -92.63,-59.21l-84.43 -182.56 -341.48 0 0 138.95c0,56.21 -45.85,102.06 -102.06,102.06l-177.9 0c-4.23,0.51 -8.55,0.76 -12.93,0.76l-256.87 0c-4.42,0 -8.77,-0.26 -13.02,-0.76l-337.11 0c-10.99,0 -21.58,-1.75 -31.51,-4.99 -10.8,3.78 -22.44,5.75 -34.64,5.75l-257.88 0c-45.38,0 -83.89,-28.32 -97.42,-71.63l-85.88 -275.01c-0.12,-0.38 -0.22,-0.71 -0.34,-1.09 -6.61,-22.06 -15.1,-43.67 -26.05,-63.95 -7.84,-14.53 -17.5,-28.17 -29.48,-39.59 -9.82,-9.38 -21.72,-15.92 -34.36,-20.69 -13.4,-5.05 -28.68,-7.32 -43.48,-8.15l0 378.06c0,56.21 -45.85,102.06 -102.06,102.06l-231.18 0c-56.21,0 -102.06,-45.85 -102.06,-102.06l0 -0.82c-121.2,50.39 -250.04,73.62 -382.36,73.62 -134.66,0 -266.73,-24.42 -391.19,-76.28 -118.15,-49.23 -225.74,-118.21 -317.72,-207.4 -91.21,-88.45 -162.69,-192.73 -213.87,-308.94 -53.41,-121.26 -78.69,-250.5 -78.69,-382.82 0,-132.32 25.29,-261.55 78.69,-382.82 51.24,-116.34 122.71,-220.85 213.63,-309.8 91.87,-89.88 199.56,-159.06 318.34,-207.79 124.48,-51.08 256.44,-75.05 390.81,-75.05 154.53,0 304.29,31.69 442.7,101.3 96.2,48.38 184.71,109.71 261.74,184.63 1604.09,0 3208.2,0.96 4812.3,1.5 18.4,0.01 66.13,4.93 81.06,13.51l0 651.22c-14.87,8.48 -62.49,13.33 -80.78,13.33l-466.09 0 0 84.5 278.23 0c36.34,0 67.57,17.38 86.73,48.26 19.16,30.88 20.85,66.58 4.7,99.14l-93.67 188.87c-17.65,35.6 -51.69,56.71 -91.43,56.71l-184.56 0 0 128.31 466.09 0c18.29,0 65.91,4.85 80.78,13.33l0 386.26zm-5215.43 -1329.89l0 29.37 0 0.42 0 195.77 0 438.74c-39.48,44.13 -85.28,81.52 -136.44,111.59 -75.33,44.26 -159.09,62.26 -245.93,62.26 -68.75,0 -135.64,-12.96 -198.77,-40.39 -61.33,-26.64 -117.05,-63.31 -164.7,-110.31 -47.1,-46.46 -84.1,-100.78 -110.9,-161.23 -26.95,-60.79 -40.16,-125.31 -40.16,-191.76 0,-67.2 12.89,-132.41 40.16,-193.92 26.8,-60.46 63.81,-114.77 110.9,-161.24 47.65,-47 103.36,-83.67 164.69,-110.32 63.14,-27.42 130.03,-40.39 198.78,-40.39 85.76,0 166.96,19.27 242.09,61 52.51,29.17 99.95,65.9 140.28,110.4zm3929.12 36.65l-398.74 -0.6 200.92 542.89 197.81 -542.29zm-1631.52 0.67l148.6 314.49 -0.48 -315.92 -148.12 1.43zm-1394.05 13.45c1.38,1.31 2.76,2.62 4.12,3.94 25.78,24.97 47.95,52.66 66.6,82.74l0 -87.37 -70.72 0.68zm841.24 273.74l-336.73 0 0 84.5 250.34 0c15.16,0 29.43,3.02 42.31,8.8l44.08 -93.29zm-225.61 477.49l-111.12 0 0 128.31 50.49 0 60.63 -128.31zm-544.91 -194.51c-4.72,7.58 -9.67,15.03 -14.85,22.33 -18.74,26.41 -40.08,50.63 -63.8,72.47 27.24,33.63 48.22,71.6 63.51,112.21 5.25,12.82 10.35,25.7 15.14,38.7l0 -245.71zm-538.98 -304.89l0 172.14 67.18 0c15.61,0 31.08,-2.08 45.87,-7.2 10.97,-3.8 21.17,-9.13 29.88,-16.88 7.97,-7.08 13.88,-15.39 18.39,-25.05 4.8,-10.27 6.29,-21.91 6.29,-33.15 0,-11.88 -1.68,-23.81 -6.65,-34.68 -4.98,-10.92 -11.58,-20.39 -20.3,-28.63 -9.01,-8.51 -19.51,-14.61 -31.04,-19.08 -13.62,-5.27 -27.86,-7.45 -42.43,-7.45l-67.18 0zm1695.93 395.77l-42.11 -91.19 -42.75 91.19 84.87 0z"/>
   <path className="fil2" d="M6582.93 1928.08l-797.83 0 0 -1207.31 797.83 0 0 193.41 -568.15 0 0 288.61 380.29 0 -93.68 188.87 -286.61 0 0 332.43 568.15 0 0 203.99zm-3260.5 0l-190.47 0 -0.36 0.76 -256.87 0 0.36 -0.76 -350.49 0 0 -1207.31 816.44 2.63 -93.27 190.78 -493.49 0 0 288.61 352.39 0 -92.34 188.87 -260.05 0 0 332.43 217.19 0 474.43 -1004.08 182.83 0 571.17 1208.82 -256.87 0 -111.82 -241.76 -586.28 0 -17.35 37.02 94.85 0 0 203.99zm-863.97 0.76l-257.88 0 -85.88 -275.01c-9.06,-30.22 -20.4,-57.92 -34,-83.1 -13.6,-25.19 -29.97,-46.84 -48.85,-64.98 -19.14,-18.13 -42.06,-32.23 -68.75,-42.31 -26.69,-10.07 -57.92,-15.11 -94.19,-15.11l-87.39 0 0 480.5 -231.18 0 0 -0.82c0,-402.16 0,-804.33 0,-1206.49l476.72 -1.51c51.12,0 98.98,8.81 143.3,26.44 44.07,17.63 82.35,42.05 114.59,73.28 32.23,31.23 57.17,68 75.3,110.31 18.13,42.31 27.2,88.14 27.2,137.5 0,35.26 -5.54,69.5 -16.62,102.74 -10.83,33.25 -26.44,63.97 -46.34,92.18 -20.15,28.2 -43.82,53.13 -71.27,74.79 -27.7,21.66 -57.92,38.03 -90.91,49.11 38.03,14.1 69,34.5 93.18,61.19 23.93,26.7 43.06,58.68 56.92,95.95 7.05,17.13 13.59,34.25 19.64,51.37 5.79,17.13 12.09,35.01 18.64,53.65 6.55,18.63 13.6,38.78 21.15,60.44 7.3,21.65 15.61,45.58 24.68,71.77 11.08,33.24 21.41,61.7 30.98,85.37 9.57,23.68 19.9,44.57 30.98,62.71zm-1010.18 -112.57c-120.13,57.5 -249.07,83.32 -382.36,83.32 -121.29,0 -239.82,-21.72 -351.94,-68.43 -106.44,-44.35 -203.05,-106.11 -285.93,-186.47 -81.84,-79.36 -145.6,-172.54 -191.52,-276.8 -47.73,-108.39 -70.03,-223.43 -70.03,-341.69 0,-118.26 22.3,-233.3 70.03,-341.69 46.04,-104.55 109.91,-198.04 191.61,-277.97 82.55,-80.76 178.97,-142.54 285.71,-186.33 112.28,-46.06 230.88,-67.41 352.07,-67.41 138.66,0 272.61,27.94 396.84,90.42 97.87,49.22 186.73,112.91 262.07,192.61l-194.83 194.19c-49.16,-55.87 -107.38,-101.76 -172.42,-137.89 -90.36,-50.2 -188.47,-73.84 -291.65,-73.84 -82.83,0 -163.39,15.81 -239.44,48.84 -72.95,31.68 -139.05,75.37 -195.71,131.27 -56.26,55.5 -100.51,120.3 -132.53,192.53 -33.07,74.6 -48.91,153.75 -48.91,235.28 0,80.81 16.16,159.2 48.91,233.11 32.02,72.22 76.27,137.02 132.53,192.52 56.66,55.9 122.77,99.59 195.71,131.27 76.05,33.03 156.61,48.84 239.44,48.84 105.21,0 206.46,-22.75 297.63,-76.33 29.86,-17.55 58.14,-37.19 84.73,-58.86l0 319.53zm704.95 -732.09c0,-28.21 -5.29,-53.89 -15.86,-77.06 -10.58,-23.17 -24.93,-43.32 -43.06,-60.44 -18.14,-17.13 -39.54,-30.47 -64.22,-40.04 -24.68,-9.57 -51.12,-14.35 -79.33,-14.35l-169.23 0 0 376.24 169.23 0c28.21,0 54.65,-4.28 79.33,-12.84 24.68,-8.57 46.08,-20.91 64.22,-37.02 18.13,-16.12 32.49,-35.51 43.06,-58.17 10.58,-22.67 15.86,-48.1 15.86,-76.31zm-497.63 -437.02l2340.3 -22.56 1.01 666.82 229.08 505.03 7.14 -1171.85 2349.48 3.58 0 -187.94 -4735.59 -1.6 -191.42 208.52zm2083.44 845l-200.97 -435.17 -203.99 435.17 404.95 0zm836.18 443.07l-234.2 0 0 -1221.57 234.2 0 0 1221.57zm1165.62 -1208.71l-452.92 1195.83 -212.26 0 -463.38 -1195.83 257.1 0 310.92 840.07 306.43 -840.07 254.12 0z"/>
   <path className="fil3" d="M7832.38 185.28c371.73,141.15 558.65,556.92 417.5,928.65 -68.1,179.34 -200.13,315.64 -360.28,392.87l0.26 0.1c-137.86,78.18 -234.37,160.76 -309.2,269.68l-617.26 -234.39c32.3,-136.37 4.16,-268.55 -51.22,-406.53l0.27 0.1c-68.53,-164.06 -76.82,-353.64 -8.72,-532.98 141.15,-371.73 556.93,-558.64 928.65,-417.49z"/>
   <path className="fil4" d="M7470.74 885.92l35.68 -23.76c1.31,-0.88 2.79,-1.11 4.31,-0.67 1.52,0.44 2.65,1.42 3.3,2.87l22.67 50.42 0.64 1.42 0.93 -0.94 66.75 -66.83c1.37,-1.37 3.25,-1.86 5.12,-1.32 1.87,0.54 3.2,1.95 3.62,3.85l18.87 83.66 46.52 -12.71c1.49,-0.4 2.92,-0.18 4.21,0.66 1.29,0.84 2.07,2.06 2.3,3.58l5.41 36.31 1.65 11.08 11.31 -7.08 40.59 -25.44c1.33,-0.83 2.81,-1.02 4.31,-0.56 1.5,0.47 2.61,1.47 3.22,2.91l17.01 39.68c1.13,2.63 -0.1,5.69 -2.73,6.82 -2.63,1.13 -5.69,-0.1 -6.82,-2.73l-1.74 -4.06 -12.87 -30.05 -27.87 17.46 -25.62 16.05c-1.53,0.96 -3.29,1.07 -4.93,0.32 -1.64,-0.75 -2.7,-2.17 -2.97,-3.95l-3.56 -23.87 -3.81 -25.59 -41.95 11.45 -4.18 1.14c-1.42,0.38 -2.79,0.2 -4.04,-0.56 -1.26,-0.76 -2.07,-1.87 -2.39,-3.31l-0.13 -0.59 -17.85 -79.17 -56.21 56.29 -10.13 10.13c-1.25,1.25 -2.88,1.75 -4.61,1.44 -1.73,-0.32 -3.08,-1.37 -3.8,-2.98l-7.48 -16.63 -16.4 -36.48 -32.23 21.46 -4.85 3.23c-1.49,0.99 -3.23,1.16 -4.89,0.47 -1.65,-0.69 -2.75,-2.05 -3.09,-3.81l-0.79 -4.1 -13.11 -68.16 -77.29 40.23 -4.34 2.25c-2.53,1.32 -5.68,0.33 -7,-2.21 -1.32,-2.53 -0.33,-5.68 2.21,-7l87.81 -45.71c1.5,-0.78 3.13,-0.81 4.66,-0.07 1.53,0.74 2.52,2.03 2.84,3.69l13.73 71.43z"/>
   <path className="fil5" d="M600.51 2651.29l0 -88.7 -256.62 0 0 88.7 256.62 0zm-513.23 620.87l0 -310.27 0 -44.52 0 -266.08 0 -111.61 0 -243.18 769.86 0 0 975.65 -256.62 0 0 -354.79 -256.62 0 0 354.79 -256.62 0zm855.39 0l0 -266.09 513.23 0 0 -88.7 -513.23 0 0 -620.87 769.86 0 0 266.09 -513.24 0 0 88.7 513.24 0 0 620.87 -769.86 0zm855.39 0l0 -266.09 513.24 0 0 -88.7 -513.24 0 0 -620.87 769.86 0 0 266.09 -513.24 0 0 88.7 513.24 0 0 620.87 -769.86 0zm1368.63 -266.09l0 -443.48 -256.62 0 0 443.48 256.62 0zm-513.24 266.09l0 -975.65 769.86 0 0 975.65 -769.86 0zm855.4 0l0 -975.65 769.86 0 0 266.09 -513.24 0 0 443.48 513.24 0 0 266.09 -769.86 0zm855.39 0l0 -975.65 256.62 0 0 975.65 -256.62 0zm855.4 -620.87l0 -88.7 -256.62 0 0 88.7 256.62 0zm-513.24 620.87l0 -975.65 769.86 0 0 975.65 -256.62 0 0 -354.79 -256.62 0 0 354.79 -256.62 0zm1112.01 0l0 -709.57 -256.62 0 0 -266.09 769.86 0 0 266.09 -256.62 0 0 709.57 -256.62 0zm598.78 0l0 -975.65 256.62 0 0 975.65 -256.62 0zm855.4 -266.09l0 -443.48 -256.62 0 0 443.48 256.62 0zm-513.24 266.09l0 -975.65 769.86 0 0 975.65 -769.86 0zm1625.25 177.39l-513.23 -532.18 0 354.79 -256.62 0 0 -1153.04 513.24 532.18 0 -354.79 256.62 0 0 1153.04z"/>
   <path className="fil6" d="M270.54 3223.93l25.14 0 0 -329.65 -25.14 0 0 329.65zm513.24 0l25.13 0 0 -879.21 -673.42 0 0 25.13 648.28 0 0 854.07zm-160.18 -524.43l-327.92 0 0 -160 -25.14 0 0 185.14 353.06 0 0 -25.14zm1015.57 524.43l25.13 0 0 -524.43 -513.23 0 0 -160 -25.13 0 0 185.14 513.23 0 0 499.29zm0 -709.56l25.13 0 0 -169.65 -673.42 0 0 25.13 648.28 0 0 144.51zm-160.18 539.92l-488.1 0 0 25.14 488.1 0 0 -25.14zm1015.57 169.65l25.14 0 0 -524.43 -513.24 0 0 -160 -25.13 0 0 185.14 513.23 0 0 499.29zm0 -709.56l25.14 0 0 -169.65 -673.42 0 0 25.13 648.28 0 0 144.51zm-160.18 539.92l-488.1 0 0 25.14 488.1 0 0 -25.14zm1015.57 169.65l25.13 0 0 -879.21 -673.42 0 0 25.13 648.28 0 0 854.07zm-160.18 -169.65l-327.92 0 0 -514.78 -25.13 0 0 539.92 353.06 0 0 -25.14zm1015.57 169.65l25.13 0 0 -169.65 -513.23 0 0 -514.78 -25.14 0 0 539.92 513.24 0 0 144.51zm0 -709.56l25.13 0 0 -169.65 -673.42 0 0 25.13 648.28 0 0 144.51zm342.16 709.56l25.13 0 0 -879.21 -160.18 0 0 25.13 135.05 0 0 854.07zm342.16 0l25.13 0 0 -329.65 -25.13 0 0 329.65zm513.24 0l25.13 0 0 -879.21 -673.42 0 0 25.13 648.28 0 0 854.07zm-160.18 -524.43l-327.92 0 0 -160 -25.13 0 0 185.14 353.06 0 0 -25.14zm758.95 524.43l25.14 0 0 -684.43 -25.14 0 0 684.43zm256.62 -709.56l25.13 0 0 -169.65 -673.42 0 0 25.13 648.28 0 0 144.51zm342.15 709.56l25.14 0 0 -879.21 -160.18 0 0 25.13 135.04 0 0 854.07zm855.4 0l25.14 0 0 -879.21 -673.42 0 0 25.13 648.28 0 0 854.07zm-160.18 -169.65l-327.92 0 0 -514.78 -25.13 0 0 539.92 353.06 0 0 -25.14zm1040.71 275.8l0 -985.36 -160.18 0 0 25.13 135.05 0 0 934.16 25.13 26.07zm-185.31 -585.4l-488.1 -506.11 0 51.2 488.1 506.11 0 -51.2zm-353.06 479.25l25.13 0 0 -374.83 -25.13 -26.06 0 400.89z"/>
   <path className="fil1" d="M7404.13 1335.93l0 0c21.82,8.29 38.27,24.6 47.38,44.33l372.33 -413.31c4.6,-5.1 12.51,-5.51 17.61,-0.92 5.1,4.6 5.51,12.51 0.92,17.61l-383.16 425.33c1.14,12.56 -0.44,25.56 -5.11,38.12l-66.15 177.66 -161.12 -61.18 66.14 -177.67c4.91,-13.18 12.79,-24.42 22.61,-33.27l-4.27 -570.64c-0.05,-6.86 5.51,-12.5 12.38,-12.56 6.86,-0.05 12.5,5.51 12.56,12.38l4.16 555.18c19.67,-8.16 42.39,-9.15 63.72,-1.05z"/>
   <path className="fil1 str0" d="M7858.22 117.25c406.04,154.18 610.21,608.33 456.03,1014.36 -74.38,195.89 -218.6,344.77 -393.53,429.12l0.29 0.11c-150.59,85.4 -256.01,175.6 -337.74,294.57l-674.23 -256.02c35.28,-148.96 4.54,-293.34 -55.94,-444.05l0.29 0.11c-74.86,-179.2 -83.91,-386.28 -9.52,-582.17 154.18,-406.04 608.33,-610.21 1014.36,-456.03zm-822.19 1408.14l508.06 192.93c109.75,-145.05 221.43,-209.22 327,-260.51 155.54,-75 275.03,-205.32 336.34,-366.76 131.79,-347.08 -42.69,-735.19 -389.77,-866.99 -347.08,-131.79 -735.2,42.69 -866.99,389.77 -61.3,161.45 -58.42,338.24 8.14,497.57 55.88,134.45 94.3,201.37 77.22,413.99z"/>
   <rect className="fil1" transform="matrix(0.956734 0.36329 -0.36329 0.956734 6859.01 1610.18)" width="789.83" height="123.95" rx="48.61" ry="48.61"/>
   <rect className="fil1" transform="matrix(0.887565 0.337025 -0.266349 0.701437 6830.17 1768.45)" width="789.83" height="123.95" rx="48.61" ry="48.61"/>
   <path className="fil1" d="M7434.8 2136.01c-61.22,43.16 -196.7,40.03 -337.98,-13.62 -141.28,-53.65 -244.69,-141.23 -261.84,-214.14l599.82 227.76z"/>
  </g>
 </g>
</svg>
