<?xml version="1.0" encoding="UTF-8"?>
<!DOCTYPE svg PUBLIC "-//W3C//DTD SVG 1.1//EN" "http://www.w3.org/Graphics/SVG/1.1/DTD/svg11.dtd">
<!-- Creator: CorelDRAW 2019 (64-Bit Evaluation Version) -->
<svg xmlns="http://www.w3.org/2000/svg" xml:space="preserve" width="1.3304in" height="1.73735in" version="1.1" style="shape-rendering:geometricPrecision; text-rendering:geometricPrecision; image-rendering:optimizeQuality; fill-rule:evenodd; clip-rule:evenodd"
viewBox="0 0 37.19 48.57"
 xmlns:xlink="http://www.w3.org/1999/xlink">
 <defs>
  <style type="text/css">
   <![CDATA[
    .fil0 {fill:#FEFEFE}
    .fil2 {fill:#A9ABAE}
    .fil4 {fill:#A9ABAE}
    .fil3 {fill:#201E1E}
    .fil1 {fill:#201E1E}
   ]]>
  </style>
 </defs>
 <g id="Layer_x0020_1">
  <metadata id="CorelCorpID_0Corel-Layer"/>
  <path class="fil0" d="M19.98 45.06c-0,-0.17 0.01,-0.35 0.02,-0.52 0.04,-0.95 0.08,-1.91 0.14,-2.85 0.01,-0.16 0.02,-0.3 0.04,-0.43 -0.14,0.03 -0.29,0.03 -0.42,0.04 -0.35,0.02 -0.7,0.03 -1.05,0.03 -0.35,0 -0.7,-0.01 -1.05,-0.03 -0.2,-0.01 -0.42,-0.03 -0.62,-0.09 -0,-0 -0.01,-0 -0.01,-0 0.02,0.14 0.04,0.3 0.05,0.48 0.06,0.95 0.11,1.9 0.14,2.85 0.01,0.16 0.02,0.34 0.02,0.52 0.06,0.06 0.12,0.13 0.16,0.21 0.12,0.22 0.16,0.48 0.09,0.72 -0.01,0.05 -0.03,0.09 -0.04,0.13 0,0.02 0,0.03 0.01,0.05 0.02,0.18 0.02,0.37 0.02,0.55 -0,0.15 -0.02,0.3 -0.06,0.44 0.01,0.03 0.02,0.07 0.03,0.1 0.09,0.33 -0.05,0.66 -0.33,0.86 -0.21,0.14 -0.48,0.19 -0.72,0.23 -0.4,0.06 -0.81,0.1 -1.22,0.13 -0.51,0.04 -1.03,0.06 -1.54,0.08 -0.52,0.02 -1.04,0.03 -1.55,0.01 -0.4,-0.02 -0.81,-0.06 -1.2,-0.14 -0.25,-0.05 -0.54,-0.12 -0.75,-0.27 -0.23,-0.16 -0.34,-0.36 -0.39,-0.62 -0.04,-0.19 -0.05,-0.38 0.01,-0.55 -0.03,-0.17 -0.02,-0.36 0.02,-0.52 0.06,-0.22 0.18,-0.39 0.37,-0.52 0.18,-0.13 0.37,-0.18 0.59,-0.24 0.36,-0.09 0.72,-0.15 1.07,-0.26 0.24,-0.07 0.48,-0.16 0.69,-0.29 0.14,-0.09 0.26,-0.19 0.39,-0.29 0.16,-0.13 0.34,-0.28 0.52,-0.37 0.05,-0.02 0.1,-0.04 0.15,-0.06 -0.01,-0.17 -0.02,-0.34 -0.02,-0.49 -0.03,-0.89 -0.07,-1.78 -0.09,-2.67 -0,-0.12 -0.01,-0.24 -0.01,-0.36 -0.39,-0.04 -0.78,-0.08 -1.17,-0.14 -0.36,-0.05 -0.75,-0.08 -0.99,-0.4 -0.26,-0.33 -0.2,-0.98 -0.2,-1.38 0.02,-1.3 0.08,-2.62 0.19,-3.91 0.1,-1.18 0.26,-2.35 0.45,-3.52 0.02,-0.15 0.1,-0.56 0.12,-0.81 -0.18,-0.04 -0.46,-0.07 -0.59,-0.09 -0.57,-0.09 -1.15,-0.19 -1.72,-0.3 -0.24,-0.05 -0.55,-0.12 -0.8,-0.11 -0.31,0.01 -0.58,0.07 -0.9,0.03 -0.44,-0.07 -0.8,-0.33 -0.98,-0.73 -0.14,-0.3 -0.19,-0.7 -0.1,-1.02 0.02,-0.06 0.04,-0.11 0.06,-0.16 -0.1,-0.07 -0.21,-0.14 -0.31,-0.22 -0.76,-0.56 -1.42,-1.24 -1.95,-2.02 -0.24,-0.36 -0.46,-0.75 -0.66,-1.14 -0.15,-0.28 -0.29,-0.58 -0.45,-0.85 -0.18,-0.31 -0.26,-0.35 -0.52,-0.57 -0.37,-0.32 -0.72,-0.71 -0.96,-1.13 -0.24,-0.41 -0.33,-0.8 -0.5,-1.23 -0.08,-0.21 -0.19,-0.37 -0.31,-0.56 -0.17,-0.26 -0.33,-0.54 -0.49,-0.81 -0.21,-0.35 -0.48,-0.78 -0.6,-1.16 -0.14,-0.45 -0.03,-0.76 0.24,-1.12 0.18,-0.23 0.35,-0.46 0.64,-0.55 -0.04,-0.23 -0,-0.46 0.16,-0.69 0.15,-0.21 0.38,-0.38 0.59,-0.52 0.34,-0.22 0.69,-0.24 0.99,-0.01 0.05,-0.12 0.12,-0.24 0.22,-0.34 0.3,-0.3 0.8,-0.4 1.21,-0.41 0.7,-0.02 0.85,0.47 1.04,1.01 0.21,0.62 0.44,1.29 0.7,1.89 0.11,-0.09 0.21,-0.18 0.33,-0.26 0.05,-0.03 0.09,-0.07 0.14,-0.1 0.33,-0.21 0.77,-0.41 1.15,-0.48 0.39,-0.06 0.66,0.03 0.95,0.29 0.34,0.3 0.56,0.69 0.4,1.15 -0.13,0.36 -0.49,0.63 -0.72,0.93 -0.24,0.31 -0.41,0.69 -0.49,1.07 -0.1,0.47 -0.09,1 0,1.47 0.12,0.57 0.37,1.06 0.68,1.55 0.43,0.68 0.97,1.37 1.56,1.93 0.01,0.01 0.03,0.02 0.04,0.04 0.2,-0.11 0.45,-0.15 0.69,-0.11 0.3,0.05 0.62,0.22 0.85,0.42 0.09,0.08 0.25,0.28 0.33,0.33 0.18,0.1 0.57,0.15 0.77,0.17 0.13,0.01 0.26,0.02 0.4,0.03 -0.02,-0.08 -0.03,-0.16 -0.03,-0.24l0 -0.26c0,-0.18 0.04,-0.35 0.11,-0.5 -0.3,-0.24 -0.49,-0.61 -0.49,-1.03l0 -0.35c0,-0.44 0.21,-0.82 0.54,-1.06 -0.28,-1.81 -1.3,-3.28 -2.53,-4.61 -0.01,-0.01 -0.03,-0.03 -0.04,-0.04 -1.89,-2.02 -2.93,-4.65 -2.93,-7.42 0,-6 4.86,-10.86 10.86,-10.86 6,0 10.86,4.86 10.86,10.86 0,2.77 -1.04,5.4 -2.93,7.42 -0,0.01 -0.01,0.01 -0.01,0.02 -1.17,1.41 -2.07,2.86 -2.55,4.64 0.33,0.24 0.54,0.63 0.54,1.06l0 0.35c0,0.41 -0.19,0.78 -0.49,1.03 0.07,0.15 0.11,0.32 0.11,0.5l0 0.26c0,0.09 -0.01,0.17 -0.03,0.26 0.31,-0.01 0.62,-0.02 0.91,-0.05 0.2,-0.02 0.59,-0.07 0.77,-0.17 0.09,-0.05 0.25,-0.25 0.33,-0.33 0.23,-0.2 0.55,-0.37 0.85,-0.42 0.25,-0.04 0.51,-0 0.72,0.12 0.51,-0.52 0.97,-1.13 1.36,-1.73 0.31,-0.49 0.57,-0.98 0.68,-1.55 0.1,-0.47 0.1,-1 0,-1.47 -0.08,-0.38 -0.25,-0.76 -0.49,-1.07 -0.23,-0.3 -0.59,-0.57 -0.72,-0.93 -0.16,-0.46 0.06,-0.85 0.4,-1.15 0.29,-0.26 0.55,-0.35 0.95,-0.29 0.39,0.06 0.83,0.26 1.15,0.48 0.05,0.03 0.1,0.06 0.14,0.1 0.11,0.08 0.22,0.17 0.33,0.26 0.26,-0.6 0.49,-1.27 0.7,-1.89 0.19,-0.55 0.35,-1.03 1.04,-1.01 0.41,0.01 0.91,0.11 1.21,0.41 0.11,0.11 0.18,0.22 0.22,0.34 0.3,-0.23 0.65,-0.21 0.99,0.01 0.21,0.14 0.44,0.31 0.59,0.52 0.17,0.23 0.2,0.46 0.16,0.69 0.29,0.09 0.45,0.32 0.64,0.55 0.28,0.35 0.38,0.67 0.24,1.12 -0.12,0.38 -0.39,0.81 -0.6,1.16 -0.16,0.27 -0.32,0.54 -0.49,0.81 -0.12,0.19 -0.23,0.34 -0.31,0.56 -0.17,0.43 -0.26,0.81 -0.5,1.23 -0.24,0.42 -0.6,0.81 -0.96,1.13 -0.25,0.22 -0.34,0.27 -0.52,0.57 -0.16,0.28 -0.3,0.57 -0.45,0.85 -0.2,0.39 -0.42,0.77 -0.66,1.14 -0.53,0.79 -1.18,1.46 -1.94,2.02 -0.02,0.01 -0.04,0.03 -0.06,0.04 0.01,0.03 0.02,0.06 0.03,0.09 0.09,0.32 0.04,0.72 -0.1,1.02 -0.19,0.4 -0.55,0.66 -0.98,0.73 -0.32,0.05 -0.59,-0.02 -0.9,-0.03 -0.25,-0.01 -0.56,0.07 -0.8,0.11 -0.57,0.11 -1.15,0.21 -1.72,0.3 -0.13,0.02 -0.41,0.05 -0.59,0.09 0.02,0.24 0.1,0.66 0.12,0.81 0.19,1.17 0.35,2.34 0.45,3.52 0.11,1.29 0.17,2.61 0.19,3.91 0.01,0.4 0.06,1.05 -0.2,1.38 -0.24,0.31 -0.62,0.35 -0.99,0.4 -0.45,0.06 -0.91,0.11 -1.37,0.16 0,0.11 -0,0.23 -0.01,0.34 -0.03,0.89 -0.06,1.78 -0.09,2.67 -0.01,0.15 -0.02,0.32 -0.02,0.49 0.05,0.02 0.1,0.03 0.15,0.06 0.19,0.09 0.36,0.24 0.52,0.37 0.13,0.11 0.25,0.21 0.39,0.29 0.21,0.13 0.45,0.22 0.69,0.29 0.35,0.1 0.71,0.17 1.07,0.26 0.21,0.05 0.41,0.11 0.59,0.24 0.19,0.13 0.31,0.3 0.37,0.52 0.04,0.16 0.05,0.35 0.02,0.52 0.06,0.17 0.05,0.36 0.01,0.55 -0.05,0.26 -0.16,0.46 -0.39,0.62 -0.21,0.15 -0.5,0.22 -0.75,0.27 -0.39,0.08 -0.8,0.12 -1.2,0.14 -0.52,0.02 -1.04,0.01 -1.55,-0.01 -0.51,-0.02 -1.03,-0.04 -1.54,-0.08 -0.4,-0.03 -0.82,-0.06 -1.22,-0.13 -0.24,-0.04 -0.51,-0.09 -0.72,-0.23 -0.28,-0.19 -0.42,-0.52 -0.33,-0.86 0.01,-0.03 0.02,-0.07 0.03,-0.1 -0.04,-0.14 -0.06,-0.29 -0.06,-0.44 -0.01,-0.18 -0,-0.37 0.02,-0.55 0,-0.02 0,-0.03 0.01,-0.05 -0.02,-0.04 -0.03,-0.08 -0.04,-0.13 -0.06,-0.24 -0.03,-0.51 0.09,-0.72 0.04,-0.08 0.1,-0.15 0.16,-0.21z"/>
  <path class="fil0" d="M18.45 1.62c5.15,0 9.33,4.18 9.33,9.33 0,2.49 -0.97,4.74 -2.56,6.41l0 0c-1.31,1.58 -2.1,3.02 -2.5,4.69l-8.55 0c-0.24,-1.8 -1.18,-3.27 -2.49,-4.69l0 0c-1.58,-1.67 -2.56,-3.93 -2.56,-6.41 0,-5.15 4.18,-9.33 9.33,-9.33z"/>
  <path class="fil1" d="M18.45 0.67c5.63,0 10.19,4.56 10.19,10.19 0,2.71 -1.06,5.18 -2.79,7.01l0 0c-1.43,1.73 -2.29,3.3 -2.74,5.12l-9.34 0c-0.26,-1.97 -1.29,-3.57 -2.72,-5.12l0 0c-1.73,-1.83 -2.79,-4.29 -2.79,-7.01 0,-5.63 4.56,-10.19 10.19,-10.19zm-3.48 20.83l7.04 0c0.66,-2.26 1.72,-3.55 2.76,-4.66 1.54,-1.62 2.39,-3.75 2.39,-5.99 0,-4.81 -3.9,-8.71 -8.71,-8.71 -4.81,0 -8.71,3.9 -8.71,8.71 0,2.24 0.85,4.36 2.39,5.99 1.29,1.37 2.07,2.01 2.84,4.66z"/>
  <rect class="fil2" x="13.21" y="23.35" width="10.47" height="1.64" rx="0.64" ry="0.64"/>
  <rect class="fil2" x="13.59" y="25.4" width="9.71" height="1.2" rx="0.6" ry="0.47"/>
  <path class="fil1" d="M27.43 26.55c0.12,-0.1 0.24,-0.21 0.36,-0.32 0.66,-0.62 1.25,-1.4 1.67,-2.06 0.42,-0.66 0.65,-1.19 0.77,-1.77 0.12,-0.58 0.12,-1.21 0,-1.75 -0.12,-0.54 -0.36,-1 -0.62,-1.34 -0.26,-0.34 -0.55,-0.56 -0.62,-0.74 -0.06,-0.18 0.1,-0.33 0.21,-0.43 0.11,-0.1 0.18,-0.16 0.39,-0.13 0.21,0.03 0.57,0.16 0.89,0.37 0.32,0.21 0.61,0.51 0.82,0.64 0.21,0.13 0.34,0.09 0.58,-0.44 0.24,-0.53 0.6,-1.54 0.78,-2.07 0.18,-0.53 0.19,-0.57 0.39,-0.56 0.2,0 0.59,0.05 0.75,0.21 0.16,0.16 0.09,0.43 -0.07,0.94 -0.16,0.5 -0.42,1.23 -0.51,1.57 -0.09,0.34 -0.03,0.29 0.21,-0.02 0.23,-0.31 0.63,-0.87 0.9,-1.27 0.27,-0.4 0.42,-0.65 0.51,-0.76 0.1,-0.11 0.15,-0.09 0.27,-0.01 0.12,0.08 0.32,0.22 0.4,0.34 0.09,0.13 0.07,0.24 -0.1,0.59 -0.17,0.35 -0.49,0.95 -0.72,1.39 -0.22,0.44 -0.35,0.73 -0.35,0.82 0,0.09 0.14,-0.02 0.39,-0.32 0.25,-0.3 0.62,-0.79 0.84,-1.11 0.22,-0.31 0.31,-0.45 0.41,-0.43 0.1,0.02 0.23,0.19 0.34,0.34 0.11,0.14 0.21,0.24 0.13,0.5 -0.08,0.26 -0.33,0.68 -0.53,1.01 -0.2,0.33 -0.34,0.58 -0.48,0.79 -0.13,0.21 -0.26,0.38 -0.38,0.68 -0.12,0.3 -0.22,0.74 -0.45,1.13 -0.23,0.39 -0.57,0.75 -0.82,0.96 -0.25,0.22 -0.4,0.3 -0.66,0.74 -0.25,0.44 -0.61,1.24 -1.09,1.95 -0.48,0.71 -1.07,1.33 -1.79,1.86 -0.19,0.14 -0.39,0.28 -0.59,0.4 -0.01,0 -0.02,0 -0.02,0.01 -0.12,0.04 -0.2,0.11 -0.33,0.08 -0.25,-0.05 -0.61,-0.31 -0.8,-0.47 -0.33,-0.28 -0.67,-0.64 -0.92,-0.98 -0.04,-0.05 -0.17,-0.24 -0.2,-0.34zm6.87 -5.86c-0.19,-0.18 -0.59,-0.5 -1.01,-0.73 -0.42,-0.23 -0.87,-0.39 -1.04,-0.42 -0.17,-0.04 -0.06,0.05 0.27,0.26 0.32,0.21 0.86,0.56 1.19,0.79 0.33,0.23 0.46,0.35 0.55,0.4 0.09,0.05 0.14,0.03 0.18,-0.01 0.04,-0.04 0.06,-0.1 -0.13,-0.28z"/>
  <path class="fil1" d="M9.95 26.45c-0.19,-0.15 -0.37,-0.3 -0.55,-0.47 -0.66,-0.62 -1.25,-1.4 -1.67,-2.06 -0.42,-0.66 -0.65,-1.19 -0.77,-1.77 -0.12,-0.58 -0.12,-1.21 0,-1.75 0.12,-0.54 0.36,-1 0.62,-1.34 0.26,-0.34 0.55,-0.56 0.62,-0.74 0.06,-0.18 -0.1,-0.33 -0.21,-0.43 -0.11,-0.1 -0.18,-0.16 -0.39,-0.13 -0.21,0.03 -0.57,0.16 -0.89,0.37 -0.32,0.21 -0.61,0.51 -0.82,0.64 -0.21,0.13 -0.34,0.09 -0.58,-0.44 -0.24,-0.53 -0.6,-1.54 -0.78,-2.07 -0.18,-0.53 -0.19,-0.57 -0.39,-0.56 -0.2,0 -0.59,0.05 -0.75,0.21 -0.16,0.16 -0.09,0.43 0.07,0.94 0.16,0.5 0.41,1.23 0.51,1.57 0.09,0.34 0.03,0.29 -0.21,-0.02 -0.23,-0.31 -0.63,-0.87 -0.9,-1.27 -0.27,-0.4 -0.42,-0.65 -0.51,-0.76 -0.1,-0.11 -0.15,-0.09 -0.27,-0.01 -0.12,0.08 -0.32,0.22 -0.4,0.34 -0.09,0.13 -0.07,0.24 0.1,0.59 0.17,0.35 0.49,0.95 0.72,1.39 0.22,0.44 0.35,0.73 0.35,0.82 -0,0.09 -0.14,-0.02 -0.39,-0.32 -0.25,-0.3 -0.62,-0.79 -0.84,-1.11 -0.22,-0.31 -0.31,-0.45 -0.41,-0.43 -0.1,0.02 -0.23,0.2 -0.34,0.34 -0.11,0.14 -0.21,0.24 -0.13,0.51 0.08,0.26 0.33,0.68 0.53,1.01 0.2,0.33 0.34,0.58 0.48,0.79 0.13,0.21 0.26,0.38 0.38,0.68 0.12,0.3 0.22,0.74 0.45,1.13 0.23,0.39 0.57,0.75 0.82,0.96 0.25,0.22 0.4,0.3 0.66,0.74 0.25,0.44 0.61,1.24 1.09,1.95 0.48,0.71 1.07,1.33 1.79,1.86 0.37,0.27 0.77,0.52 1.18,0.74 0.25,-0.06 0.6,-0.31 0.78,-0.47 0.33,-0.28 0.67,-0.64 0.92,-0.98 0.04,-0.06 0.21,-0.29 0.21,-0.37 -0,-0.02 -0.03,-0.05 -0.03,-0.07l-0 -0.01zm-7.05 -6c0.19,-0.18 0.59,-0.5 1.01,-0.73 0.42,-0.23 0.87,-0.39 1.04,-0.42 0.17,-0.04 0.06,0.05 -0.27,0.26 -0.32,0.21 -0.86,0.56 -1.19,0.79 -0.33,0.23 -0.46,0.35 -0.55,0.4 -0.09,0.05 -0.14,0.03 -0.18,-0.01 -0.04,-0.04 -0.06,-0.1 0.13,-0.28z"/>
  <path class="fil2" d="M23.26 27.07c0.75,-0.01 1.26,-0.02 1.67,-0.06 0.49,-0.05 0.83,-0.13 1.05,-0.26 0.21,-0.12 0.3,-0.28 0.44,-0.41 0.15,-0.13 0.36,-0.23 0.52,-0.26 0.16,-0.03 0.28,0.02 0.28,0.09 0,0.07 -0.1,0.16 -0.12,0.3 -0.02,0.14 0.04,0.32 0.27,0.62 0.23,0.3 0.61,0.73 0.98,1.04 0.37,0.31 0.72,0.5 0.96,0.54 0.24,0.04 0.38,-0.06 0.49,-0.1 0.11,-0.04 0.2,-0.01 0.23,0.12 0.04,0.13 0.03,0.37 -0.06,0.55 -0.09,0.18 -0.25,0.31 -0.48,0.35 -0.23,0.03 -0.52,-0.03 -0.78,-0.03 -0.26,-0.01 -0.48,0.04 -0.94,0.13 -0.46,0.09 -1.16,0.21 -1.7,0.29 -0.39,0.06 -0.69,0.09 -0.89,0.18l-1.92 -3.1z"/>
  <path class="fil3" d="M14.53 27.07l0.14 0c1.03,0.02 2.45,0.04 3.19,0.05 0.69,0.01 1.01,0.01 1.7,0 0.74,-0.01 2.16,-0.04 3.19,-0.05l0.14 -0 2.06 3.33c-0.08,0.21 -0.01,0.57 0.1,1.26 0.13,0.8 0.32,2.05 0.44,3.47 0.12,1.42 0.17,3.03 0.18,3.87 0.01,0.84 -0.02,0.91 -0.06,0.96 -0.04,0.05 -0.09,0.08 -0.54,0.14 -0.45,0.06 -1.31,0.15 -2.4,0.25 -0.77,0.07 -1.65,0.14 -2.44,0.19 -0.14,0.15 -2.9,0.15 -3.03,0 -0.79,-0.05 -1.68,-0.12 -2.44,-0.19 -1.1,-0.1 -1.95,-0.19 -2.4,-0.25 -0.45,-0.06 -0.5,-0.09 -0.54,-0.14 -0.04,-0.05 -0.07,-0.13 -0.06,-0.96 0.01,-0.84 0.06,-2.44 0.18,-3.87 0.12,-1.42 0.31,-2.67 0.44,-3.47 0.11,-0.69 0.18,-1.05 0.1,-1.26l2.06 -3.33z"/>
  <path class="fil2" d="M8.11 28.68c0.24,-0.04 0.59,-0.23 0.96,-0.54 0.37,-0.31 0.75,-0.74 0.98,-1.04 0.23,-0.3 0.29,-0.49 0.27,-0.62 -0.02,-0.14 -0.13,-0.23 -0.12,-0.3 0,-0.07 0.12,-0.12 0.28,-0.09 0.16,0.03 0.37,0.13 0.52,0.26 0.15,0.13 0.23,0.29 0.44,0.41 0.21,0.12 0.55,0.21 1.05,0.26 0.41,0.04 0.92,0.05 1.67,0.06l-1.92 3.1c-0.2,-0.09 -0.5,-0.12 -0.89,-0.18 -0.54,-0.08 -1.24,-0.21 -1.7,-0.29 -0.46,-0.09 -0.68,-0.13 -0.94,-0.13 -0.26,0.01 -0.55,0.07 -0.78,0.03 -0.23,-0.03 -0.39,-0.16 -0.48,-0.35 -0.09,-0.18 -0.1,-0.42 -0.06,-0.55 0.04,-0.13 0.12,-0.16 0.23,-0.12 0.11,0.04 0.25,0.14 0.49,0.1z"/>
  <path class="fil1" d="M18.55 17.52l0 0c0.3,0 0.58,0.12 0.78,0.32l2.61 -6.72c0.03,-0.08 0.13,-0.12 0.21,-0.09 0.08,0.03 0.12,0.13 0.09,0.21l-2.68 6.91c0.07,0.15 0.11,0.31 0.11,0.49l0.02 2.46 -2.23 0 -0.02 -2.46c-0,-0.18 0.04,-0.35 0.12,-0.51l-2.68 -6.89c-0.03,-0.08 0.01,-0.18 0.09,-0.21 0.08,-0.03 0.18,0.01 0.21,0.09l2.6 6.7c0.2,-0.19 0.47,-0.31 0.77,-0.31z"/>
  <path class="fil4" d="M17.29 11.76l0.32 -0.45c0.01,-0.02 0.03,-0.03 0.05,-0.03 0.02,-0 0.04,0.01 0.05,0.02l0.51 0.51 0.01 0.01 0.01 -0.02 0.5 -1.12c0.01,-0.02 0.03,-0.04 0.06,-0.04 0.03,-0 0.05,0.01 0.06,0.03l0.61 0.93 0.5 -0.37c0.02,-0.01 0.03,-0.02 0.05,-0.01 0.02,0 0.03,0.02 0.04,0.03l0.23 0.41 0.07 0.13 0.1 -0.14 0.37 -0.49c0.01,-0.02 0.03,-0.03 0.05,-0.03 0.02,-0 0.04,0.01 0.05,0.02l0.39 0.4c0.03,0.03 0.02,0.07 -0,0.1 -0.03,0.03 -0.07,0.02 -0.1,-0l-0.04 -0.04 -0.29 -0.3 -0.26 0.34 -0.24 0.31c-0.01,0.02 -0.03,0.03 -0.06,0.03 -0.02,-0 -0.04,-0.01 -0.05,-0.03l-0.15 -0.27 -0.16 -0.29 -0.46 0.33 -0.05 0.03c-0.02,0.01 -0.03,0.02 -0.05,0.01 -0.02,-0 -0.03,-0.01 -0.04,-0.03l-0 -0.01 -0.58 -0.88 -0.42 0.94 -0.08 0.17c-0.01,0.02 -0.03,0.03 -0.05,0.04 -0.02,0 -0.04,-0 -0.06,-0.02l-0.17 -0.17 -0.37 -0.37 -0.29 0.41 -0.04 0.06c-0.01,0.02 -0.03,0.03 -0.06,0.03 -0.02,-0 -0.04,-0.01 -0.06,-0.03l-0.03 -0.05 -0.47 -0.77 -0.75 0.84 -0.04 0.05c-0.02,0.03 -0.07,0.03 -0.09,0.01 -0.03,-0.02 -0.03,-0.07 -0.01,-0.09l0.85 -0.96c0.01,-0.02 0.03,-0.02 0.06,-0.02 0.02,0 0.04,0.01 0.05,0.03l0.49 0.8z"/>
  <path class="fil3" d="M16.53 45.52c-0.07,0.04 -0.18,0.11 -0.34,0.19 -0.16,0.08 -0.37,0.16 -0.6,0.19 -0.23,0.04 -0.48,0.04 -0.64,0.02 -0.16,-0.02 -0.24,-0.06 -0.3,-0.05 -0.06,0.01 -0.1,0.05 -0.16,0.12 -0.06,0.06 -0.13,0.14 -0.19,0.18 -0.07,0.04 -0.12,0.04 -0.16,0.01 -0.04,-0.03 -0.06,-0.09 -0.02,-0.15 0.04,-0.07 0.13,-0.15 0.2,-0.21 0.06,-0.06 0.1,-0.11 0.1,-0.18 0,-0.07 -0.03,-0.17 -0.11,-0.27 -0.08,-0.1 -0.22,-0.2 -0.32,-0.25 -0.1,-0.05 -0.18,-0.06 -0.29,-0.01 -0.11,0.05 -0.25,0.17 -0.39,0.28 -0.14,0.12 -0.27,0.23 -0.48,0.36 -0.2,0.12 -0.47,0.25 -0.84,0.35 -0.37,0.11 -0.84,0.2 -1.1,0.27 -0.26,0.06 -0.31,0.1 -0.35,0.13 -0.05,0.03 -0.09,0.07 -0.11,0.15 -0.02,0.08 -0.02,0.21 0.02,0.34 0.04,0.12 0.12,0.24 0.37,0.32 0.25,0.08 0.67,0.12 1.28,0.13 0.61,0.01 1.41,-0 2.2,-0.04 0.79,-0.04 1.56,-0.1 1.97,-0.17 0.41,-0.07 0.46,-0.14 0.49,-0.22 0.03,-0.08 0.04,-0.16 0.04,-0.29 0,-0.14 0,-0.33 -0.01,-0.45 -0.01,-0.12 -0.04,-0.18 -0.03,-0.24 0.01,-0.06 0.07,-0.12 0.08,-0.19 0.02,-0.07 0,-0.16 -0.03,-0.22 -0.04,-0.06 -0.09,-0.11 -0.14,-0.12 -0.04,-0.01 -0.07,0 -0.14,0.05z"/>
  <path class="fil2" d="M16.66 47.32c-0.08,-0 -0.2,0.04 -0.4,0.08 -0.2,0.04 -0.48,0.07 -0.89,0.1 -0.41,0.03 -0.94,0.06 -1.45,0.08 -0.5,0.02 -0.98,0.03 -1.46,0.03 -0.48,-0 -0.96,-0.03 -1.28,-0.07 -0.32,-0.05 -0.5,-0.13 -0.61,-0.2 -0.11,-0.07 -0.17,-0.14 -0.19,-0.13 -0.02,0.02 -0,0.12 0.01,0.2 0.02,0.08 0.03,0.14 0.11,0.19 0.08,0.06 0.23,0.11 0.5,0.17 0.27,0.05 0.65,0.1 1.1,0.12 0.45,0.02 0.98,0.01 1.5,-0.01 0.52,-0.02 1.04,-0.04 1.52,-0.08 0.47,-0.03 0.89,-0.08 1.16,-0.12 0.27,-0.04 0.38,-0.08 0.45,-0.12 0.06,-0.04 0.07,-0.09 0.06,-0.13 -0.01,-0.05 -0.04,-0.1 -0.12,-0.1z"/>
  <path class="fil2" d="M16.54 44.57c-0.03,-0.7 -0.1,-2.12 -0.14,-2.84 -0.05,-0.71 -0.07,-0.71 -0.45,-0.76 -0.38,-0.05 -1.12,-0.15 -1.49,-0.23 -0.37,-0.08 -0.38,-0.13 -0.36,0.5 0.02,0.63 0.07,1.95 0.09,2.67 0.02,0.71 0.02,0.83 0.02,0.89 -0.01,0.06 -0.02,0.08 0.04,0.14 0.06,0.07 0.18,0.18 0.26,0.28 0.08,0.11 0.11,0.2 0.13,0.27 0.02,0.07 0.02,0.12 0.09,0.16 0.07,0.03 0.21,0.05 0.4,0.04 0.19,-0.01 0.43,-0.05 0.63,-0.09 0.2,-0.05 0.36,-0.1 0.48,-0.17 0.12,-0.07 0.21,-0.15 0.26,-0.18 0.05,-0.03 0.07,0 0.04,-0.69z"/>
  <path class="fil3" d="M20.68 45.52c0.07,0.04 0.18,0.11 0.34,0.19 0.16,0.08 0.37,0.16 0.6,0.19 0.23,0.04 0.48,0.04 0.64,0.02 0.16,-0.02 0.24,-0.06 0.3,-0.05 0.06,0.01 0.1,0.05 0.16,0.12 0.06,0.06 0.13,0.14 0.19,0.18 0.07,0.04 0.12,0.04 0.16,0.01 0.04,-0.03 0.06,-0.09 0.02,-0.15 -0.04,-0.07 -0.13,-0.15 -0.2,-0.21 -0.06,-0.06 -0.1,-0.11 -0.1,-0.18 -0,-0.07 0.03,-0.17 0.11,-0.27 0.08,-0.1 0.22,-0.2 0.32,-0.25 0.1,-0.05 0.18,-0.06 0.29,-0.01 0.11,0.05 0.25,0.17 0.39,0.28 0.14,0.12 0.27,0.23 0.48,0.36 0.2,0.12 0.47,0.25 0.84,0.35 0.37,0.11 0.84,0.2 1.1,0.27 0.26,0.06 0.31,0.1 0.35,0.13 0.05,0.03 0.09,0.07 0.11,0.15 0.02,0.08 0.02,0.21 -0.02,0.34 -0.04,0.12 -0.12,0.24 -0.37,0.32 -0.25,0.08 -0.67,0.12 -1.28,0.13 -0.61,0.01 -1.41,-0 -2.2,-0.04 -0.79,-0.04 -1.56,-0.1 -1.97,-0.17 -0.41,-0.07 -0.46,-0.14 -0.49,-0.22 -0.03,-0.08 -0.04,-0.16 -0.04,-0.29 -0,-0.14 -0,-0.33 0.01,-0.45 0.01,-0.12 0.04,-0.18 0.03,-0.24 -0.01,-0.06 -0.07,-0.12 -0.08,-0.19 -0.02,-0.07 -0,-0.16 0.03,-0.22 0.04,-0.06 0.09,-0.11 0.14,-0.12 0.04,-0.01 0.07,0 0.14,0.05z"/>
  <path class="fil2" d="M20.55 47.32c0.08,-0 0.2,0.04 0.4,0.08 0.2,0.04 0.48,0.07 0.89,0.1 0.41,0.03 0.94,0.06 1.45,0.08 0.51,0.02 0.98,0.03 1.46,0.03 0.48,-0 0.96,-0.03 1.28,-0.07 0.32,-0.05 0.5,-0.13 0.61,-0.2 0.11,-0.07 0.17,-0.14 0.19,-0.13 0.02,0.02 0.01,0.12 -0.01,0.2 -0.01,0.08 -0.03,0.14 -0.11,0.19 -0.08,0.06 -0.23,0.11 -0.5,0.17 -0.27,0.05 -0.65,0.1 -1.1,0.12 -0.45,0.02 -0.98,0.01 -1.5,-0.01 -0.52,-0.02 -1.04,-0.04 -1.52,-0.08 -0.47,-0.03 -0.89,-0.08 -1.16,-0.12 -0.27,-0.04 -0.38,-0.08 -0.45,-0.12 -0.06,-0.04 -0.07,-0.09 -0.06,-0.13 0.01,-0.05 0.04,-0.1 0.12,-0.1z"/>
  <path class="fil2" d="M20.67 44.57c0.03,-0.7 0.1,-2.12 0.14,-2.84 0.05,-0.71 0.07,-0.71 0.45,-0.76 0.38,-0.05 1.12,-0.15 1.49,-0.23 0.37,-0.08 0.38,-0.13 0.36,0.5 -0.02,0.63 -0.07,1.95 -0.09,2.67 -0.02,0.71 -0.02,0.83 -0.02,0.89 0.01,0.06 0.02,0.08 -0.04,0.14 -0.06,0.07 -0.18,0.18 -0.26,0.28 -0.08,0.11 -0.11,0.2 -0.13,0.27 -0.02,0.07 -0.02,0.12 -0.09,0.16 -0.07,0.03 -0.21,0.05 -0.4,0.04 -0.19,-0.01 -0.43,-0.05 -0.63,-0.09 -0.2,-0.05 -0.36,-0.1 -0.48,-0.17 -0.12,-0.07 -0.21,-0.15 -0.26,-0.18 -0.05,-0.03 -0.07,0 -0.04,-0.69z"/>
 </g>
</svg>
