<?xml version="1.0" encoding="UTF-8"?>
<!DOCTYPE svg PUBLIC "-//W3C//DTD SVG 1.1//EN" "http://www.w3.org/Graphics/SVG/1.1/DTD/svg11.dtd">
<!-- Creator: CorelDRAW 2019 (64-Bit Evaluation Version) -->
<svg xmlns="http://www.w3.org/2000/svg" xml:space="preserve" width="10.645in" height="13.9012in" version="1.1" style="shape-rendering:geometricPrecision; text-rendering:geometricPrecision; image-rendering:optimizeQuality; fill-rule:evenodd; clip-rule:evenodd"
viewBox="0 0 1020.23 1332.3"
 xmlns:xlink="http://www.w3.org/1999/xlink">
 <defs>
  <style type="text/css">
   <![CDATA[
    .fil0 {fill:#FEFEFE}
    .fil2 {fill:#A9ABAE}
    .fil4 {fill:#A9ABAE}
    .fil3 {fill:#201E1E}
    .fil1 {fill:#201E1E}
   ]]>
  </style>
 </defs>
 <g id="Layer_x0020_1">
  <metadata id="CorelCorpID_0Corel-Layer"/>
  <path class="fil0" d="M548.03 1236.12c-0.13,-4.78 0.28,-9.69 0.46,-14.2 1,-26.06 2.25,-52.29 3.93,-78.31 0.27,-4.26 0.57,-8.19 1.07,-11.78 -3.91,0.69 -7.94,0.93 -11.64,1.18 -9.55,0.64 -19.22,0.81 -28.79,0.81 -9.57,0 -19.24,-0.17 -28.79,-0.81 -5.45,-0.37 -11.62,-0.72 -17.08,-2.52 -0.08,-0.01 -0.16,-0.01 -0.24,-0.02 0.62,3.95 0.96,8.34 1.27,13.14 1.68,26.02 2.93,52.25 3.93,78.31 0.17,4.51 0.59,9.42 0.46,14.2 1.71,1.71 3.19,3.66 4.36,5.74 3.35,5.96 4.37,13.22 2.59,19.84 -0.35,1.3 -0.76,2.42 -1.23,3.48 0.06,0.43 0.12,0.86 0.17,1.3 0.55,4.83 0.58,10.16 0.44,15.04 -0.12,4.2 -0.49,8.09 -1.69,12.04 0.35,0.9 0.66,1.83 0.9,2.79 2.34,9.14 -1.31,18.21 -9.12,23.5 -5.71,3.87 -13.05,5.31 -19.76,6.36 -10.94,1.71 -22.31,2.68 -33.36,3.47 -14.07,1.02 -28.19,1.64 -42.29,2.1 -14.14,0.46 -28.45,0.81 -42.59,0.19 -10.93,-0.48 -22.22,-1.57 -32.96,-3.72 -6.96,-1.39 -14.68,-3.41 -20.57,-7.5 -6.21,-4.31 -9.28,-9.82 -10.65,-17.04 -0.99,-5.22 -1.28,-10.46 0.41,-15.14 -0.79,-4.75 -0.68,-9.76 0.53,-14.28 1.65,-6.15 5.04,-10.65 10.15,-14.31 4.96,-3.56 10.25,-5.03 16.1,-6.45 9.78,-2.38 19.69,-4.23 29.35,-7.08 6.49,-1.91 13.11,-4.4 18.94,-7.88 3.95,-2.35 7.19,-5.09 10.69,-8.04 4.4,-3.7 9.22,-7.71 14.39,-10.22 1.33,-0.65 2.66,-1.18 3.99,-1.6 -0.15,-4.62 -0.47,-9.4 -0.61,-13.48 -0.84,-24.39 -1.8,-48.78 -2.59,-73.18 -0.11,-3.27 -0.26,-6.61 -0.15,-9.89 -10.73,-1.09 -21.44,-2.3 -32.06,-3.72 -9.94,-1.33 -20.45,-2.26 -27.08,-10.84 -7.07,-9.16 -5.53,-27.02 -5.38,-37.99 0.49,-35.64 2.09,-71.87 5.1,-107.37 2.75,-32.4 7.08,-64.53 12.28,-96.62 0.65,-3.99 2.88,-15.44 3.37,-22.15 -5.06,-1.19 -12.59,-1.99 -16.21,-2.54 -15.75,-2.38 -31.51,-5.21 -47.17,-8.14 -6.61,-1.24 -15.19,-3.32 -21.92,-3.14 -8.53,0.23 -15.83,2.04 -24.64,0.69 -11.96,-1.83 -21.86,-9.03 -26.99,-19.98 -3.85,-8.22 -5.1,-19.24 -2.65,-27.98 0.45,-1.6 1.03,-3.11 1.72,-4.52 -2.87,-1.95 -5.7,-3.95 -8.48,-6.01 -20.88,-15.44 -38.88,-33.96 -53.35,-55.54 -6.7,-9.99 -12.58,-20.51 -18.18,-31.16 -4.06,-7.73 -7.92,-15.78 -12.28,-23.32 -4.86,-8.43 -7.24,-9.68 -14.17,-15.74 -10.03,-8.77 -19.71,-19.51 -26.38,-31.1 -6.53,-11.35 -9.05,-21.83 -13.6,-33.65 -2.26,-5.86 -5.25,-10.07 -8.6,-15.29 -4.65,-7.24 -8.94,-14.79 -13.35,-22.18 -5.67,-9.49 -13.24,-21.3 -16.42,-31.79 -3.71,-12.26 -0.91,-20.96 6.7,-30.62 5,-6.35 9.64,-12.62 17.48,-15.17 -0.99,-6.28 -0.04,-12.57 4.52,-19.01 3.98,-5.63 10.33,-10.49 16.1,-14.25 9.3,-6.05 18.96,-6.56 27.12,-0.35 1.24,-3.32 3.21,-6.49 6.14,-9.43 8.16,-8.17 21.91,-11.02 33.14,-11.29 19.13,-0.47 23.41,12.76 28.61,27.8 5.85,16.93 11.94,35.31 19.2,51.81 2.94,-2.46 5.9,-4.88 9,-7.14 1.28,-0.94 2.59,-1.85 3.92,-2.72 8.95,-5.89 21.02,-11.34 31.67,-13.05 10.83,-1.73 18.08,0.88 26,7.92 9.22,8.2 15.43,18.88 10.98,31.63 -3.47,9.95 -13.31,17.34 -19.71,25.59 -6.61,8.53 -11.25,18.89 -13.55,29.42 -2.83,12.91 -2.6,27.47 0.05,40.43 3.18,15.58 10.26,29.14 18.7,42.48 11.87,18.78 26.68,37.71 42.84,53.04 0.35,0.33 0.7,0.66 1.06,0.99 5.48,-3.07 12.39,-4.05 18.92,-2.93 8.28,1.42 17.07,5.95 23.36,11.53 2.41,2.14 6.8,7.77 9.14,9.13 4.88,2.84 15.62,4.13 21.12,4.65 3.6,0.34 7.24,0.59 10.9,0.78 -0.45,-2.12 -0.69,-4.31 -0.69,-6.56l0 -7.13c0,-4.88 1.12,-9.51 3.12,-13.64 -8.23,-6.63 -13.5,-16.79 -13.5,-28.14l0 -9.72c0,-11.96 5.85,-22.58 14.84,-29.17 -7.68,-49.7 -35.69,-89.89 -69.3,-126.36 -0.36,-0.39 -0.7,-0.79 -1.02,-1.2 -51.78,-55.33 -80.35,-127.66 -80.35,-203.5 0,-164.52 133.38,-297.9 297.9,-297.9 164.52,0 297.9,133.38 297.9,297.9 0,75.86 -28.59,148.21 -80.39,203.55 -0.11,0.14 -0.23,0.29 -0.34,0.43 -32.12,38.76 -56.85,78.58 -69.82,127.18 8.92,6.59 14.72,17.17 14.72,29.08l0 9.72c0,11.35 -5.28,21.51 -13.5,28.14 2,4.13 3.12,8.76 3.12,13.64l0 7.13c0,2.42 -0.28,4.78 -0.8,7.05 8.43,-0.18 16.88,-0.5 25.1,-1.27 5.5,-0.52 16.23,-1.8 21.12,-4.65 2.33,-1.36 6.73,-6.99 9.14,-9.13 6.28,-5.58 15.08,-10.12 23.36,-11.53 6.84,-1.17 14.1,-0.04 19.69,3.39 13.97,-14.23 26.74,-30.93 37.22,-47.51 8.44,-13.35 15.52,-26.9 18.7,-42.48 2.65,-12.96 2.88,-27.52 0.05,-40.43 -2.3,-10.52 -6.94,-20.89 -13.55,-29.42 -6.4,-8.26 -16.24,-15.65 -19.71,-25.59 -4.45,-12.75 1.76,-23.43 10.98,-31.63 7.92,-7.04 15.17,-9.65 26,-7.92 10.65,1.7 22.72,7.16 31.67,13.05 1.33,0.87 2.63,1.78 3.92,2.72 3.1,2.27 6.06,4.68 9,7.14 7.27,-16.49 13.35,-34.87 19.2,-51.81 5.2,-15.04 9.48,-28.27 28.61,-27.8 11.23,0.27 24.98,3.12 33.14,11.29 2.93,2.94 4.9,6.11 6.14,9.43 8.16,-6.21 17.82,-5.69 27.12,0.35 5.77,3.75 12.12,8.62 16.1,14.25 4.56,6.44 5.51,12.73 4.52,19.01 7.83,2.55 12.48,8.82 17.48,15.17 7.61,9.66 10.41,18.36 6.7,30.62 -3.17,10.49 -10.75,22.3 -16.42,31.79 -4.42,7.39 -8.71,14.94 -13.35,22.18 -3.35,5.22 -6.34,9.42 -8.6,15.29 -4.55,11.82 -7.07,22.3 -13.6,33.65 -6.67,11.58 -16.35,22.32 -26.38,31.1 -6.93,6.07 -9.31,7.32 -14.17,15.74 -4.35,7.55 -8.22,15.6 -12.28,23.32 -5.59,10.64 -11.48,21.16 -18.18,31.16 -14.47,21.57 -32.47,40.09 -53.35,55.53 -0.54,0.4 -1.09,0.8 -1.64,1.2 0.29,0.76 0.55,1.55 0.78,2.36 2.46,8.75 1.2,19.76 -2.65,27.98 -5.13,10.95 -15.03,18.15 -26.99,19.98 -8.81,1.35 -16.11,-0.46 -24.64,-0.69 -6.74,-0.18 -15.31,1.9 -21.92,3.14 -15.66,2.93 -31.41,5.76 -47.17,8.14 -3.62,0.55 -11.15,1.35 -16.21,2.54 0.49,6.71 2.72,18.16 3.37,22.15 5.21,32.09 9.53,64.22 12.28,96.62 3.01,35.5 4.6,71.73 5.1,107.37 0.15,10.97 1.69,28.83 -5.38,37.99 -6.62,8.58 -17.14,9.51 -27.08,10.84 -12.42,1.66 -24.97,3.03 -37.52,4.27 0.08,3.1 -0.06,6.26 -0.16,9.34 -0.79,24.39 -1.75,48.78 -2.59,73.18 -0.14,4.09 -0.46,8.87 -0.61,13.48 1.33,0.42 2.66,0.95 3.99,1.6 5.18,2.51 10,6.53 14.39,10.22 3.5,2.94 6.74,5.68 10.69,8.04 5.83,3.48 12.45,5.97 18.94,7.88 9.67,2.85 19.58,4.7 29.35,7.08 5.85,1.42 11.14,2.9 16.1,6.45 5.11,3.66 8.5,8.16 10.15,14.31 1.21,4.53 1.32,9.53 0.53,14.28 1.69,4.68 1.4,9.92 0.41,15.14 -1.37,7.23 -4.44,12.73 -10.65,17.04 -5.89,4.09 -13.62,6.11 -20.57,7.5 -10.74,2.15 -22.03,3.24 -32.96,3.72 -14.14,0.62 -28.45,0.27 -42.59,-0.19 -14.1,-0.46 -28.22,-1.08 -42.29,-2.1 -11.04,-0.8 -22.42,-1.76 -33.36,-3.47 -6.7,-1.05 -14.05,-2.49 -19.76,-6.36 -7.81,-5.29 -11.46,-14.36 -9.12,-23.5 0.24,-0.96 0.55,-1.89 0.9,-2.79 -1.2,-3.94 -1.56,-7.84 -1.69,-12.04 -0.14,-4.88 -0.11,-10.2 0.44,-15.04 0.05,-0.44 0.11,-0.87 0.17,-1.3 -0.47,-1.07 -0.88,-2.18 -1.23,-3.48 -1.77,-6.62 -0.76,-13.88 2.59,-19.84 1.17,-2.08 2.65,-4.03 4.36,-5.74z"/>
  <path class="fil0" d="M506.02 44.32c141.29,0 255.84,114.54 255.84,255.84 0,68.17 -26.67,130.1 -70.13,175.96l0.1 0c-35.94,43.36 -57.58,82.97 -68.7,128.59l-234.62 -0c-6.47,-49.38 -32.5,-89.74 -68.3,-128.59l0.1 0c-43.46,-45.86 -70.13,-107.79 -70.13,-175.96 0,-141.29 114.54,-255.84 255.84,-255.84z"/>
  <path class="fil1" d="M506.02 18.46c154.34,0 279.45,125.11 279.45,279.45 0,74.46 -29.13,142.11 -76.6,192.2l0.11 0c-39.25,47.37 -62.89,90.63 -75.04,140.46l-256.28 -0c-7.07,-53.94 -35.49,-98.02 -74.6,-140.46l0.11 0c-47.47,-50.09 -76.6,-117.74 -76.6,-192.2 0,-154.34 125.11,-279.45 279.45,-279.45zm-95.5 571.5l193.12 0c18.16,-62.03 47.17,-97.44 75.77,-127.79 42.21,-44.53 65.47,-102.9 65.47,-164.27 0,-131.92 -106.92,-238.85 -238.85,-238.85 -131.92,0 -238.85,106.92 -238.85,238.85 0,61.37 23.26,119.73 65.47,164.27 35.52,37.61 56.73,55 77.88,127.79z"/>
  <rect class="fil2" x="362.41" y="640.46" width="287.23" height="45.07" rx="17.68" ry="17.68"/>
  <rect class="fil2" x="372.79" y="696.67" width="266.46" height="33.05" rx="16.4" ry="12.96"/>
  <path class="fil1" d="M752.43 728.39c3.38,-2.81 6.7,-5.77 9.96,-8.86 18.04,-17.11 34.33,-38.52 45.74,-56.57 11.41,-18.04 17.92,-32.7 21.18,-48.65 3.26,-15.95 3.26,-33.17 0,-48.07 -3.26,-14.9 -9.78,-27.47 -16.99,-36.78 -7.22,-9.31 -15.13,-15.36 -16.88,-20.37 -1.75,-5 2.68,-8.96 5.82,-11.75 3.14,-2.79 5,-4.42 10.82,-3.49 5.82,0.93 15.6,4.42 24.44,10.24 8.85,5.82 16.76,13.97 22.48,17.49 5.72,3.52 9.25,2.41 15.88,-12.06 6.62,-14.47 16.35,-42.3 21.34,-56.75 4.99,-14.45 5.26,-15.51 10.72,-15.38 5.46,0.13 16.11,1.46 20.53,5.88 4.41,4.42 2.58,11.93 -1.82,25.68 -4.4,13.76 -11.38,33.76 -13.94,43.07 -2.56,9.3 -0.7,7.91 5.71,-0.47 6.4,-8.38 17.34,-23.74 24.79,-34.8 7.45,-11.06 11.41,-17.81 14.09,-20.91 2.68,-3.1 4.09,-2.54 7.44,-0.36 3.36,2.18 8.66,5.99 11.1,9.43 2.44,3.45 2.01,6.53 -2.62,16.22 -4.64,9.69 -13.48,25.98 -19.65,38.09 -6.17,12.1 -9.66,20.02 -9.54,22.46 0.12,2.44 3.84,-0.58 10.71,-8.85 6.87,-8.26 16.88,-21.76 23.05,-30.38 6.17,-8.61 8.5,-12.34 11.35,-11.8 2.86,0.54 6.25,5.35 9.27,9.19 3.03,3.84 5.69,6.71 3.53,13.85 -2.16,7.14 -9.14,18.55 -14.59,27.67 -5.45,9.12 -9.37,15.96 -13.04,21.68 -3.67,5.72 -7.1,10.33 -10.29,18.62 -3.19,8.29 -6.15,20.27 -12.37,31.07 -6.22,10.81 -15.7,20.44 -22.54,26.42 -6.84,5.98 -11.03,8.31 -18.01,20.41 -6.98,12.1 -16.76,33.98 -29.8,53.42 -13.04,19.44 -29.33,36.43 -49,50.98 -5.22,3.86 -10.67,7.55 -16.28,11.05 -0.22,0.07 -0.45,0.13 -0.67,0.21 -3.28,1.09 -5.42,2.94 -9.01,2.29 -6.96,-1.26 -16.74,-8.45 -22.02,-12.89 -8.97,-7.55 -18.41,-17.59 -25.36,-26.99 -1.04,-1.41 -4.68,-6.56 -5.51,-9.26zm188.35 -160.63c-5.19,-5.06 -16.11,-13.58 -27.7,-19.98 -11.59,-6.39 -23.84,-10.65 -28.43,-11.65 -4.59,-1 -1.53,1.26 7.32,7.12 8.86,5.86 23.5,15.31 32.56,21.64 9.06,6.33 12.52,9.52 14.98,10.85 2.46,1.33 3.93,0.8 4.93,-0.27 1,-1.07 1.53,-2.66 -3.66,-7.72z"/>
  <path class="fil1" d="M272.81 725.46c-5.11,-3.99 -10.11,-8.29 -14.98,-12.91 -18.04,-17.11 -34.33,-38.52 -45.74,-56.56 -11.41,-18.04 -17.92,-32.7 -21.18,-48.65 -3.26,-15.95 -3.26,-33.17 0,-48.07 3.26,-14.9 9.78,-27.47 16.99,-36.78 7.22,-9.31 15.13,-15.36 16.88,-20.37 1.75,-5 -2.68,-8.96 -5.82,-11.75 -3.14,-2.79 -5,-4.42 -10.82,-3.49 -5.82,0.93 -15.59,4.42 -24.44,10.24 -8.85,5.82 -16.76,13.97 -22.48,17.49 -5.72,3.52 -9.25,2.41 -15.88,-12.06 -6.63,-14.47 -16.35,-42.3 -21.34,-56.75 -4.99,-14.45 -5.26,-15.52 -10.72,-15.38 -5.46,0.13 -16.11,1.46 -20.53,5.88 -4.41,4.42 -2.58,11.93 1.82,25.68 4.4,13.76 11.38,33.76 13.94,43.07 2.56,9.3 0.7,7.91 -5.71,-0.47 -6.4,-8.38 -17.34,-23.74 -24.79,-34.8 -7.45,-11.06 -11.41,-17.81 -14.09,-20.9 -2.68,-3.1 -4.09,-2.54 -7.44,-0.36 -3.36,2.18 -8.66,5.99 -11.1,9.43 -2.44,3.45 -2.01,6.53 2.62,16.22 4.64,9.69 13.48,25.98 19.65,38.09 6.17,12.1 9.66,20.02 9.54,22.46 -0.12,2.44 -3.84,-0.58 -10.71,-8.85 -6.87,-8.26 -16.88,-21.76 -23.05,-30.38 -6.17,-8.61 -8.5,-12.34 -11.35,-11.8 -2.86,0.54 -6.25,5.35 -9.27,9.19 -3.03,3.84 -5.69,6.71 -3.53,13.85 2.16,7.14 9.14,18.55 14.59,27.67 5.45,9.12 9.37,15.96 13.04,21.68 3.67,5.72 7.1,10.33 10.29,18.62 3.19,8.29 6.15,20.27 12.37,31.07 6.22,10.81 15.7,20.44 22.54,26.42 6.84,5.98 11.03,8.31 18.01,20.41 6.98,12.1 16.76,33.98 29.8,53.42 13.04,19.44 29.33,36.43 49,50.98 10.13,7.49 21.15,14.34 32.41,20.4 6.92,-1.52 16.33,-8.45 21.48,-12.78 8.97,-7.55 18.41,-17.59 25.36,-26.99 1.19,-1.61 5.76,-8.09 5.69,-10.17 -0.1,-0.44 -0.7,-1.4 -0.93,-1.79l-0.13 -0.22zm-193.36 -164.68c5.19,-5.06 16.11,-13.58 27.7,-19.98 11.59,-6.39 23.84,-10.65 28.43,-11.65 4.59,-1 1.53,1.26 -7.32,7.12 -8.86,5.86 -23.5,15.31 -32.56,21.64 -9.06,6.33 -12.52,9.52 -14.98,10.85 -2.46,1.33 -3.93,0.8 -4.93,-0.27 -1,-1.06 -1.53,-2.66 3.66,-7.72z"/>
  <path class="fil2" d="M638.01 742.54c20.46,-0.31 34.54,-0.58 45.72,-1.63 13.58,-1.27 22.88,-3.7 28.68,-7.07 5.8,-3.38 8.1,-7.71 12.11,-11.28 4.02,-3.57 9.75,-6.37 14.21,-7.14 4.46,-0.76 7.65,0.51 7.78,2.42 0.13,1.91 -2.8,4.46 -3.38,8.22 -0.57,3.76 1.21,8.73 7.39,17.08 6.18,8.35 16.76,20.08 26.83,28.55 10.07,8.48 19.63,13.7 26.32,14.91 6.69,1.21 10.52,-1.59 13.58,-2.61 3.06,-1.02 5.36,-0.25 6.37,3.38 1.02,3.63 0.76,10.13 -1.59,15.17 -2.36,5.04 -6.82,8.61 -13.07,9.56 -6.25,0.96 -14.28,-0.7 -21.35,-0.89 -7.08,-0.19 -13.19,1.08 -25.81,3.44 -12.62,2.36 -31.74,5.8 -46.53,8.03 -10.62,1.6 -19.01,2.58 -24.47,5.02l-52.8 -85.16z"/>
  <path class="fil3" d="M398.45 742.7l3.74 0.06c28.36,0.45 67.24,1.21 87.58,1.47 18.83,0.24 27.78,0.24 46.61,0 20.33,-0.25 59.21,-1.02 87.58,-1.47l3.73 -0.06 56.62 91.3c-2.21,5.86 -0.37,15.76 2.69,34.57 3.57,21.99 8.8,56.15 12.11,95.22 3.31,39.07 4.72,83.05 5.04,106.06 0.32,23.01 -0.45,25.05 -1.53,26.45 -1.08,1.4 -2.48,2.17 -14.91,3.82 -12.43,1.66 -35.89,4.21 -65.97,6.88 -21.06,1.87 -45.37,3.81 -67.04,5.26 -3.74,4.12 -79.48,4.12 -83.22,0 -21.67,-1.45 -45.98,-3.39 -67.04,-5.26 -30.08,-2.68 -53.54,-5.23 -65.97,-6.88 -12.43,-1.66 -13.83,-2.42 -14.91,-3.82 -1.08,-1.4 -1.85,-3.44 -1.53,-26.45 0.32,-23.01 1.72,-66.99 5.04,-106.06 3.31,-39.07 8.54,-73.23 12.11,-95.22 3.05,-18.81 4.89,-28.71 2.69,-34.57l56.61 -91.3z"/>
  <path class="fil2" d="M222.44 786.61c6.69,-1.21 16.25,-6.44 26.32,-14.91 10.07,-8.48 20.65,-20.2 26.83,-28.55 6.18,-8.35 7.97,-13.32 7.39,-17.08 -0.57,-3.76 -3.5,-6.31 -3.38,-8.22 0.13,-1.91 3.31,-3.19 7.78,-2.42 4.46,0.77 10.2,3.57 14.21,7.14 4.01,3.57 6.31,7.9 12.11,11.28 5.8,3.38 15.11,5.8 28.68,7.07 11.18,1.05 25.26,1.32 45.72,1.63l-52.8 85.15c-5.46,-2.43 -13.85,-3.41 -24.47,-5.01 -14.79,-2.23 -33.91,-5.67 -46.53,-8.03 -12.62,-2.36 -18.74,-3.63 -25.81,-3.44 -7.08,0.19 -15.11,1.85 -21.35,0.89 -6.25,-0.96 -10.71,-4.53 -13.07,-9.56 -2.36,-5.04 -2.61,-11.54 -1.59,-15.17 1.02,-3.63 3.31,-4.4 6.37,-3.38 3.06,1.02 6.88,3.82 13.58,2.61z"/>
  <path class="fil1" d="M508.9 480.59l0 0c8.29,0 15.82,3.34 21.33,8.75l71.55 -184.27c0.89,-2.27 3.46,-3.41 5.73,-2.53 2.27,0.89 3.41,3.46 2.53,5.73l-73.63 189.63c1.96,4.03 3.08,8.55 3.11,13.31l0.44 67.36 -61.24 0 -0.44 -67.36c-0.03,-5 1.17,-9.73 3.31,-13.9l-73.4 -189.03c-0.88,-2.27 0.25,-4.85 2.53,-5.73 2.27,-0.88 4.85,0.25 5.73,2.53l71.41 183.91c5.51,-5.19 12.93,-8.39 21.04,-8.39z"/>
  <path class="fil4" d="M474.26 322.69l8.85 -12.39c0.33,-0.46 0.79,-0.72 1.35,-0.77 0.56,-0.05 1.06,0.14 1.46,0.53l13.89 13.89 0.39 0.39 0.19 -0.43 13.74 -30.62c0.28,-0.63 0.85,-1.03 1.53,-1.08 0.69,-0.06 1.31,0.25 1.69,0.82l16.82 25.41 13.85 -10.09c0.44,-0.32 0.95,-0.43 1.48,-0.31 0.53,0.12 0.95,0.42 1.22,0.9l6.38 11.38 1.95 3.47 2.86 -3.78 10.28 -13.57c0.34,-0.44 0.8,-0.69 1.36,-0.73 0.56,-0.03 1.05,0.16 1.44,0.56l10.66 11.04c0.71,0.73 0.68,1.9 -0.05,2.61 -0.73,0.71 -1.9,0.68 -2.61,-0.05l-1.09 -1.13 -8.07 -8.36 -7.05 9.32 -6.49 8.56c-0.39,0.51 -0.96,0.77 -1.6,0.73 -0.64,-0.04 -1.17,-0.38 -1.48,-0.94l-4.19 -7.48 -4.5 -8.02 -12.49 9.1 -1.24 0.91c-0.42,0.31 -0.9,0.42 -1.41,0.32 -0.51,-0.09 -0.92,-0.36 -1.21,-0.8l-0.12 -0.18 -15.92 -24.05 -11.57 25.79 -2.09 4.64c-0.26,0.57 -0.74,0.95 -1.35,1.06 -0.62,0.11 -1.2,-0.07 -1.64,-0.51l-4.58 -4.58 -10.05 -10.05 -8 11.2 -1.2 1.68c-0.37,0.52 -0.93,0.79 -1.56,0.77 -0.64,-0.02 -1.17,-0.33 -1.51,-0.87l-0.78 -1.26 -12.95 -20.99 -20.6 23.12 -1.16 1.3c-0.68,0.76 -1.85,0.83 -2.61,0.15 -0.76,-0.68 -0.83,-1.85 -0.15,-2.61l23.41 -26.26c0.4,-0.45 0.94,-0.66 1.54,-0.61 0.6,0.05 1.09,0.36 1.41,0.87l13.57 21.99z"/>
  <path class="fil3" d="M453.3 1248.79c-1.87,1.18 -4.84,3.11 -9.21,5.17 -4.37,2.06 -10.14,4.26 -16.44,5.33 -6.29,1.07 -13.11,1.02 -17.59,0.5 -4.48,-0.52 -6.62,-1.51 -8.25,-1.35 -1.62,0.17 -2.72,1.49 -4.26,3.19 -1.54,1.7 -3.52,3.79 -5.31,4.81 -1.79,1.02 -3.38,0.96 -4.45,0.16 -1.07,-0.8 -1.62,-2.34 -0.61,-4.21 1.02,-1.87 3.6,-4.07 5.36,-5.8 1.76,-1.73 2.69,-2.99 2.72,-5 0.03,-2.01 -0.85,-4.75 -3.13,-7.48 -2.28,-2.72 -5.97,-5.42 -8.82,-6.9 -2.86,-1.48 -4.89,-1.76 -7.83,-0.33 -2.94,1.43 -6.79,4.56 -10.58,7.75 -3.79,3.19 -7.53,6.43 -13.11,9.76 -5.58,3.33 -13,6.73 -23.17,9.73 -10.17,3 -23.09,5.58 -30.21,7.31 -7.12,1.73 -8.44,2.61 -9.7,3.52 -1.26,0.91 -2.47,1.84 -3.08,4.1 -0.6,2.25 -0.6,5.83 0.52,9.23 1.13,3.41 3.38,6.65 10.28,8.82 6.9,2.17 18.45,3.27 35.21,3.63 16.77,0.36 38.76,-0.03 60.34,-1.07 21.58,-1.04 42.74,-2.75 53.99,-4.62 11.24,-1.87 12.56,-3.9 13.36,-6.02 0.8,-2.12 1.07,-4.32 1.18,-8.05 0.11,-3.74 0.06,-9.02 -0.33,-12.42 -0.39,-3.41 -1.1,-4.95 -0.74,-6.51 0.36,-1.57 1.79,-3.16 2.31,-5.11 0.52,-1.95 0.14,-4.26 -0.85,-6.02 -0.99,-1.76 -2.58,-2.97 -3.77,-3.35 -1.18,-0.38 -1.95,0.06 -3.82,1.24z"/>
  <path class="fil2" d="M456.99 1298.14c-2.09,-0.11 -5.39,1.04 -10.91,2.06 -5.52,1.02 -13.28,1.9 -24.46,2.75 -11.19,0.85 -25.81,1.68 -39.67,2.23 -13.85,0.55 -26.94,0.83 -40.05,0.69 -13.11,-0.14 -26.25,-0.69 -35.16,-2.03 -8.91,-1.35 -13.58,-3.49 -16.71,-5.5 -3.13,-2.01 -4.73,-3.88 -5.31,-3.44 -0.58,0.44 -0.14,3.19 0.27,5.36 0.41,2.17 0.8,3.77 3.05,5.33 2.25,1.57 6.38,3.11 13.66,4.56 7.28,1.46 17.73,2.83 30.16,3.38 12.42,0.55 26.83,0.27 41.18,-0.19 14.35,-0.47 28.64,-1.13 41.56,-2.06 12.92,-0.93 24.47,-2.14 31.83,-3.3 7.37,-1.15 10.56,-2.25 12.26,-3.41 1.7,-1.15 1.93,-2.36 1.6,-3.66 -0.33,-1.29 -1.21,-2.67 -3.3,-2.78z"/>
  <path class="fil2" d="M453.72 1222.63c-0.73,-19.16 -2.64,-58.29 -3.9,-77.83 -1.26,-19.54 -1.86,-19.49 -12.3,-20.82 -10.43,-1.33 -30.7,-4.05 -40.94,-6.18 -10.25,-2.13 -10.48,-3.68 -9.92,13.65 0.56,17.33 1.91,53.53 2.58,73.14 0.67,19.61 0.67,22.64 0.51,24.37 -0.17,1.73 -0.5,2.17 1.02,3.96 1.51,1.79 4.86,4.92 7.01,7.81 2.14,2.89 3.08,5.52 3.6,7.53 0.52,2.01 0.63,3.38 2.58,4.32 1.95,0.93 5.75,1.43 10.97,1.18 5.22,-0.25 11.87,-1.24 17.4,-2.5 5.53,-1.26 9.92,-2.8 13.27,-4.7 3.35,-1.9 5.65,-4.15 7.03,-4.87 1.37,-0.72 1.82,0.11 1.09,-19.04z"/>
  <path class="fil3" d="M567.35 1248.79c1.87,1.18 4.84,3.11 9.21,5.17 4.37,2.06 10.14,4.26 16.44,5.33 6.29,1.07 13.11,1.02 17.59,0.5 4.48,-0.52 6.63,-1.51 8.25,-1.35 1.62,0.17 2.72,1.49 4.26,3.19 1.54,1.7 3.52,3.79 5.31,4.81 1.79,1.02 3.38,0.96 4.45,0.16 1.07,-0.8 1.62,-2.34 0.61,-4.21 -1.02,-1.87 -3.6,-4.07 -5.36,-5.8 -1.76,-1.73 -2.69,-2.99 -2.72,-5 -0.03,-2.01 0.85,-4.75 3.13,-7.48 2.28,-2.72 5.97,-5.42 8.82,-6.9 2.86,-1.48 4.89,-1.76 7.83,-0.33 2.94,1.43 6.79,4.56 10.58,7.75 3.79,3.19 7.53,6.43 13.11,9.76 5.58,3.33 13,6.73 23.17,9.73 10.17,3 23.09,5.58 30.21,7.31 7.12,1.73 8.44,2.61 9.7,3.52 1.26,0.91 2.47,1.84 3.08,4.1 0.6,2.25 0.6,5.83 -0.52,9.23 -1.13,3.41 -3.38,6.65 -10.28,8.82 -6.9,2.17 -18.45,3.27 -35.21,3.63 -16.77,0.36 -38.76,-0.03 -60.34,-1.07 -21.58,-1.04 -42.74,-2.75 -53.99,-4.62 -11.24,-1.87 -12.56,-3.9 -13.36,-6.02 -0.8,-2.12 -1.07,-4.32 -1.18,-8.05 -0.11,-3.74 -0.06,-9.02 0.33,-12.42 0.38,-3.41 1.1,-4.95 0.74,-6.51 -0.36,-1.57 -1.79,-3.16 -2.31,-5.11 -0.52,-1.95 -0.14,-4.26 0.85,-6.02 0.99,-1.76 2.58,-2.97 3.77,-3.35 1.18,-0.38 1.95,0.06 3.82,1.24z"/>
  <path class="fil2" d="M563.66 1298.14c2.09,-0.11 5.39,1.04 10.91,2.06 5.52,1.02 13.28,1.9 24.46,2.75 11.19,0.85 25.81,1.68 39.67,2.23 13.85,0.55 26.94,0.83 40.05,0.69 13.11,-0.14 26.25,-0.69 35.16,-2.03 8.91,-1.35 13.58,-3.49 16.71,-5.5 3.13,-2.01 4.73,-3.88 5.31,-3.44 0.58,0.44 0.14,3.19 -0.27,5.36 -0.41,2.17 -0.8,3.77 -3.05,5.33 -2.25,1.57 -6.38,3.11 -13.66,4.56 -7.28,1.46 -17.73,2.83 -30.16,3.38 -12.42,0.55 -26.83,0.27 -41.18,-0.19 -14.35,-0.47 -28.64,-1.13 -41.56,-2.06 -12.92,-0.93 -24.47,-2.14 -31.83,-3.3 -7.37,-1.15 -10.56,-2.25 -12.26,-3.41 -1.7,-1.15 -1.93,-2.36 -1.6,-3.66 0.33,-1.29 1.21,-2.67 3.3,-2.78z"/>
  <path class="fil2" d="M566.93 1222.63c0.73,-19.16 2.64,-58.29 3.9,-77.83 1.26,-19.54 1.86,-19.49 12.3,-20.82 10.43,-1.33 30.7,-4.05 40.94,-6.18 10.25,-2.13 10.48,-3.68 9.92,13.65 -0.56,17.33 -1.91,53.53 -2.58,73.14 -0.67,19.61 -0.67,22.64 -0.51,24.37 0.17,1.73 0.5,2.17 -1.02,3.96 -1.51,1.79 -4.86,4.92 -7.01,7.81 -2.14,2.89 -3.08,5.52 -3.6,7.53 -0.52,2.01 -0.63,3.38 -2.58,4.32 -1.95,0.93 -5.75,1.43 -10.97,1.18 -5.22,-0.25 -11.88,-1.24 -17.4,-2.5 -5.53,-1.26 -9.92,-2.8 -13.27,-4.7 -3.35,-1.9 -5.65,-4.15 -7.03,-4.87 -1.37,-0.72 -1.82,0.11 -1.09,-19.04z"/>
 </g>
</svg>
