<?xml version="1.0" encoding="UTF-8"?>
<!DOCTYPE svg PUBLIC "-//W3C//DTD SVG 1.1//EN" "http://www.w3.org/Graphics/SVG/1.1/DTD/svg11.dtd">
<!-- Creator: CorelDRAW 2019 (64-Bit Evaluation Version) -->
<svg xmlns="http://www.w3.org/2000/svg" xml:space="preserve" width="1.8962in" height="3.14135in" version="1.1" style="shape-rendering:geometricPrecision; text-rendering:geometricPrecision; image-rendering:optimizeQuality; fill-rule:evenodd; clip-rule:evenodd"
viewBox="0 0 449889.98 745313.4"
 xmlns:xlink="http://www.w3.org/1999/xlink">
 <defs>
  <style type="text/css">
   <![CDATA[
    .fil0 {fill:#FEFEFE}
    .fil6 {fill:#FEFEFE}
    .fil4 {fill:#BDBFC1}
    .fil2 {fill:#A9ABAE}
    .fil1 {fill:#201E1E}
    .fil3 {fill:#201E1E}
    .fil5 {fill:black}
   ]]>
  </style>
 </defs>
 <g id="Layer_x0020_1">
  <g id="_2994341204128">
   <path class="fil0" d="M417832.98 271364.08c5638.16,1224.59 11288.47,2686.44 16489.47,4182.85 6697.42,1887.79 16640.8,3552.34 15472.25,13727.37 -843.48,7334.47 -4903.03,24344.23 -9580.95,29709.64 -657.6,754.74 -1389.92,1437.56 -2185.77,2043.79 -2607.98,1987.74 -5405.57,2345.5 -7555.85,4646.16 -5304.69,5678.33 -9939.64,19198.33 -12255.25,26376.81 -5195.4,16110.23 -11927.38,32135.47 -24827.15,43644.38 -6678.74,5959.49 -14031.89,10057.34 -22703.03,12389.76 -7737.99,2082.08 -17001.35,3398.22 -26361.86,3984.82 7038.36,2434.24 13717.1,5269.2 19654.17,8575.87 5357.93,2985.35 10337.56,6461.09 15092.08,10335.7 7492.33,6106.14 14889.38,13516.27 20282.81,21580.26 1647.73,2463.19 3130.13,5033.81 4445.33,7690.36 283.03,571.66 511.88,1151.73 683.75,1737.41 326.93,496.94 614.63,1028.43 859.36,1593.56 2255.83,5221.56 3883.01,10712.13 4883.42,16309.19 1445.04,8088.28 1525.37,16184.03 625.84,24334.89 -650.13,5894.1 -1789.71,11630.34 -3122.66,17400.21 -475.45,2056.86 -1135.85,4401.43 -1262.89,6517.14 -227.92,3790.53 -158.8,6947.75 -869.64,10798.07 -1083.54,5862.34 -3360.85,11834.91 -6535.82,16879.92 -3155.35,5012.32 -7349.41,9389.46 -11786.34,13279.94 -2012.03,1765.43 -4248.24,3613.06 -6659.12,5082.38 386.71,2069.94 528.69,4281.86 672.54,6472.3 602.49,9158.74 977.06,18343.64 1489.87,27508.92 297.97,5338.32 1449.71,11401.49 -2286.65,15881.38 -2259.56,2708.86 -5068.37,3736.36 -8405.87,4321.1 -3415.03,598.75 -7005.67,946.23 -10453.39,1334.81 -8758.02,986.4 -17532.85,1898.07 -26314.22,2726.61 1889.66,7074.79 3273.05,14776.35 4512.58,21950.16 926.62,5361.67 1686.03,10708.4 2432.37,16087.82 1477.73,99.95 3028.32,510.95 4710.61,1344.15 3691.52,1829.88 5697.94,4924.52 7692.22,8328.34 300.78,512.81 653.86,1171.35 1016.29,1684.16 220.45,82.2 462.37,155.99 664.14,228.85 630.51,227.92 1230.2,491.33 1797.19,785.57 2503.36,-1682.29 5241.17,-3018.04 8150.86,-4080.1 6031.41,-2202.58 13206.15,-3427.17 19579.44,-2380.06 7609.09,1248.88 13763.8,5646.57 17624.39,12300.08 2943.31,5071.17 4893.69,12230.03 4969.35,18068.08 104.62,8088.28 -3902.62,12141.29 -10660.76,15723.52 -7437.22,3941.86 -15599.29,7174.74 -23551.19,9894.81 -12067.5,4127.74 -25009.3,7603.48 -37560.66,9934.04 -9609.91,1783.18 -20990.85,3303.87 -30788.51,2966.67 -7112.15,-244.73 -14182.27,-2049.39 -16692.17,-9640.73 -1213.38,-3667.23 -951.84,-7933.22 737.93,-11412.7 88.74,-182.15 179.35,-359.62 271.82,-532.43 -578.2,-1695.37 -882.71,-3538.33 -1009.75,-5466.29 -183.08,-2763.97 -184.95,-5626.95 117.7,-8382.52 80.33,-735.13 254.07,-1624.38 337.21,-2414.62 -1219.92,-2591.16 -2242.75,-4039.94 -2377.26,-7512.88 -121.43,-3138.54 904.2,-6318.18 2730.34,-8916.81 -691.23,-3052.6 -1014.42,-6774.01 -1417.01,-9408.14 -1203.11,-7875.3 -2657.48,-15833.74 -4368.73,-23613.77 -818.26,-3717.67 -1731.8,-7409.19 -2592.1,-11117.53 -687.49,-2966.67 -1456.24,-6219.16 -1638.39,-9257.76 -21.48,-353.09 -32.69,-704.3 -33.63,-1052.72 -17646.81,967.72 -35304.83,1579.54 -52998.34,1673.89 -176.54,8.41 -354.95,14.01 -535.23,14.01l-5257.05 0c-180.28,0 -358.69,-5.6 -536.17,-14.01 -17286.25,-93.41 -34539.81,-679.08 -51781.23,-1607.57 353.09,4540.61 -73.79,10199.32 -55.11,14243.92 32.69,7327.93 397.92,14821.19 963.98,22128.57 201.76,2599.57 719.25,6155.65 756.61,9196.11 2382.86,2100.77 4121.2,4951.61 4737.7,8028.5 682.82,3409.43 25.22,5059.96 -556.72,7865.96 266.22,747.27 642.65,1569.27 891.12,2263.3 939.69,2610.78 1605.7,5396.23 2074.61,8128.44 326,1903.67 460.51,3765.31 294.24,5548.49 131.71,147.59 263.41,299.84 392.32,457.7 2455.72,2990.02 3708.33,7075.72 3383.27,10926.04 -669.74,7964.98 -7121.49,11373.47 -13978.64,13271.54 -9448.31,2616.38 -20865.68,3798.01 -30626.91,4309.89 -12750.32,666.94 -26147.02,313.85 -38845.96,-880.85 -8367.57,-786.5 -17054.6,-2023.24 -25208.26,-4117.46 -7406.39,-1901.81 -12249.64,-4906.77 -14040.29,-12792.35 -1292.78,-5696.08 -1068.6,-13113.68 608.09,-18733.16 2199.78,-7370.9 7156.06,-13084.72 14260.74,-16080.34 5951.08,-2508.03 13214.56,-2990.95 19594.39,-2259.56 3078.76,352.15 6053.83,1011.62 8881.32,2062.47 481.99,-419.41 1004.15,-815.46 1563.67,-1184.42 180.28,-118.63 396.99,-246.6 591.28,-378.31 232.59,-580.07 423.14,-1306.79 595.01,-1876.58 1143.33,-3773.72 2369.78,-7249.47 5529.81,-9890.13 1036.84,-865.9 2204.45,-1557.13 3461.73,-2049.39 278.36,-108.35 549.24,-206.43 813.59,-295.17 -533.36,-5427.06 -1048.98,-10823.29 -1401.13,-16277.44 -495.07,-7644.58 -975.19,-15897.26 -709.91,-23543.71 25.22,-736.06 67.25,-1464.65 134.51,-2182.97 -9004.62,-844.42 -18001.76,-1777.57 -26981.16,-2789.19 -3447.72,-388.58 -7038.36,-736.06 -10454.32,-1334.81 -3335.63,-584.74 -6144.44,-1612.24 -8404,-4321.1 -3735.42,-4479.89 -2585.56,-10543.06 -2287.58,-15880.45 511.88,-9165.28 888.32,-18351.11 1489.87,-27509.86 144.78,-2190.44 286.77,-4402.36 672.54,-6471.37 -2409.95,-1469.32 -4647.09,-3317.88 -6659.12,-5083.31 -4436.92,-3890.48 -8631.92,-8267.62 -11786.34,-13279.01 -3175.9,-5045.95 -5451.34,-11017.58 -6534.89,-16880.86 -710.84,-3851.25 -642.65,-7008.47 -869.64,-10799.94 -127.04,-2114.78 -789.31,-4459.34 -1262.89,-6515.27 -1333.88,-5769.87 -2473.47,-11506.11 -3123.59,-17400.21 -899.53,-8147.12 -818.26,-16251.28 626.77,-24334.89 1000.41,-5598 2626.66,-11087.64 4883.42,-16309.19 243.8,-563.26 530.56,-1093.82 856.56,-1589.82 172.81,-587.54 401.66,-1170.41 686.56,-1743.94 1316.13,-2654.68 2798.53,-5225.29 4444.4,-7687.55 5394.36,-8063.99 12790.48,-15474.12 20282.81,-21580.26 4754.51,-3874.6 9734.14,-7350.35 15093.01,-10335.7 6041.69,-3365.52 12853.07,-6242.52 20027.8,-8704.78 -8709.45,-638.92 -17249.82,-1914.88 -24464.73,-3855.92 -8672.08,-2332.42 -16025.23,-6430.27 -22703.97,-12389.76 -12897.9,-11509.85 -19631.75,-27535.08 -24827.15,-43644.38 -2314.67,-7178.47 -6949.62,-20698.48 -12255.25,-26376.81 -2149.34,-2300.66 -4947.87,-2658.42 -7554.91,-4646.16 -795.84,-607.16 -1529.1,-1289.98 -2186.7,-2044.72 -4677.92,-5364.47 -8736.53,-22374.24 -9580.02,-29707.77 -1170.41,-10175.97 8773.9,-11840.51 15463.84,-13726.44 5205.68,-1497.34 10858.79,-2960.13 16497.88,-4184.72 -815.46,-1224.59 -1618.78,-2486.55 -2412.75,-3787.73 -1274.1,-2090.49 -2600.5,-4540.61 -3538.33,-6796.43 -4232.36,-10177.83 -6457.36,-18909.7 -6469.5,-30053.38 -3.74,-3648.55 1010.68,-7192.49 -1.87,-10629.93 -833.21,-2823.75 -3377.67,-6265.87 -4807.76,-8933.63 -5774.54,-10767.24 -6604.94,-16334.42 -8391.86,-28016.13 -1330.14,-8693.57 1387.12,-24531.05 4946.94,-32596.91 3415.96,-7739.86 7543.7,-15158.4 13082.85,-21592.4 3472.01,-4033.4 7150.45,-7077.59 10985.82,-10656.09 2097.96,-1958.78 3825.09,-3869 5314.03,-6339.66 2396.87,-3975.48 2550.06,-11911.5 3899.82,-16668.82 772.49,-2722.87 1388.06,-5514.86 2191.37,-8212.51 1129.31,-3791.47 2956.39,-7517.55 4650.83,-11083.9 2970.4,-6249.99 9602.44,-15476.92 14799.71,-20017.53 2331.49,-2036.31 4703.14,-4294.94 7148.58,-6179.93 2686.44,-2071.81 5837.12,-3938.12 8692.63,-5784.81 1224.59,-793.04 2350.17,-1520.7 3675.64,-2165.22l5898.77 -2872.32c107.42,-52.31 199.9,-95.28 309.18,-143.85 6509.67,-2904.08 8942.03,-3358.98 14539.1,-7930.42 2836.83,-2318.41 5398.1,-5579.31 8207.84,-8103.22 33.63,-30.82 68.19,-61.65 100.88,-94.34 524.02,-626.77 1020.96,-1190.96 1620.64,-1766.36 2568.74,-2462.26 5534.48,-4506.05 8455.37,-6521.81 995.74,-686.56 1736.47,-1407.67 2864.85,-2088.62 5582.12,-3371.13 10440.31,-5904.38 16612.77,-8141.52 5720.36,-2072.74 10751.37,-2737.82 16690.3,-3589.7 6968.3,-999.48 12036.67,-584.74 18921.84,99.01 8523.56,846.28 19943.74,4043.67 27542.55,7974.32 6708.63,3470.14 13149.17,8455.37 17357.24,14855.75 4207.14,-6400.38 10648.62,-11385.61 17357.24,-14855.75 7598.81,-3930.65 19018.05,-7128.03 27541.62,-7974.32 6885.17,-683.75 11954.47,-1098.49 18921.84,-99.01 5939.87,851.89 10970.88,1516.96 16691.24,3589.7 6171.53,2237.14 11030.66,4770.39 16612.77,8141.52 1127.45,680.95 1869.11,1402.07 2863.92,2088.62 2920.9,2015.76 5887.56,4059.55 8455.37,6521.81 600.62,575.4 1096.62,1139.59 1621.58,1766.36 32.69,32.69 66.32,63.52 99.95,94.34 2810.67,2523.91 5371.95,5784.81 8208.77,8103.22 5596.13,4571.43 8028.5,5026.33 14539.1,7930.42 108.35,48.57 200.83,91.54 308.25,143.85l5898.77 2872.32c1325.47,644.52 2451.98,1372.18 3676.57,2165.22 2854.58,1846.69 6005.26,3713 8692.63,5784.81 2445.45,1884.99 4816.16,4143.62 7148.58,6179.93 5196.34,4540.61 11828.37,13767.54 14799.71,20017.53 1694.44,3566.35 3521.52,7292.43 4649.9,11083.9 804.25,2697.65 1418.88,5489.64 2192.31,8212.51 1349.76,4757.32 1502.02,12693.34 3899.82,16668.82 1488.94,2470.67 3216.07,4380.88 5314.03,6339.66 3834.44,3578.5 7512.88,6622.69 10985.82,10656.09 5538.21,6434.01 9666.89,13852.54 13081.92,21592.4 3559.81,8065.86 6276.14,23902.4 4947.87,32595.97 -1785.98,11682.65 -2618.25,17249.82 -8391.86,28017.07 -1430.09,2667.76 -3974.55,6109.88 -4807.76,8933.63 -1013.49,3437.45 0.93,6981.38 -2.8,10629.93 -12.14,11143.68 -2237.14,19875.55 -6468.57,30053.38 -938.76,2255.83 -2264.23,4705.94 -3538.33,6796.43 -793.98,1301.19 -1597.29,2563.14 -2412.75,3787.73z"/>
   <path class="fil1" d="M306253.24 735165.45c5874.49,200.83 16500.68,-558.59 28597.14,-2804.14 12095.52,-2245.55 25660.36,-5976.3 36134.3,-9559.47 10472.07,-3583.17 17852.31,-7016.88 22089.34,-9262.43 4237.03,-2244.62 5328.98,-3301.07 5286.01,-6660.99 -43.9,-3358.98 -1223.66,-9021.43 -3604.65,-13125.82 -2381.93,-4104.39 -5965.09,-6651.65 -10520.65,-7401.72 -4555.55,-748.21 -10081.62,298.91 -14474.64,1902.74 -4393.95,1604.77 -7655.79,3766.25 -10088.16,6612.42 -2433.3,2847.1 -4039,6379.83 -4676.05,10299.27 -637.98,3918.5 -309.18,8222.79 -585.67,10635.54 -275.56,2414.62 -1158.27,2937.71 -3996.97,3929.71 -2837.76,992.94 -7631.51,2455.72 -13866.55,3758.77 -6235.98,1304.92 -13914.19,2450.12 -20103.46,3016.17 -6189.27,566.06 -10892.41,552.98 -13580.72,708.97 -2690.18,155.99 -3367.39,480.12 -3819.49,1412.34 -453.03,933.15 -681.89,2474.4 -233.52,3825.09 447.43,1351.63 1569.27,2511.77 7443.76,2713.53z"/>
   <path class="fil1" d="M165070.35 728920.13c-5664.32,1568.34 -16174.69,3313.21 -28460.76,3956.8 -12285.14,643.59 -26346.92,186.82 -37367.3,-850.02 -11020.38,-1035.9 -18998.44,-2650.01 -23642.73,-3842.84 -4644.29,-1191.9 -5952.95,-1964.39 -6696.48,-5241.17 -742.6,-3275.85 -919.14,-9056.93 437.15,-13605.01 1357.23,-4547.15 4245.43,-7861.29 8499.28,-9654.74 4253.84,-1792.52 9872.39,-2066.2 14518.55,-1532.84 4648.03,533.36 8323.67,1871.91 11354.79,4071.69 3031.12,2198.85 5417.72,5258.92 6953.36,8920.55 1535.64,3660.7 2222.2,7922.94 3054.47,10204.92 832.27,2281.98 1813.07,2584.62 4804.95,2885.4 2990.95,302.64 7993.93,604.36 14361.62,414.74 6367.69,-188.69 14101.01,-869.64 20251.05,-1765.43 6150.98,-896.73 10719.61,-2008.29 13370.55,-2485.61 2651.88,-477.32 3386.07,-319.46 4043.67,481.06 658.53,801.45 1240.47,2246.48 1120.91,3664.43 -118.63,1418.88 -938.76,2809.74 -6603.08,4378.08z"/>
   <path class="fil2" d="M348316.21 713521.67c799.58,-2834.03 1119.04,-8321.8 2193.24,-12233.76 1075.14,-3911.03 2903.15,-6245.32 3552.34,-7584.8 649.19,-1340.42 116.76,-1685.1 -1151.73,-2143.73 -1268.49,-457.7 -3273.05,-1030.3 -5071.17,-3344.97 -1798.12,-2313.74 -3387.94,-6371.42 -5353.26,-7345.68 -1965.32,-973.32 -4305.22,1136.79 -6887.97,2335.22 -2582.76,1198.44 -5409.31,1486.14 -7774.42,2352.04 -2366.05,866.83 -4272.52,2312.8 -4736.77,3982.96 -466.11,1672.02 510.01,3570.09 1827.08,5103.86 1317.07,1533.77 2976.01,2704.19 3730.75,3757.84 754.74,1053.65 604.36,1991.48 -305.45,2177.36 -909.8,186.82 -2579.95,-380.17 -4041.8,-1277.83 -1462.78,-897.66 -2718.2,-2128.79 -4265.98,-1987.74 -1546.85,141.98 -3387.01,1656.14 -5381.29,2461.32 -1996.15,806.12 -4147.36,903.26 -6118.28,298.91 -1970.93,-604.36 -3763.44,-1911.15 -5120.68,-3043.26 -1358.17,-1131.18 -2281.98,-2088.62 -3464.54,-1638.39 -1183.49,450.23 -2625.72,2307.2 -2555.67,4121.2 69.12,1815.87 1651.47,3588.77 2190.44,5444.81 538.97,1856.97 35.5,3796.14 -202.7,5975.37 -239.13,2179.23 -212.97,4597.59 -79.4,6615.22 133.57,2017.63 374.57,3633.61 1704.71,4394.89 1331.08,762.22 3750.37,669.74 7922.01,337.21 4169.77,-331.6 10090.03,-902.33 15410.6,-1651.47 5318.7,-749.14 10036.79,-1674.82 13374.29,-2357.64 3336.57,-681.89 5290.68,-1118.1 6908.52,-1426.35 1616.91,-308.25 2897.54,-488.53 3697.12,-3322.55z"/>
   <path class="fil2" d="M119113.17 717706.39c-1439.43,-2568.74 -3032.05,-7830.47 -4991.77,-11381.88 -1958.78,-3552.34 -4281.86,-5394.36 -5226.23,-6545.16 -944.36,-1150.8 -507.21,-1611.3 619.3,-2352.97 1125.58,-741.67 2941.45,-1766.36 4148.29,-4437.86 1208.71,-2669.63 1805.59,-6986.99 3488.82,-8392.79 1683.23,-1406.74 4450.93,98.08 7241.99,660.4 2791.99,561.39 5607.34,180.28 8109.76,469.85 2503.36,289.57 4694.73,1249.81 5536.35,2765.84 843.48,1516.03 339.07,3589.7 -583.81,5388.76 -922.88,1799.06 -2261.43,3325.36 -2749.02,4525.66 -487.59,1201.24 -122.37,2078.35 806.12,2045.66 928.48,-30.82 2419.29,-972.39 3630.8,-2186.7 1212.45,-1215.25 2145.6,-2705.12 3683.11,-2930.24 1537.51,-223.25 3680.31,819.2 5808.17,1135.85 2128.79,317.59 4243.57,-91.54 6018.34,-1139.59 1775.7,-1048.05 3212.33,-2737.82 4266.92,-4155.76 1056.45,-1417.01 1730.87,-2563.14 2986.28,-2402.48 1256.35,161.6 3091.83,1629.99 3447.72,3410.36 357.76,1781.31 -765.95,3874.6 -856.56,5806.3 -89.67,1931.7 851.89,3698.99 1592.62,5761.46 742.6,2063.4 1282.5,4421.04 1623.45,6414.39 341.88,1992.41 485.73,3620.53 -630.51,4671.38 -1115.3,1051.78 -3489.76,1527.24 -7623.1,2179.23 -4132.41,651.99 -10021.84,1480.53 -15369.5,1995.21 -5346.73,515.62 -10151.68,717.38 -13555.5,834.14 -3402.89,115.83 -5405.57,148.52 -7050.5,226.98 -1644,78.46 -2931.17,202.7 -4371.54,-2366.05z"/>
   <path class="fil3" d="M290095.37 636983.35c208.3,3497.23 2171.76,10448.72 4010.98,18809.75 1839.22,8361.97 3552.34,18130.67 4489.23,24259.23 935.96,6128.56 1095.69,8617.91 1611.3,9868.65 515.62,1251.68 1389.92,1266.62 2356.71,1686.03 966.78,420.34 2026.97,1244.21 3186.18,2204.45 1159.2,960.24 2416.49,2055.93 4361.26,2256.76 1944.77,201.76 4576.1,-491.33 5999.65,-1205.91 1422.62,-715.51 1636.52,-1450.64 1553.39,-2460.39 -84.07,-1008.82 -464.24,-2291.32 168.14,-3926.91 632.38,-1634.66 2277.31,-3621.46 5057.16,-5119.74 2779.85,-1497.34 6692.75,-2504.29 8526.36,-3649.49 1832.68,-1143.33 1586.08,-2423.96 1077.94,-6094 -508.14,-3669.1 -1277.83,-9728.54 -2622.92,-17510.43 -1345.09,-7780.96 -3264.64,-17285.32 -4593.85,-22078.13 -1329.21,-4791.88 -2066.2,-4870.34 -5029.14,-4450.93 -2962.93,419.41 -8150.86,1338.55 -13066.97,2060.6 -4916.11,722.05 -9560.4,1247.94 -12655.04,1530.97 -3093.7,283.03 -4640.55,323.19 -4430.38,3819.49z"/>
   <path class="fil3" d="M158551.34 635582.22c542.71,2522.97 114.89,7890.25 149.45,15311.59 34.56,7421.34 532.43,16896.74 994.8,22862.76 461.44,5965.09 888.32,8422.68 679.08,9759.36 -209.24,1337.62 -1054.59,1556.19 -1897.13,2190.44 -841.61,634.25 -1680.43,1682.29 -2582.76,2887.27 -902.33,1204.97 -1869.11,2564.07 -3713,3214.2 -1843.89,650.13 -4564.89,591.28 -6115.48,228.85 -1549.65,-362.43 -1929.83,-1028.43 -2084.89,-2028.84 -154.12,-1000.41 -83.13,-2337.09 -1081.68,-3778.39 -996.67,-1441.3 -3060.08,-2989.08 -6113.61,-3795.2 -3052.6,-806.12 -7093.47,-873.37 -9143.8,-1557.13 -2049.39,-684.69 -2108.24,-1985.87 -2472.53,-5673.66 -363.36,-3685.92 -1030.3,-9756.56 -1541.25,-17636.54 -510.01,-7880.91 -864.97,-17571.15 -693.09,-22541.44 172.81,-4970.29 870.57,-5218.76 3738.22,-4891.82 2869.52,326.93 7907.06,1232.06 12986.64,1923.29 5080.51,691.23 10203.05,1167.61 13520.01,1246.07 3316.95,77.53 4830.17,-244.73 5371.01,2279.18z"/>
   <path class="fil2" d="M221174.54 628116.98l2591.16 -1.87 87.8 0 2591.16 1.87 0 -11.21c25897.62,-125.17 52023.16,-1315.2 82287.64,-3571.02 21593.34,-1609.44 41300.75,-3696.19 51769.08,-4875.94 10467.4,-1177.89 11696.66,-1450.64 12227.23,-2084.89 528.69,-635.18 359.62,-1632.79 -42.97,-8843.02 -403.53,-7210.23 -1038.71,-20632.16 -1483.33,-27411.78 -445.56,-6779.62 -699.63,-6915.06 -1610.37,-7164.46 -911.67,-249.4 -2480.01,-611.83 -3920.37,-1337.62 -1441.3,-724.85 -2755.56,-1814 -3581.3,-3038.59 -826.67,-1224.59 -1164.81,-2584.62 -1715.92,-3083.43 -552.05,-497.87 -1314.26,-136.38 -2797.6,-431.55 -1483.33,-294.24 -3686.85,-1246.07 -5826.85,-2720.07 -2140.93,-1473.99 -4217.41,-3469.21 -5615.74,-5464.42 -1399.27,-1995.21 -2119.45,-3990.43 -2373.52,-5214.09 -254.07,-1224.59 -42.03,-1678.56 -84.07,-2018.57 -42.97,-340.01 -340.01,-566.99 -911.67,-883.65 -572.6,-318.52 -1420.75,-726.72 -2777.05,-2585.56 -1194.7,-1638.39 -2785.45,-4403.3 -3870.87,-6527.41 -36773.22,6008.99 -73323.19,8902.8 -109672.33,9001.82l0 -4.67 -2635.07 7.47 -2635.07 -7.47 0 4.67c-36349.14,-99.01 -72898.18,-2992.82 -109671.4,-9001.82 -1085.41,2124.12 -2677.1,4889.02 -3871.8,6527.41 -1356.3,1858.84 -2203.52,2267.03 -2776.11,2585.56 -571.66,316.66 -869.64,543.64 -911.67,883.65 -42.03,340.01 170,793.98 -85,2018.57 -254.07,1223.66 -974.25,3218.87 -2373.52,5214.09 -1397.4,1995.21 -3474.81,3990.43 -5614.81,5464.42 -2140,1473.99 -4344.45,2425.83 -5827.78,2720.07 -1483.33,295.17 -2245.55,-66.32 -2796.66,431.55 -551.11,498.8 -890.19,1858.84 -1715.92,3083.43 -826.67,1224.59 -2140.93,2313.74 -3581.3,3038.59 -1441.3,725.79 -3009.63,1088.21 -3921.31,1337.62 -910.74,249.4 -1164.81,384.84 -1609.44,7164.46 -445.56,6779.62 -1080.74,20201.54 -1484.27,27411.78 -402.59,7210.23 -571.66,8207.84 -42.03,8843.02 529.63,634.25 1758.89,907 12227.23,2084.89 10468.34,1179.75 30174.81,3266.51 51768.15,4875.94 30265.42,2255.83 56390.02,3445.85 82287.64,3571.02l0 11.21z"/>
   <path class="fil1" d="M394742.3 464738.26c-1099.42,-2219.4 -2356.71,-4414.5 -3790.53,-6558.24 -5064.63,-7572.66 -12312.23,-14510.14 -18266.11,-19363.67 -5954.82,-4851.66 -10599.11,-7654.86 -13625.56,-9340.89 -14404.59,-8023.83 -37520.49,-14560.58 -65325.52,-18654.69 -8390.92,14448.49 -36400.52,25150.35 -69924.97,25545.47 -33523.52,-395.12 -61534.05,-11096.98 -69924.97,-25545.47 -27804.09,4094.11 -50920.93,10630.87 -65324.58,18654.69 -3027.38,1686.03 -7671.67,4489.23 -13626.49,9340.89 -5953.88,4853.53 -13201.48,11791.01 -18266.11,19363.67 -1433.83,2143.73 -2691.11,4338.84 -3790.53,6558.24 1203.11,246.6 2526.71,549.24 3978.29,912.61 6330.32,1585.15 15067.79,4336.98 19808.29,5933.33 785.57,263.41 1459.98,495.07 2042.85,703.37 1083.54,-2714.46 2525.78,-5073.97 3728.88,-6784.29 1292.78,-1836.42 2310,-2924.63 3008.7,-3559.81 699.63,-634.25 1081.68,-816.39 763.15,4081.04 -317.59,4898.36 -1334.81,14873.5 -1737.41,19930.66 -402.59,5056.22 -190.55,5191.67 1186.29,5282.27 1377.78,90.61 3921.31,136.38 7035.56,861.23 3115.19,725.79 6802.04,2132.53 9937.77,3924.11 3136.67,1790.65 5722.23,3967.08 7798.71,6098.67 2077.41,2130.66 3644.82,4216.48 4259.45,6325.65 614.63,2108.24 276.49,4239.83 -466.11,6484.45 -741.67,2244.62 -1885.93,4602.26 -3073.15,6257.46 -1186.29,1656.14 -2415.55,2607.98 -3835.37,3016.17 -1419.82,408.2 -3029.25,272.75 -4365,-23.35 -1334.81,-294.24 -2394.07,-747.27 -2818.15,-680.02 -423.14,68.19 -212.04,657.6 721.12,1587.02 932.22,930.35 2584.62,2198.85 4470.55,3627.07 1885.93,1429.16 4004.44,3016.17 5403.71,4217.41 996.67,855.63 1626.25,1516.96 1983.07,2161.48 36740.52,5842.73 73779.96,8634.72 111101.49,8570.27 37321.53,64.45 74361.9,-2727.54 111101.49,-8570.27 357.76,-644.52 987.33,-1305.86 1984.01,-2161.48 1398.33,-1201.24 3516.85,-2788.26 5402.77,-4217.41 1885.93,-1428.22 3539.26,-2696.72 4471.48,-3627.07 932.22,-929.42 1144.26,-1518.83 720.18,-1587.02 -424.08,-67.25 -1482.4,385.78 -2817.21,680.02 -1335.75,296.11 -2946.12,431.55 -4365.93,23.35 -1419.82,-408.2 -2649.08,-1360.03 -3834.44,-3016.17 -1187.23,-1655.21 -2332.42,-4012.85 -3074.09,-6257.46 -741.67,-2244.62 -1080.74,-4376.21 -466.11,-6484.45 614.63,-2109.17 2182.97,-4194.99 4259.45,-6325.65 2076.48,-2131.59 4662.04,-4308.02 7798.71,-6098.67 3136.67,-1791.58 6822.59,-3198.32 9937.77,-3924.11 3115.19,-724.85 5657.78,-770.62 7035.56,-861.23 1376.85,-90.61 1588.89,-226.05 1186.29,-5282.27 -402.59,-5057.16 -1419.82,-15032.3 -1737.41,-19930.66 -317.59,-4897.43 64.45,-4715.28 763.15,-4081.04 698.7,635.18 1715.92,1723.39 3008.7,3559.81 1203.11,1710.32 2645.34,4069.83 3728.88,6784.29 582.87,-208.3 1257.28,-439.96 2042.85,-703.37 4741.44,-1596.36 13478.91,-4348.18 19808.29,-5933.33 1451.57,-363.36 2775.18,-666.01 3978.29,-912.61z"/>
   <path class="fil4" d="M364951.4 498560.69c-1907.41,-294.24 -4917.04,-656.66 -7861.29,-89.67 -2946.12,566.99 -5828.72,2063.4 -8731.86,4035.26 -2902.21,1972.8 -5826.85,4421.98 -7458.7,6008.06 -1631.85,1587.95 -1969.99,2313.74 -1503.88,3469.21 466.11,1156.4 1736.47,2744.35 3496.3,3333.76 1758.89,589.41 4004.44,181.21 5890.37,-385.78 1885.93,-566.99 3412.23,-1292.78 5192.6,-1178.82 1779.44,113.96 3813.89,1064.86 4682.59,2085.82 868.7,1020.96 571.66,2108.24 -317.59,4126.81 -890.19,2017.63 -2373.52,4964.68 -4810.56,7504.47 -2437.04,2539.79 -5827.78,4671.38 -7989.26,6190.21 -2160.55,1519.76 -3093.7,2424.9 -3156.29,3627.07 -64.45,1202.17 741.67,2698.58 1440.37,4012.85 699.63,1316.13 1291.85,2450.12 2182.97,2971.34 889.25,521.22 2075.55,430.62 3792.4,-295.17 1716.86,-725.79 3962.41,-2085.82 6505.93,-3809.22 2542.59,-1722.46 5382.22,-3808.28 7607.22,-5442 2225,-1632.79 3835.37,-2810.67 4704.07,-2788.26 869.64,22.42 995.74,1246.07 -232.59,3174.03 -1229.26,1927.96 -3814.82,4557.42 -6717.97,7142.98 -2903.15,2583.69 -6123.89,5123.48 -8412.41,6709.56 -2288.52,1587.95 -3644.82,2223.13 -3729.82,3333.76 -84.07,1111.57 1102.23,2698.58 2373.52,4150.16 1271.3,1450.64 2627.59,2765.84 4005.37,3331.9 1377.78,567.93 2775.18,384.84 5891.3,-1564.6 3115.19,-1949.44 7945.36,-5668.05 11082.03,-8388.12 3136.67,-2721 4577.04,-4444.4 5425.19,-4898.36 847.22,-453.03 1101.29,363.36 889.25,1564.6 -212.04,1202.17 -889.25,2789.19 -2500.56,4807.76 -1610.37,2017.63 -4152.96,4466.81 -6272.41,6279.88 -2119.45,1814 -3813.89,2992.82 -4216.48,4194.99 -402.59,1201.24 487.59,2424.9 1652.4,3514.04 1165.74,1089.15 2607.04,2040.05 4683.52,1541.25 2076.48,-497.87 4789.07,-2448.25 8074.27,-5328.04 3283.32,-2879.8 7140.18,-6688.08 9895.74,-11064.28 2753.69,-4376.21 4407.97,-9318.47 5149.63,-13331.32 740.73,-4013.78 571.66,-7097.21 720.18,-9568.81 147.59,-2470.67 613.7,-4330.44 1503.88,-8185.42 890.19,-3854.05 2204.45,-9703.32 2924.63,-16234.47 720.18,-6529.28 847.22,-13739.52 -529.63,-21448.55 -822,-4594.78 -2177.36,-9367.98 -4211.81,-14077.66 -2039.12,440.89 -4439.73,992.94 -7187.82,1758.89 -6267.74,1747.68 -14336.4,4601.32 -18994.7,5825.91 655.73,2378.19 1054.59,4972.16 1214.32,7784.7 212.04,3741.03 0,7867.83 -508.14,10657.02 -508.14,2789.19 -1314.26,4239.83 -2119.45,4851.66 -805.18,612.76 -1610.37,385.78 -3516.85,90.61z"/>
   <path class="fil4" d="M82668.75 498560.69c1907.41,-294.24 4916.11,-656.66 7861.29,-89.67 2945.18,566.99 5827.78,2063.4 8730.93,4035.26 2903.15,1972.8 5826.85,4421.98 7458.7,6008.06 1631.85,1587.95 1970.93,2313.74 1503.88,3469.21 -465.18,1156.4 -1736.47,2744.35 -3496.3,3333.76 -1757.96,589.41 -4004.44,181.21 -5890.37,-385.78 -1885.93,-566.99 -3412.23,-1292.78 -5191.67,-1178.82 -1779.44,113.96 -3814.82,1064.86 -4683.52,2085.82 -868.7,1020.96 -571.66,2108.24 317.59,4126.81 891.12,2017.63 2374.45,4964.68 4810.56,7504.47 2437.04,2539.79 5827.78,4671.38 7989.26,6190.21 2161.48,1519.76 3093.7,2424.9 3157.22,3627.07 63.52,1202.17 -741.67,2698.58 -1441.3,4012.85 -698.7,1316.13 -1291.85,2450.12 -2182.03,2971.34 -890.19,521.22 -2076.48,430.62 -3793.34,-295.17 -1715.92,-725.79 -3962.41,-2085.82 -6505,-3809.22 -2543.52,-1722.46 -5382.22,-3808.28 -7608.16,-5442 -2225,-1632.79 -3835.37,-2810.67 -4704.07,-2788.26 -868.7,22.42 -995.74,1246.07 233.52,3174.03 1228.33,1927.96 3814.82,4557.42 6717.97,7142.98 2902.21,2583.69 6123.89,5123.48 8412.41,6709.56 2288.52,1587.95 3643.88,2223.13 3728.88,3333.76 85,1111.57 -1101.29,2698.58 -2373.52,4150.16 -1271.3,1450.64 -2627.59,2765.84 -4004.44,3331.9 -1377.78,567.93 -2776.11,384.84 -5892.23,-1564.6 -3114.25,-1949.44 -7945.36,-5668.05 -11082.03,-8388.12 -3135.74,-2721 -4577.04,-4444.4 -5424.26,-4898.36 -848.15,-453.03 -1102.23,363.36 -890.19,1564.6 212.04,1202.17 890.19,2789.19 2500.56,4807.76 1611.3,2017.63 4153.89,4466.81 6272.41,6279.88 2119.45,1814 3813.89,2992.82 4216.48,4194.99 402.59,1201.24 -486.66,2424.9 -1652.4,3514.04 -1165.74,1089.15 -2606.11,2040.05 -4682.59,1541.25 -2077.41,-497.87 -4789.07,-2448.25 -8074.27,-5328.04 -3284.26,-2879.8 -7141.11,-6688.08 -9895.74,-11064.28 -2754.63,-4376.21 -4407.97,-9318.47 -5149.63,-13331.32 -741.67,-4013.78 -571.66,-7097.21 -720.18,-9568.81 -148.52,-2470.67 -613.7,-4330.44 -1504.82,-8185.42 -889.25,-3854.05 -2203.52,-9703.32 -2923.7,-16234.47 -721.12,-6529.28 -848.15,-13739.52 529.63,-21448.55 821.06,-4594.78 2176.43,-9367.98 4210.87,-14077.66 2039.12,440.89 4440.66,992.94 7187.82,1758.89 6268.67,1747.68 14336.4,4601.32 18995.64,5825.91 -656.66,2378.19 -1055.52,4972.16 -1215.25,7784.7 -212.04,3741.03 0,7867.83 508.14,10657.02 509.08,2789.19 1314.26,4239.83 2119.45,4851.66 805.18,612.76 1611.3,385.78 3517.78,90.61z"/>
   <path class="fil5" d="M433464.03 181618.67c-1627.18,10642.08 -1828.95,14547.5 -7308.31,24768.31 -1873.78,3493.49 -4370.6,6701.15 -5594.26,10852.25 -1739.27,5895.97 -410.07,7579.2 -416.6,13476.1 -10.27,10193.71 -2090.49,17516.04 -5693.27,26183.45 -611.83,1472.12 -1989.61,4027.79 -2835.89,5415.85 -7544.64,12372.94 -15953.31,20918.92 -30041.24,29047.37 -3647.62,2103.57 -7740.8,3960.54 -11953.54,5607.34 -4555.55,1782.24 -8588.95,2752.76 -13046.42,4394.89 -12110.46,4458.41 -13731.11,6354.61 -21066.51,13233.24 -1698.17,1592.62 -2346.43,2681.77 -4231.42,4250.11 -7484.86,6221.97 -18418.37,11865.73 -28936.21,14485.85 -7917.34,1971.86 -6628.3,1712.19 -15055.65,3049.8 -18082.1,3072.22 -31901.94,824.8 -41054.15,-6521.81 871.51,-2410.88 1346.96,-5003.92 1346.96,-7709.04 0,-12716.69 -10496.36,-23027.16 -23443.77,-23027.16 -12946.47,0 -23443.77,10310.48 -23443.77,23027.16 0,3065.68 611.83,5989.38 1717.79,8664.61 -9141.93,6582.53 -22527.43,8501.14 -39801.53,5566.24 -8428.29,-1337.62 -7138.31,-1077.94 -15055.65,-3049.8 -10518.78,-2620.12 -21451.36,-8263.89 -28937.14,-14485.85 -1884.99,-1568.34 -2533.25,-2657.48 -4231.42,-4250.11 -7335.4,-6878.63 -8956.05,-8774.83 -21066.51,-13233.24 -4457.47,-1642.13 -8490.87,-2612.65 -13044.55,-4394.89 -4214.61,-1646.8 -8305.92,-3503.77 -11954.47,-5607.34 -14088.87,-8128.44 -22496.6,-16674.42 -30042.17,-29047.37 -846.28,-1388.06 -2224.07,-3943.72 -2835.89,-5415.85 -3602.78,-8667.41 -5683,-15989.74 -5693.27,-26183.45 -6.54,-5896.9 1323.6,-7580.13 -416.6,-13476.1 -1223.66,-4151.09 -3720.48,-7358.75 -5593.33,-10852.25 -5480.3,-10220.8 -5682.06,-14126.23 -7309.25,-24768.31 -1073.27,-7021.55 1602.9,-21094.53 4203.4,-26987.7 11234.29,-25459.53 21135.63,-24750.56 28793.3,-37451.37 3702.73,-6140.7 3523.38,-14041.23 4967.49,-19128.28 2638.8,-9298.86 1333.88,-7379.3 6247.19,-17715.93 2177.36,-4583.58 8087.34,-13046.42 12318.77,-16743.55 8098.55,-7073.86 5062.76,-4869.41 14681.08,-11090.44 905.13,-585.67 1599.16,-1067.66 2611.71,-1565.53l5899.71 -2872.32c7911.73,-3528.99 9678.1,-3501.9 16816.41,-9334.35 2700.45,-2204.45 5807.23,-5929.6 8568.4,-8411.47 1208.71,-1084.48 1062.06,-1221.79 1961.59,-2083.95 2058.73,-1973.73 4920.78,-3923.17 7200.89,-5498.05 1104.09,-762.22 1150.8,-1031.23 2349.23,-1755.15 5184.19,-3131.07 8732.8,-5080.51 14832.4,-7290.57 5195.4,-1884.06 9218.52,-2305.33 14682.01,-3087.16 6490.05,-931.29 10116.18,-481.99 16487.61,151.32 7215.84,716.45 17658.02,3664.43 23896.8,6894.51 4669.51,2415.55 11195.99,6816.98 14566.18,13125.82 4433.19,6303.23 9307.26,7260.67 14869.76,0 3370.19,-6308.84 9896.67,-10710.27 14566.18,-13125.82 6238.78,-3230.08 16682.83,-6178.07 23896.8,-6894.51 6373.29,-633.31 9999.42,-1082.61 16487.61,-151.32 5463.49,781.83 9488.48,1203.11 14682.01,3087.16 6099.6,2210.05 9648.21,4159.5 14832.4,7290.57 1198.44,723.92 1245.14,992.94 2349.23,1755.15 2280.11,1574.87 5143.09,3524.32 7201.83,5498.05 899.53,862.16 753.81,999.48 1960.65,2083.95 2761.17,2481.87 5868.88,6207.02 8568.4,8411.47 7138.31,5832.45 8904.67,5805.36 16816.41,9334.35l5900.64 2872.32c1009.75,497.87 1705.65,979.86 2610.78,1565.53 9618.32,6221.03 6582.53,4016.58 14682.01,11090.44 4231.42,3697.12 10140.47,12159.97 12318.77,16743.55 4912.37,10336.63 3609.32,8417.08 6247.19,17715.93 1445.04,5087.05 1264.76,12987.57 4966.55,19128.28 7657.66,12700.81 17559.01,11991.84 28793.3,37451.37 2601.44,5893.17 5276.67,19966.15 4203.4,26987.7z"/>
   <path class="fil2" d="M282844.97 30346.69c-5011.39,-1322.67 -13867.49,1.87 -18272.65,1503.88 -10202.12,3477.61 -17091.96,10395.48 -18500.57,19396.36 -504.41,3224.48 -211.1,13600.34 709.91,16389.53 2046.59,6202.35 8908.41,4013.78 13272.47,1503.88 2286.65,-1314.26 4042.74,-2410.88 6073.45,-3726.08 5179.52,-3356.18 12699.87,-10720.54 19991.37,-7346.61 8276.96,3829.77 6505,11569.63 1613.17,17406.75 -1772.9,2115.71 -2831.22,3001.23 -4861.93,4731.16 -3592.51,3061.94 -7349.41,5067.43 -12404.7,6927.2 -12646.63,4653.63 -22930.02,2939.58 -24472.2,14101.01 -399.79,2895.68 388.58,5567.17 21.48,8758.02 -793.04,6885.17 -2038.18,17558.07 1176.02,23538.11 5981.91,11129.67 21822.19,2657.48 32529.65,4119.33 12171.18,1660.81 22547.98,4654.57 30243,9722.93 6770.28,4458.41 10402.02,8141.52 16150.4,12921.25 5525.14,4594.78 15275.16,7438.15 22911.34,4038.07 6064.11,-2700.45 9448.31,-6247.19 12406.57,-11303.41 3461.73,-5917.45 6008.06,-9947.11 15113.56,-7058.91 11299.68,3583.17 4107.19,13287.42 6076.25,18831.24 2846.17,8014.48 18240.89,12895.1 11526.66,21583.06 -2167.09,2805.07 -7742.66,6324.72 -13826.39,4224.88 -7361.56,-2539.79 -12128.21,-13150.11 -28932.47,-6509.67 -5222.49,2063.4 -8825.27,3895.15 -13325.71,6161.25 -2791.99,1405.8 -11135.28,5525.14 -15261.15,3690.59 -3755.97,-1669.22 -6375.16,-6663.79 -8492.74,-10472.07 -2280.11,-4104.39 -3995.1,-7849.15 -7088.8,-11308.08 -3037.66,-3394.48 -4005.37,-4090.38 -7498.87,-6941.22 -7293.37,-5951.08 -26028.39,-10807.41 -36351.01,-8593.62 -5331.78,1144.26 -9393.2,3294.53 -12430.86,6881.43 -6256.53,7390.51 -4768.52,19572.9 -4768.52,30207.51 0,3892.35 -534.3,13951.55 426.88,16974.27 1899.94,5975.37 6837.53,4764.79 13516.27,3805.48 6512.47,-935.02 11643.42,-2000.82 14498,-5243.04 4031.53,-4577.97 2183.9,-8480.59 1636.52,-13855.34 -510.01,-5012.32 -793.98,-10640.21 6068.78,-12414.98 2827.49,-731.39 6284.55,-1175.08 9098.96,-155.99 7572.66,2740.62 6636.7,12148.76 9343.69,17859.78 6283.62,13262.2 29267.81,15901.93 42205.88,8073.33 4484.56,-2712.59 7472.71,-6369.55 10955,-8467.52 5609.2,-3377.67 10026.51,-3150.68 15086.47,293.3 13565.78,9235.34 -17244.22,17426.37 -3137.61,36887.18 3186.18,4394.89 2.8,8590.82 -5833.39,10227.34 -6528.35,1829.88 -9878.93,-309.18 -14411.13,-3960.54 -11588.31,-9337.15 -29144.51,-10265.64 -43647.18,-15475.05 -11281.93,-4052.08 -12230.96,-4107.19 -22756.28,930.35 -10313.28,4936.66 -15845.89,2782.65 -24354.5,5483.1 -12629.82,4010.04 -9355.84,17130.26 -8990.61,25944.32l294.24 17163.89c-5.6,11443.53 -753.81,21527.95 5555.03,29894.59 10337.56,13711.49 38391.06,10501.03 54106.17,2964.8 2648.14,-1269.43 3976.42,-2265.17 6001.52,-3459.87 7946.3,-4690.06 25299.8,-26256.31 11446.33,-33928.92 -7786.57,-4310.82 -21281.35,-1856.97 -23852.9,6214.49 -2009.23,6310.71 -4541.54,18115.72 -13206.15,19316.03 -2833.09,392.32 -6141.64,-577.27 -7928.55,-1584.22 -5079.58,-2863.92 -3826.96,-7727.72 -1508.55,-12184.26 5045.95,-9699.58 -2653.75,-11507.04 -10230.14,-15450.77 -6557.31,-3413.16 -13648.91,-9405.34 -8254.55,-16255.02 1459.98,-1854.17 2828.42,-3103.04 5686.73,-4055.81 7003.8,-2335.22 13576.05,4515.39 22692.76,6410.65 9304.46,1935.43 19316.03,-5597.06 33948.53,-4988.04 5165.51,215.77 11380.94,2055 14893.12,4756.38 2125.99,1634.66 3519.65,2528.58 5293.48,4367.8 1980.27,2053.13 2555.67,2816.28 4073.56,5398.1 2021.37,3437.45 4603.19,8897.2 7133.64,11263.25 4727.42,4419.18 10129.26,2040.98 14618.49,-453.03 5263.59,-2925.57 9580.95,-6383.56 13843.2,-10107.78 10568.28,-9235.34 16604.37,-20820.85 16616.51,-33853.26 10.27,-9783.65 -3922.24,-12375.75 141.98,-22930.95 1938.23,-5034.74 7791.24,-9426.83 10446.85,-17318.01 3616.79,-10746.69 3352.45,-19115.2 -139.18,-30034.7 -3825.09,-11959.14 -11865.73,-19070.36 -21924.94,-25311.95 -2246.48,-1393.66 -4020.32,-2276.38 -5709.15,-3700.86 -3197.39,-2696.72 -6002.46,-6430.27 -6632.03,-11686.39 -987.33,-8253.61 6474.17,-22785.23 -11184.78,-40546.94 -1784.11,-1794.39 -3161.89,-3223.54 -4806.82,-4790.94 -13402.31,-12769.93 -14114.09,-1683.23 -18564.09,7806.18 -988.27,2106.37 -1829.88,3811.08 -2976.01,5942.67 -7920.14,14730.58 837.88,14725.91 7075.72,23732.4 2694.85,3892.35 4661.1,8138.72 4873.14,13579.79 222.31,5695.14 -2580.89,9253.09 -8962.58,9937.77 -7434.41,798.65 -8720.66,-3537.4 -11362.26,-7746.4 -5840.86,-9310.07 -14934.22,-12735.37 -27440.73,-9849.04 -7970.58,1840.16 -7931.35,3046.06 -17372.19,1705.65 -5928.66,-841.61 -10045.19,-3259.04 -10943.79,-8159.27 -1011.62,-5515.8 3384.2,-8158.33 8705.71,-9386.66 9754.69,-2252.09 14293.43,-3109.58 21882.9,-8161.14 1498.28,-995.74 3898.89,-2587.43 5346.73,-3998.84 3411.29,-3324.42 5786.68,-5578.38 8573.07,-10089.1 5493.38,-8895.33 6871.16,-19139.48 2089.56,-28244.98 -4149.22,-7897.72 -11063.35,-13716.16 -19717.69,-18051.27 -8231.19,-4124 -10515.04,-3054.47 -15654.4,-4409.83z"/>
   <path class="fil2" d="M167045.95 30346.69c5011.39,-1322.67 13867.49,1.87 18272.65,1503.88 10201.19,3477.61 17091.96,10395.48 18499.63,19396.36 505.34,3224.48 211.1,13600.34 -708.97,16389.53 -2047.52,6202.35 -8909.34,4013.78 -13272.47,1503.88 -2286.65,-1314.26 -4043.67,-2410.88 -6074.38,-3726.08 -5178.59,-3356.18 -12699.87,-10720.54 -19991.37,-7346.61 -8276.03,3829.77 -6504.06,11569.63 -1613.17,17406.75 1772.9,2115.71 2831.22,3001.23 4861.93,4731.16 3592.51,3061.94 7350.35,5067.43 12404.7,6927.2 12646.63,4653.63 22930.02,2939.58 24473.13,14101.01 398.86,2895.68 -388.58,5567.17 -21.48,8758.02 792.11,6885.17 2038.18,17558.07 -1176.02,23538.11 -5982.84,11129.67 -21822.19,2657.48 -32530.59,4119.33 -12171.18,1660.81 -22547.98,4654.57 -30242.07,9722.93 -6771.21,4458.41 -10402.95,8141.52 -16150.4,12921.25 -5526.07,4594.78 -15275.16,7438.15 -22912.27,4038.07 -6064.11,-2700.45 -9447.38,-6247.19 -12405.64,-11303.41 -3462.67,-5917.45 -6008.06,-9947.11 -15113.56,-7058.91 -11300.61,3583.17 -4107.19,13287.42 -6076.25,18831.24 -2846.17,8014.48 -18241.83,12895.1 -11527.59,21583.06 2168.02,2805.07 7743.6,6324.72 13827.32,4224.88 7361.56,-2539.79 12127.28,-13150.11 28931.54,-6509.67 5222.49,2063.4 8826.21,3895.15 13325.71,6161.25 2792.93,1405.8 11135.28,5525.14 15261.15,3690.59 3755.97,-1669.22 6376.09,-6663.79 8491.8,-10472.07 2281.05,-4104.39 3996.97,-7849.15 7090.67,-11308.08 3037.66,-3394.48 4005.37,-4090.38 7498.87,-6941.22 7293.37,-5951.08 26027.46,-10807.41 36350.08,-8593.62 5332.71,1144.26 9393.2,3294.53 12430.86,6881.43 6257.46,7390.51 4769.46,19572.9 4769.46,30207.51 0,3892.35 533.36,13951.55 -427.81,16974.27 -1899,5975.37 -6837.53,4764.79 -13515.33,3805.48 -6512.47,-935.02 -11643.42,-2000.82 -14498.93,-5243.04 -4030.59,-4577.97 -2182.97,-8480.59 -1635.59,-13855.34 510.01,-5012.32 793.04,-10640.21 -6069.71,-12414.98 -2826.55,-731.39 -6284.55,-1175.08 -9098.96,-155.99 -7571.73,2740.62 -6636.7,12148.76 -9342.76,17859.78 -6283.62,13262.2 -29267.81,15901.93 -42205.88,8073.33 -4485.5,-2712.59 -7473.65,-6369.55 -10955.93,-8467.52 -5608.27,-3377.67 -10025.58,-3150.68 -15086.47,293.3 -13565.78,9235.34 17245.15,17426.37 3137.61,36887.18 -3186.18,4394.89 -2.8,8590.82 5834.32,10227.34 6527.41,1829.88 9877.99,-309.18 14410.19,-3960.54 11588.31,-9337.15 29144.51,-10265.64 43647.18,-15475.05 11281.93,-4052.08 12231.9,-4107.19 22756.28,930.35 10313.28,4936.66 15846.82,2782.65 24354.5,5483.1 12630.75,4010.04 9355.84,17130.26 8990.61,25944.32l-293.3 17163.89c4.67,11443.53 753.81,21527.95 -5555.03,29894.59 -10338.5,13711.49 -38391.99,10501.03 -54107.11,2964.8 -2648.14,-1269.43 -3976.42,-2265.17 -6000.59,-3459.87 -7946.3,-4690.06 -25300.74,-26256.31 -11446.33,-33928.92 7786.57,-4310.82 21281.35,-1856.97 23851.96,6214.49 2010.16,6310.71 4542.48,18115.72 13207.09,19316.03 2833.09,392.32 6141.64,-577.27 7927.61,-1584.22 5080.51,-2863.92 3827.9,-7727.72 1508.55,-12184.26 -5045.02,-9699.58 2654.68,-11507.04 10231.08,-15450.77 6557.31,-3413.16 13647.98,-9405.34 8254.55,-16255.02 -1459.98,-1854.17 -2829.36,-3103.04 -5686.73,-4055.81 -7004.73,-2335.22 -13576.05,4515.39 -22692.76,6410.65 -9305.4,1935.43 -19316.96,-5597.06 -33948.53,-4988.04 -5165.51,215.77 -11380.94,2055 -14894.05,4756.38 -2125.05,1634.66 -3519.65,2528.58 -5293.48,4367.8 -1979.33,2053.13 -2555.67,2816.28 -4073.56,5398.1 -2020.43,3437.45 -4602.26,8897.2 -7133.64,11263.25 -4726.49,4419.18 -10128.33,2040.98 -14617.56,-453.03 -5264.53,-2925.57 -9581.89,-6383.56 -13844.13,-10107.78 -10568.28,-9235.34 -16603.43,-20820.85 -16616.51,-33853.26 -9.34,-9783.65 3922.24,-12375.75 -141.05,-22930.95 -1939.17,-5034.74 -7791.24,-9426.83 -10446.85,-17318.01 -3616.79,-10746.69 -3352.45,-19115.2 139.18,-30034.7 3825.09,-11959.14 11865.73,-19070.36 21924,-25311.95 2246.48,-1393.66 4021.25,-2276.38 5709.15,-3700.86 3197.39,-2696.72 6002.46,-6430.27 6632.03,-11686.39 987.33,-8253.61 -6474.17,-22785.23 11184.78,-40546.94 1784.11,-1794.39 3162.83,-3223.54 4806.82,-4790.94 13402.31,-12769.93 14115.02,-1683.23 18565.02,7806.18 988.27,2106.37 1829.88,3811.08 2975.07,5942.67 7920.14,14730.58 -836.94,14725.91 -7074.79,23732.4 -2695.78,3892.35 -4661.1,8138.72 -4874.08,13579.79 -222.31,5695.14 2581.82,9253.09 8963.52,9937.77 7434.41,798.65 8720.66,-3537.4 11361.33,-7746.4 5841.79,-9310.07 14934.22,-12735.37 27441.67,-9849.04 7969.65,1840.16 7930.42,3046.06 17372.19,1705.65 5927.73,-841.61 10045.19,-3259.04 10943.79,-8159.27 1011.62,-5515.8 -3384.2,-8158.33 -8706.64,-9386.66 -9754.69,-2252.09 -14293.43,-3109.58 -21881.97,-8161.14 -1498.28,-995.74 -3899.82,-2587.43 -5346.73,-3998.84 -3411.29,-3324.42 -5786.68,-5578.38 -8573.07,-10089.1 -5494.31,-8895.33 -6871.16,-19139.48 -2089.56,-28244.98 4148.29,-7897.72 11062.42,-13716.16 19716.75,-18051.27 8232.13,-4124 10515.97,-3054.47 15655.33,-4409.83z"/>
   <path class="fil1" d="M292060.69 271909.59c6363.95,-859.36 22176.21,-724.85 29200.56,-877.11l20100.66 214.84c9030.77,647.32 12974.5,183.08 23693.17,1416.08 1613.17,184.95 3226.34,377.37 4840.45,554.85 2159.61,237.26 3038.59,636.11 4787.21,890.19 1644.93,239.13 3550.47,279.29 5153.37,599.69l24018.23 4386.48c7329.8,1020.96 20160.44,4004.44 27681.73,6167.79 1232.06,354.95 8312.46,2030.71 8217.18,2858.31 -689.36,5989.38 -4575.17,21259.87 -7156.99,24220.93 -3550.47,4071.69 -11824.63,-1147.06 -23999.55,36606.02 -4719.95,14639.04 -10703.73,29182.81 -21935.21,39206.52 -5413.98,4830.17 -11315.55,8210.64 -18600.52,10170.36 -14011.34,3769.98 -35529.01,4921.72 -50836.86,3160.02 -15801.05,-1817.74 -28849.34,-6515.27 -38911.35,-13082.85 -9906.95,-6465.76 -18059.68,-15026.69 -23578.28,-25546.4 -2711.66,-5170.18 -5458.82,-10426.3 -7479.25,-16046.72 -2661.22,-7398.92 -3507.5,-10266.57 -5589.59,-17839.23 -2894.74,-10526.25 -2281.98,-19599.06 -9211.99,-25810.75 -3928.78,-3284.26 -11644.35,-3349.64 -15017.35,0 -6929.07,6211.69 -6317.24,15284.5 -9211.05,25810.75 -2082.08,7572.66 -2928.37,10440.31 -5589.59,17839.23 -2021.37,5620.41 -4767.59,10876.53 -7479.25,16046.72 -5518.6,10519.71 -13671.33,19080.64 -23578.28,25546.4 -10062.94,6567.58 -23111.23,11265.11 -38912.28,13082.85 -15306.92,1761.69 -36825.53,609.96 -50835.93,-3160.02 -7284.96,-1959.72 -13186.54,-5340.19 -18600.52,-10170.36 -11232.42,-10023.71 -17215.26,-24567.48 -21936.15,-39206.52 -12173.98,-37753.08 -20448.14,-32534.32 -23998.62,-36606.02 -2581.82,-2961.06 -6468.57,-18231.55 -7156.99,-24220.93 -95.28,-827.6 6985.12,-2503.36 8216.25,-2858.31 7522.22,-2163.35 20352.87,-5146.83 27682.66,-6167.79l24017.3 -4386.48c1603.83,-320.39 3509.37,-360.56 5154.3,-599.69 1748.61,-254.07 2627.59,-652.93 4787.21,-890.19 1613.17,-177.48 3227.28,-369.9 4840.45,-554.85 10718.67,-1233 14661.46,-768.76 23693.17,-1416.08l20099.73 -214.84c7024.35,152.26 22836.61,17.75 29201.49,877.11 40750.57,5502.72 93479.9,5502.72 134230.47,0z"/>
   <path class="fil6" d="M192069.26 307061.23c-1173.22,-10201.19 -6019.27,-15362.96 -12294.48,-19224.49 -10696.25,-6581.59 -35156.31,-7260.67 -48671.64,-7364.36 -8901.87,-68.19 -18643.48,124.23 -28232.84,1228.33 -12512.12,1439.43 -34004.58,2784.52 -44380.44,10794.33 -7738.93,5974.43 -10664.49,16407.27 -9582.82,25808.88 2418.36,21021.67 3277.72,19681.26 9361.44,38061.33 1123.71,3395.41 2892.87,7044.9 4413.57,10319.82 1986.81,4282.8 6557.31,10732.68 10091.9,13505.06 8333.94,6533.95 13727.37,9026.1 25493.16,10348.77 7049.57,793.04 11271.65,-131.71 16666.95,51.37 2477.2,84.07 6346.2,-202.7 8903.74,-509.08 3221.67,-385.78 5381.29,-292.37 8745.88,-679.08l8652.47 -1339.48c2442.64,-485.73 5228.1,-1200.3 7598.81,-1883.12 10720.54,-3089.97 21220.64,-9274.57 28108.61,-18140.01 871.51,-1121.84 1201.24,-1384.32 2164.28,-2386.6l5130.95 -7944.43c970.52,-1886.86 1877.52,-3747.57 2644.41,-5815.64 848.15,-2285.72 1452.51,-4095.98 2173.63,-6481.64 3136.67,-10381.47 4415.44,-26155.43 3012.44,-38349.96z"/>
   <path class="fil6" d="M257820.72 307061.23c1174.15,-10201.19 6020.2,-15362.96 12294.48,-19224.49 10697.19,-6581.59 35157.24,-7260.67 48672.58,-7364.36 8901.87,-68.19 18643.48,124.23 28232.84,1228.33 12512.12,1439.43 34004.58,2784.52 44380.44,10794.33 7738.93,5974.43 10664.49,16407.27 9582.82,25808.88 -2419.29,21021.67 -3277.72,19681.26 -9361.44,38061.33 -1124.64,3395.41 -2893.81,7044.9 -4413.57,10319.82 -1986.81,4282.8 -6557.31,10732.68 -10092.83,13505.06 -8333.01,6533.95 -13726.44,9026.1 -25492.22,10348.77 -7049.57,793.04 -11272.59,-131.71 -16666.95,51.37 -2477.2,84.07 -6346.2,-202.7 -8903.74,-509.08 -3222.61,-385.78 -5381.29,-292.37 -8745.88,-679.08l-8653.4 -1339.48c-2441.71,-485.73 -5227.16,-1200.3 -7598.81,-1883.12 -10719.61,-3089.97 -21219.7,-9274.57 -28108.61,-18140.01 -870.57,-1121.84 -1200.3,-1384.32 -2163.35,-2386.6l-5130.95 -7944.43c-971.45,-1886.86 -1877.52,-3747.57 -2644.41,-5815.64 -848.15,-2285.72 -1453.44,-4095.98 -2173.63,-6481.64 -3137.61,-10381.47 -4416.37,-26155.43 -3013.37,-38349.96z"/>
  </g>
  <polygon class="fil6" points="87754.86,324672.54 87754.86,302727.05 65809.38,302727.05 65809.38,324672.54 "/>
  <polygon class="fil6" points="109704.09,324672.54 109704.09,302727.05 87757.67,302727.05 87757.67,324672.54 "/>
  <polygon class="fil6" points="131652.38,324672.54 131652.38,302727.05 109706.89,302727.05 109706.89,324672.54 "/>
  <polygon class="fil6" points="153600.67,324672.54 153600.67,302727.05 131655.18,302727.05 131655.18,324672.54 "/>
  <polygon class="fil6" points="175548.96,324672.54 175548.96,302727.05 153603.47,302727.05 153603.47,324672.54 "/>
  <polygon class="fil6" points="87754.86,346620.83 87754.86,324675.35 65809.38,324675.35 65809.38,346620.83 "/>
  <polygon class="fil6" points="109704.09,346620.83 109704.09,324675.35 87757.67,324675.35 87757.67,346620.83 "/>
  <polygon class="fil6" points="131652.38,346620.83 131652.38,324675.35 109706.89,324675.35 109706.89,346620.83 "/>
  <polygon class="fil6" points="153600.67,346620.83 153600.67,324675.35 131655.18,324675.35 131655.18,346620.83 "/>
  <polygon class="fil6" points="175548.96,346620.83 175548.96,324675.35 153603.47,324675.35 153603.47,346620.83 "/>
  <polygon class="fil6" points="87754.86,368570.06 87754.86,346623.64 65809.38,346623.64 65809.38,368570.06 "/>
  <polygon class="fil6" points="109704.09,368570.06 109704.09,346623.64 87757.67,346623.64 87757.67,368570.06 "/>
  <polygon class="fil6" points="131652.38,368570.06 131652.38,346623.64 109706.89,346623.64 109706.89,368570.06 "/>
  <polygon class="fil6" points="153600.67,368570.06 153600.67,346623.64 131655.18,346623.64 131655.18,368570.06 "/>
  <polygon class="fil6" points="175548.96,368570.06 175548.96,346623.64 153603.47,346623.64 153603.47,368570.06 "/>
  <path class="fil6" d="M188685.99 346620.83l371.77 -1209.65c1741.14,-5761.46 2908.75,-13184.67 3363.65,-20735.84l-16869.65 0 0 21945.49 13134.23 0z"/>
  <path class="fil6" d="M176524.15 368570.06l419.41 -529.63c871.51,-1121.84 1200.3,-1384.32 2164.28,-2386.6l5130.95 -7945.36c970.52,-1886.86 1877.52,-3746.63 2644.41,-5815.64 698.7,-1884.06 1232.06,-3443.05 1802.79,-5269.2l-13134.23 0 0 21946.42 972.39 0z"/>
  <path class="fil6" d="M175551.76 369738.6c330.67,-382.98 652.93,-771.56 969.58,-1165.74l-969.58 0 0 1165.74z"/>
  <path class="fil6" d="M153603.47 384591.55c8312.46,-3146.01 16173.75,-8161.14 21945.49,-14849.21l0 -1169.48 -21945.49 0 0 16018.69z"/>
  <path class="fil6" d="M131655.18 389500.19l929.42 -98.08 8652.47 -1339.48c2442.64,-485.73 5227.16,-1200.3 7597.88,-1883.12 1597.29,-460.51 3189.91,-990.13 4765.72,-1587.02l0 -16019.63 -21945.49 0 0 20927.33z"/>
  <path class="fil6" d="M118725.52 390518.35c1798.12,-96.21 3664.43,-263.41 5111.34,-436.22 2915.29,-351.22 4960.95,-306.38 7815.52,-581l0 -20928.27 -21945.49 0 0 21945.49 9018.63 0z"/>
  <path class="fil6" d="M109706.89 390675.28c1711.25,-82.2 3401.95,-147.59 5227.16,-85.94 1062.06,36.43 2380.99,3.74 3741.96,-68.19l-8969.12 0 0 154.12z"/>
  <path class="fil6" d="M98102.7 390521.15l163.47 18.68c4664.84,524.02 8091.08,296.11 11437.92,135.44l0 -154.12 -11601.39 0z"/>
  <path class="fil6" d="M87757.67 388568.9c2935.84,874.31 6244.39,1483.33 10320.75,1949.44l11625.67 0 0 -21945.49 -21946.42 0 0 19996.04z"/>
  <path class="fil6" d="M65809.38 372099.98c2135.33,3182.44 4752.65,6355.54 6964.57,8090.15 5384.09,4221.15 9540.79,6756.27 14980.92,8377.84l0 -19995.11 -21945.49 0 0 3527.12z"/>
  <path class="fil6" d="M63645.09 368572.86c620.24,1124.64 1357.23,2324.01 2161.48,3522.45l0 -3522.45 -2161.48 0z"/>
  <path class="fil6" d="M54930.04 346623.64c907,2588.36 1996.15,5683.93 3339.37,9742.55 1122.78,3394.48 2891.94,7043.97 4412.64,10319.82 274.62,591.28 598.75,1224.59 962.11,1884.06l2162.42 0 0 -21946.42 -10876.53 0z"/>
  <path class="fil6" d="M49682.33 324675.35c1431.02,10959.67 2514.57,14146.78 5246.78,21945.49l10877.47 0 0 -21945.49 -16124.25 0z"/>
  <path class="fil6" d="M50910.66 302727.05c-1977.47,4892.76 -2600.5,10390.81 -2003.62,15575.94 275.56,2393.14 529.63,4493.9 775.29,6369.55l16124.25 0 0 -21945.49 -14895.92 0z"/>
  <path class="fil6" d="M65806.57 288469.12c-2770.51,1116.24 -5262.66,2439.84 -7317.65,4025.92 -3469.21,2678.03 -5970.7,6253.73 -7577.33,10229.21l14894.98 0 0 -14255.13z"/>
  <path class="fil6" d="M87754.86 283406.36c-7518.48,996.67 -15490.93,2461.32 -21945.49,5060.89l0 14257 21945.49 0 0 -19317.9z"/>
  <path class="fil6" d="M109704.09 281060.86c-2278.24,168.14 -4560.22,378.31 -6833.8,639.85 -4260.38,490.4 -9563.2,970.52 -15112.63,1705.65l0 19317.9 21946.42 0 0 -21663.39z"/>
  <path class="fil6" d="M114261.51 280778.76c-1513.22,76.6 -3033.92,170 -4554.62,282.09l0 21663.39 21945.49 0 0 -21945.49 -17390.87 0z"/>
  <path class="fil6" d="M131652.38 280477.99l-550.18 -4.67c-5362.61,-42.03 -11031.59,12.14 -16787.45,302.64l17337.63 0 0 -297.97z"/>
  <path class="fil6" d="M143704.93 280775.96c-4426.65,-197.09 -8574,-268.08 -12049.75,-297.97l0 297.97 12049.75 0z"/>
  <path class="fil6" d="M153600.67 281434.49c-3323.49,-305.45 -6649.78,-512.81 -9834.09,-655.73l-12111.4 0 0 21945.49 21945.49 0 0 -21289.76z"/>
  <path class="fil6" d="M175548.96 285783.61c-5920.26,-2310.94 -13922.6,-3613.06 -21945.49,-4349.12l0 21289.76 21945.49 0 0 -16940.64z"/>
  <path class="fil6" d="M191281.82 302724.25c-1900.87,-7411.06 -6191.14,-11617.27 -11507.04,-14887.51 -1235.8,-760.35 -2657.48,-1441.3 -4223.02,-2052.19l0 16939.71 15730.06 0z"/>
  <polygon class="fil6" points="293237.64,324672.54 293237.64,302727.05 271292.16,302727.05 271292.16,324672.54 "/>
  <polygon class="fil6" points="315186.87,324672.54 315186.87,302727.05 293240.45,302727.05 293240.45,324672.54 "/>
  <polygon class="fil6" points="337135.16,324672.54 337135.16,302727.05 315189.67,302727.05 315189.67,324672.54 "/>
  <polygon class="fil6" points="359083.45,324672.54 359083.45,302727.05 337137.96,302727.05 337137.96,324672.54 "/>
  <polygon class="fil6" points="381031.74,324672.54 381031.74,302727.05 359086.25,302727.05 359086.25,324672.54 "/>
  <polygon class="fil6" points="293237.64,346620.83 293237.64,324675.35 271292.16,324675.35 271292.16,346620.83 "/>
  <polygon class="fil6" points="315186.87,346620.83 315186.87,324675.35 293240.45,324675.35 293240.45,346620.83 "/>
  <polygon class="fil6" points="337135.16,346620.83 337135.16,324675.35 315189.67,324675.35 315189.67,346620.83 "/>
  <polygon class="fil6" points="359083.45,346620.83 359083.45,324675.35 337137.96,324675.35 337137.96,346620.83 "/>
  <polygon class="fil6" points="381031.74,346620.83 381031.74,324675.35 359086.25,324675.35 359086.25,346620.83 "/>
  <polygon class="fil6" points="315186.87,368570.06 315186.87,346623.64 293240.45,346623.64 293240.45,368570.06 "/>
  <polygon class="fil6" points="337135.16,368570.06 337135.16,346623.64 315189.67,346623.64 315189.67,368570.06 "/>
  <polygon class="fil6" points="359083.45,368570.06 359083.45,346623.64 337137.96,346623.64 337137.96,368570.06 "/>
  <polygon class="fil6" points="381031.74,368570.06 381031.74,346623.64 359086.25,346623.64 359086.25,368570.06 "/>
  <path class="fil6" d="M261205.86 346620.83l-371.77 -1209.65c-1741.14,-5761.46 -2908.75,-13184.67 -3364.59,-20735.84l13819.85 0 0 21945.49 -10083.49 0z"/>
  <path class="fil6" d="M271289.35 366175.05l-507.21 -521.22 -5130.95 -7945.36c-970.52,-1886.86 -1876.58,-3746.63 -2644.41,-5815.64 -698.7,-1884.06 -1231.13,-3443.05 -1800.92,-5269.2l10083.49 0 0 19551.42z"/>
  <path class="fil6" d="M273365.83 368570.06l-419.41 -529.63c-697.76,-898.59 -1048.05,-1245.14 -1654.27,-1862.57l0 -19554.22 21945.49 0 0 21946.42 -19871.81 0z"/>
  <path class="fil6" d="M293237.64 383343.61c-7638.05,-3366.46 -14708.17,-8344.22 -19869.01,-14770.75l19869.01 0 0 14770.75z"/>
  <path class="fil6" d="M315186.87 389073.31l-6532.08 -1010.68c-2442.64,-485.73 -5228.1,-1200.3 -7599.75,-1883.12 -2635.07,-759.41 -5257.05,-1707.51 -7814.59,-2834.96l0 -14771.68 21946.42 0 0 20500.45z"/>
  <path class="fil6" d="M331165.4 390518.35c-1798.12,-96.21 -3665.37,-263.41 -5112.27,-436.22 -3222.61,-387.65 -5380.35,-293.3 -8744.94,-680.02l-2118.51 -327.87 0 -20501.39 21945.49 0 0 21945.49 -5969.76 0z"/>
  <path class="fil6" d="M337135.16 390570.66c-709.91,-9.34 -1432.89,-6.54 -2177.36,18.68 -1062.99,36.43 -2381.93,3.74 -3742.89,-68.19l5920.26 0 0 49.51z"/>
  <path class="fil6" d="M351787.28 390521.15l-163.47 18.68c-6075.32,682.82 -10050.8,91.54 -14485.85,30.82l0 -49.51 14649.32 0z"/>
  <path class="fil6" d="M359083.45 389353.54c-2158.68,475.45 -4543.41,853.76 -7271.88,1164.81l-14673.61 0 0 -21945.49 21945.49 0 0 20780.68z"/>
  <path class="fil6" d="M381031.74 376204.37c-1329.21,1608.5 -2685.51,3020.84 -3915.7,3985.76 -6344.33,4974.96 -10983.95,7607.22 -18029.79,9163.41l0 -20780.68 21945.49 0 0 7631.51z"/>
  <path class="fil6" d="M386245.83 368572.86c-1351.63,2449.18 -3251.56,5255.19 -5211.28,7628.71l0 -7628.71 5211.28 0z"/>
  <path class="fil6" d="M394960.88 346623.64c-907,2588.36 -1995.21,5684.87 -3338.43,9742.55 -1123.71,3394.48 -2892.87,7043.97 -4412.64,10319.82 -274.62,592.21 -599.69,1225.52 -963.05,1884.06l-5212.22 0 0 -21946.42 13926.33 0z"/>
  <path class="fil6" d="M400208.59 324675.35c-1431.96,10959.67 -2514.57,14146.78 -5246.78,21945.49l-13927.27 0 0 -21945.49 19174.05 0z"/>
  <path class="fil6" d="M398979.33 302727.05c1977.47,4892.76 2600.5,10390.81 2004.56,15575.94 -275.56,2393.14 -530.56,4493.9 -775.29,6369.55l-19174.05 0 0 -21945.49 17944.78 0z"/>
  <path class="fil6" d="M381034.54 287357.55c3996.97,1319.87 7582,2988.15 10366.52,5137.49 3469.21,2678.03 5970.7,6253.73 7577.33,10229.21l-17943.85 0 0 -15366.7z"/>
  <path class="fil6" d="M359086.25 283023.38c7241.06,866.83 15182.68,2099.83 21945.49,4333.24l0 15367.63 -21945.49 0 0 -19700.87z"/>
  <path class="fil6" d="M337137.96 280860.03c3286.13,189.62 6592.8,462.37 9882.66,840.68 3472.01,399.79 7637.11,792.11 12062.83,1321.74l0 19701.81 -21945.49 0 0 -21864.22z"/>
  <polygon class="fil6" points="335629.41,280778.76 337135.16,280860.03 337135.16,302724.25 315189.67,302724.25 315189.67,280778.76 "/>
  <path class="fil6" d="M315189.67 280514.42c1265.69,-19.62 2470.67,-32.69 3598.11,-41.1 5362.61,-42.03 11031.59,12.14 16787.45,302.64l-20385.56 0 0 -261.54z"/>
  <path class="fil6" d="M306185.05 280775.96c3195.52,-141.98 6245.32,-218.58 9001.82,-261.54l0 261.54 -9001.82 0z"/>
  <path class="fil6" d="M293240.45 281742.74c4320.16,-480.12 8723.46,-778.1 12882.96,-963.98l9063.47 0 0 21945.49 -21946.42 0 0 -20981.51z"/>
  <path class="fil6" d="M271292.16 287167c5373.81,-2852.71 13501.32,-4485.5 21945.49,-5424.26l0 20981.51 -21945.49 0 0 -15557.25z"/>
  <path class="fil6" d="M258609.09 302724.25c1899,-7411.06 6191.14,-11616.33 11507.04,-14887.51 373.64,-229.79 766.89,-452.1 1173.22,-667.87l0 15555.39 -12680.26 0z"/>
  <path class="fil6" d="M257821.66 307060.29c179.35,-1558.06 443.69,-2996.56 786.5,-4333.24l12681.19 0 0 21945.49 -13820.78 0c-365.23,-6052.9 -271.82,-12187.06 353.09,-17612.25z"/>
  <path class="fil6" d="M192070.19 307060.29c-179.35,-1558.06 -445.56,-2997.49 -787.44,-4333.24l-15730.99 0 0 21945.49 16870.58 0c365.23,-6052.9 271.82,-12187.06 -352.15,-17612.25z"/>
 </g>
</svg>
