<?xml version="1.0" encoding="utf-8"?>
<!-- Generator: Adobe Illustrator 23.0.3, SVG Export Plug-In . SVG Version: 6.00 Build 0)  -->
<svg version="1.1" id="Layer_1" xmlns="http://www.w3.org/2000/svg" xmlns:xlink="http://www.w3.org/1999/xlink" x="0px" y="0px"
	 viewBox="0 0 256 256" style="enable-background:new 0 0 256 256;" xml:space="preserve">
<style type="text/css">
	.st0{fill:#C6C234;}
</style>
<path class="st0" d="M122.7,12.8c34.2,0,38.2,0.1,51.7,0.7c12.5,0.6,19.3,2.7,23.8,4.4c6,2.3,10.2,5.1,14.7,9.6s7.3,8.7,9.6,14.7
	c1.8,4.5,3.8,11.3,4.4,23.8c0.6,13.5,0.7,17.5,0.7,51.7s-0.1,38.2-0.7,51.7c-0.6,12.5-2.7,19.3-4.4,23.8c-2.3,6-5.1,10.2-9.6,14.7
	c-4.5,4.5-8.7,7.3-14.7,9.6c-4.5,1.8-11.3,3.8-23.8,4.4c-13.5,0.6-17.5,0.7-51.7,0.7s-38.2-0.1-51.7-0.7
	c-12.5-0.6-19.3-2.7-23.8-4.4c-6-2.3-10.2-5.1-14.7-9.6c-4.5-4.5-7.3-8.7-9.6-14.7c-1.8-4.5-3.8-11.3-4.4-23.8
	c-0.6-13.5-0.7-17.5-0.7-51.7s0.1-38.2,0.7-51.7c0.6-12.5,2.7-19.3,4.4-23.8c2.3-6,5.1-10.2,9.6-14.7s8.7-7.3,14.7-9.6
	c4.5-1.8,11.3-3.8,23.8-4.4C84.4,12.9,88.5,12.8,122.7,12.8 M122.7-10.3c-34.8,0-39.1,0.1-52.8,0.8C56.3-8.9,47-6.7,38.8-3.6
	c-8.4,3.3-15.6,7.6-22.7,14.8S4.7,25.4,1.4,33.9C-1.8,42-3.9,51.3-4.6,64.9c-0.6,13.7-0.8,18-0.8,52.8s0.1,39.1,0.8,52.8
	c0.6,13.6,2.8,22.9,5.9,31.1c3.3,8.4,7.6,15.6,14.8,22.7c7.1,7.1,14.3,11.5,22.7,14.8c8.1,3.2,17.4,5.3,31.1,5.9
	c13.7,0.6,18,0.8,52.8,0.8s39.1-0.1,52.8-0.8c13.6-0.6,22.9-2.8,31.1-5.9c8.4-3.3,15.6-7.6,22.7-14.8c7.1-7.1,11.5-14.3,14.8-22.7
	c3.2-8.1,5.3-17.4,5.9-31.1c0.6-13.7,0.8-18,0.8-52.8s-0.1-39.1-0.8-52.8c-0.6-13.6-2.8-22.9-5.9-31.1c-3.3-8.4-7.6-15.6-14.8-22.7
	S214.9-0.3,206.5-3.6c-8.1-3.2-17.4-5.3-31.1-5.9C161.8-10.2,157.4-10.3,122.7-10.3z M122.7,52c-36.3,0-65.7,29.4-65.7,65.7
	s29.4,65.7,65.7,65.7s65.7-29.4,65.7-65.7S159,52,122.7,52z M122.7,160.4c-23.6,0-42.7-19.1-42.7-42.7S99.1,75,122.7,75
	s42.7,19.1,42.7,42.7S146.2,160.4,122.7,160.4z M206.4,49.4c0,8.5-6.9,15.4-15.4,15.4s-15.4-6.9-15.4-15.4S182.5,34,191,34
	S206.4,40.9,206.4,49.4z"/>
</svg>
