<?xml version="1.0" encoding="UTF-8"?>
<!DOCTYPE svg PUBLIC "-//W3C//DTD SVG 1.1//EN" "http://www.w3.org/Graphics/SVG/1.1/DTD/svg11.dtd">
<!-- Creator: CorelDRAW 2019 (64-Bit Evaluation Version) -->
<svg xmlns="http://www.w3.org/2000/svg" xml:space="preserve" width="8.24698in" height="13.505in" version="1.1" style="shape-rendering:geometricPrecision; text-rendering:geometricPrecision; image-rendering:optimizeQuality; fill-rule:evenodd; clip-rule:evenodd"
viewBox="0 0 461.15 755.17"
 xmlns:xlink="http://www.w3.org/1999/xlink">
 <defs>
  <style type="text/css">
   <![CDATA[
    .fil3 {fill:#FEFEFE}
    .fil0 {fill:#FEFEFE}
    .fil2 {fill:#A9ABAE}
    .fil1 {fill:#201E1E}
   ]]>
  </style>
 </defs>
 <g id="Layer_x0020_1">
  <metadata id="CorelCorpID_0Corel-Layer"/>
  <path class="fil0" d="M356.59 627.97c0.22,2.53 0.13,5.16 0.05,7.79 -0.46,14.23 -1.02,28.47 -1.51,42.7 -0.07,1.88 -0.18,3.94 -0.27,5.97 0.25,0.11 0.5,0.22 0.75,0.35 3.24,1.58 6.19,4.01 8.94,6.32 1.93,1.62 3.72,3.15 5.89,4.44 3.21,1.91 6.87,3.28 10.44,4.33 5.6,1.65 11.34,2.72 17,4.1 3.78,0.92 7.11,1.89 10.32,4.19 3.48,2.5 5.81,5.64 6.93,9.81 0.75,2.79 0.87,5.83 0.47,8.76 0.9,3 0.75,6.29 0.12,9.6 -0.93,4.9 -3.11,8.71 -7.3,11.62 -3.77,2.62 -8.54,3.91 -13,4.8 -6.4,1.28 -13.12,1.93 -19.63,2.22 -8.32,0.37 -16.73,0.16 -25.06,-0.11 -8.26,-0.27 -16.54,-0.63 -24.78,-1.23 -6.52,-0.47 -13.22,-1.04 -19.68,-2.05 -4.35,-0.68 -8.9,-1.62 -12.61,-4.14 -5.48,-3.71 -8.04,-10.14 -6.41,-16.56 0.09,-0.36 0.2,-0.72 0.31,-1.08 -0.58,-2.23 -0.78,-4.46 -0.85,-6.85 -0.09,-2.97 -0.06,-6.2 0.27,-9.14 0,-0.04 0.01,-0.07 0.01,-0.11 -0.21,-0.53 -0.39,-1.08 -0.55,-1.69 -1.22,-4.54 -0.54,-9.49 1.76,-13.57 0.62,-1.11 1.37,-2.15 2.21,-3.11 0,-2.44 0.17,-4.93 0.26,-7.33 0.58,-15.23 1.31,-30.55 2.29,-45.76 0.07,-1.14 0.15,-2.24 0.25,-3.3 -42.44,3.77 -86.25,2.54 -126.93,5.97 -1.7,0.14 -3.41,0.29 -5.11,0.45 -0.89,3.05 -2.3,6.07 -3.63,8.96 -6.58,14.27 -13.44,28.52 -20.38,42.62 -1.11,2.26 -2.2,4.67 -3.44,6.94 0.29,1.26 0.44,2.54 0.45,3.83 0.05,4.68 -1.73,9.35 -4.98,12.74 -0.44,0.46 -0.87,0.86 -1.3,1.23 -0.01,0.03 -0.03,0.07 -0.04,0.1 -1.13,2.76 -2.65,5.58 -4.16,8.15 -1.21,2.06 -2.46,3.91 -4.04,5.59 -0.07,0.36 -0.15,0.73 -0.24,1.09 -1.66,6.43 -6.96,10.82 -13.58,11.44 -4.46,0.42 -8.9,-0.94 -13.04,-2.43 -6.15,-2.22 -12.3,-4.95 -18.24,-7.67 -7.52,-3.44 -14.94,-7.1 -22.32,-10.84 -7.43,-3.76 -14.9,-7.63 -22.02,-11.96 -5.57,-3.39 -11.15,-7.19 -16.14,-11.39 -3.48,-2.92 -7.04,-6.35 -9.09,-10.47 -2.27,-4.57 -2.35,-8.96 -0.81,-13.71 1.04,-3.21 2.49,-6.16 4.72,-8.35 1.06,-2.76 2.63,-5.37 4.62,-7.45 3,-3.13 6.55,-4.76 10.81,-5.27 3.92,-0.47 7.3,0.28 11.05,1.29 5.63,1.51 11.18,3.34 16.88,4.59 3.64,0.79 7.51,1.36 11.24,1.22 2.53,-0.09 4.83,-0.57 7.3,-1.06 3.53,-0.7 7.28,-1.42 10.88,-1.24 0.24,0.01 0.49,0.03 0.73,0.05 0.14,-0.29 0.28,-0.57 0.41,-0.84 2.12,-4.27 4.22,-8.55 6.33,-12.82l0.17 -8.57c0.51,-25.67 0.6,-51.25 0.95,-76.82 -0.09,0.05 -0.18,0.1 -0.27,0.16 -6.25,3.6 -13.17,6.19 -20.5,5.66 -8.85,-0.64 -16.01,-5.62 -22.3,-11.47 -5.87,-5.46 -12.88,-13.33 -16.28,-20.52 -3.61,-7.65 -3.34,-14.44 0.15,-21.97 0.86,-1.85 1.82,-3.61 2.93,-5.21l-1.89 -2.37c-30.12,-37.87 -45.69,-84.06 -16.72,-127.4 3.61,-5.4 7.72,-10.44 12.2,-15.14 14.97,-15.67 34.66,-28.07 54.62,-36.36 8.37,-3.48 22.72,-8.65 34.42,-9.23 -37.44,-33.66 -60.98,-82.5 -60.98,-136.75 0,-101.45 82.25,-183.7 183.7,-183.7 101.45,0 183.7,82.25 183.7,183.7 0,49.24 -19.36,93.74 -50.86,126.6 62.18,17.63 105.17,85.53 83.09,148.97 -3.97,11.39 -9.26,21.3 -17.2,30.41 -8.15,9.36 -18.49,17.33 -29.31,23.35 -8.38,4.66 -16.81,7.9 -25.67,10.14l5.25 93.27 -8.86 3.62c-7.47,3.06 -15.12,5.66 -22.9,7.89z"/>
  <g id="_2624798764992">
   <path class="fil1" d="M239.35 13.43c94.04,0 170.28,76.24 170.28,170.28 0,93.74 -75.74,169.77 -169.36,170.27l0 0.01 -0.92 0 -0.92 -0 0 -0.01c-93.62,-0.5 -169.36,-76.53 -169.36,-170.27 0,-94.05 76.24,-170.28 170.28,-170.28zm-0.92 320.68l0.92 0 0 0 0.92 -0c9.88,-0.06 19.73,-1.07 29.41,-3.06l2.01 -0.41 0.51 -1.99c4.92,-19.14 8.99,-38.51 12.12,-58.02l0.56 -3.49 -3.52 -0.3c-13.97,-1.21 -27.99,-1.86 -42.01,-1.95 -14.02,0.08 -28.04,0.74 -42.01,1.95l-3.52 0.3 0.56 3.49c3.12,19.52 7.2,38.88 12.12,58.02l0.51 1.99 2.01 0.41c9.67,1.98 19.53,3 29.41,3.06zm0 -87.36l0 -0.01 0.92 0 0.92 -0 0 0.01c14.65,0.08 29.3,0.81 43.89,2.17l3.19 0.3 0.37 -3.18c1.96,-16.72 3.21,-33.51 3.68,-50.34l0.09 -3.37 -51.23 0 -1.84 0 -51.23 0 0.09 3.37c0.47,16.82 1.71,33.62 3.68,50.34l0.37 3.18 3.19 -0.3c14.59,-1.36 29.24,-2.08 43.89,-2.17zm0 -72.34l1.84 0 51.33 0 -0.06 -3.34c-0.28,-16.61 -1.34,-33.21 -3.18,-49.72l-0.36 -3.21 -3.21 0.3c-14.81,1.4 -29.66,2.14 -44.51,2.23l0 0.01 -0.92 -0 -0.92 0 0 -0.01c-14.85,-0.09 -29.7,-0.83 -44.51,-2.23l-3.21 -0.3 -0.36 3.21c-1.84,16.51 -2.9,33.11 -3.18,49.72l-0.06 3.34 51.33 0zm0.92 -71.89c14.26,-0.08 28.51,-0.76 42.72,-2.01l3.51 -0.31 -0.56 -3.48c-3.12,-19.55 -7.35,-38.91 -12.64,-57.98l-0.54 -1.93 -1.96 -0.4c-9.74,-2.01 -19.66,-3.04 -29.61,-3.1l-0.92 -0 -0 0 -0.92 0c-9.94,0.06 -19.87,1.09 -29.61,3.1l-1.96 0.4 -0.54 1.93c-5.29,19.07 -9.52,38.43 -12.64,57.98l-0.56 3.48 3.51 0.31c14.21,1.25 28.46,1.93 42.72,2.01zm-70.54 16.18c-2.1,17.42 -3.33,34.95 -3.67,52.49l-0.06 3.22 -75.88 0 0.3 -3.56c1.94,-22.87 9.06,-44.92 20.9,-64.58l1.25 -2.08 2.35 0.58c17.17,4.24 34.54,7.69 52.03,10.29l3.16 0.47 -0.38 3.17zm12.83 -68.14c-3.73,14.54 -6.86,29.24 -9.35,44.05l-0.53 3.15 -3.16 -0.44c-13.65,-1.91 -27.23,-4.33 -40.71,-7.2l-5.47 -1.17 3.68 -4.21c14.09,-16.12 31.5,-29.11 50.99,-37.98l6.25 -2.85 -1.71 6.65zm-4.26 270.23c-19.61,-8.88 -37.11,-21.92 -51.28,-38.11l-3.68 -4.21 5.47 -1.17c13.63,-2.91 27.37,-5.35 41.17,-7.27l3.16 -0.44 0.53 3.15c2.49,14.87 5.57,29.63 9.17,44.27l1.62 6.57 -6.16 -2.79zm-10.92 -68.5c-17.64,2.6 -35.14,6.08 -52.46,10.35l-2.35 0.58 -1.25 -2.07c-11.96,-19.87 -19.11,-42.17 -20.96,-65.28l-0.28 -3.55 75.98 0 0.08 3.2c0.47,17.76 1.82,35.49 4.01,53.12l0.4 3.19 -3.18 0.47zm143.44 -133.6c2.1,17.42 3.33,34.95 3.67,52.49l0.06 3.22 75.88 0 -0.3 -3.56c-1.94,-22.87 -9.06,-44.92 -20.9,-64.58l-1.25 -2.08 -2.35 0.58c-17.17,4.24 -34.54,7.69 -52.03,10.29l-3.16 0.47 0.38 3.17zm-12.83 -68.14c3.73,14.54 6.86,29.24 9.35,44.05l0.53 3.15 3.16 -0.44c13.65,-1.91 27.23,-4.33 40.71,-7.2l5.47 -1.17 -3.68 -4.21c-14.09,-16.12 -31.5,-29.11 -50.99,-37.98l-6.25 -2.85 1.71 6.65zm4.26 270.23c19.61,-8.88 37.11,-21.92 51.28,-38.11l3.68 -4.21 -5.47 -1.17c-13.63,-2.91 -27.37,-5.35 -41.17,-7.27l-3.16 -0.44 -0.53 3.15c-2.49,14.87 -5.57,29.63 -9.17,44.27l-1.62 6.57 6.16 -2.79zm10.92 -68.5c17.64,2.6 35.14,6.08 52.46,10.35l2.35 0.58 1.25 -2.07c11.96,-19.87 19.11,-42.17 20.96,-65.28l0.28 -3.55 -75.98 0 -0.08 3.2c-0.47,17.76 -1.82,35.49 -4.01,53.12l-0.4 3.19 3.18 0.47z"/>
   <path class="fil2" d="M46.73 503.19c4.91,8.19 10.4,13.87 13.59,18.41 3.9,5.57 4.34,9.44 4.19,11.12 -0.15,1.68 -0.91,1.16 -2.34,-1.11 -1.43,-2.27 -3.54,-6.3 -6.17,-9.51 -2.63,-3.21 -5.77,-5.59 -7.98,-5.55 -2.22,0.05 -3.51,2.53 -4.78,5.26 -1.27,2.73 -2.5,5.72 -0.19,10.59 2.31,4.88 8.15,11.65 13.29,16.43 5.14,4.78 9.57,7.58 14.12,7.91 4.55,0.33 9.21,-1.81 12.84,-3.9 3.63,-2.09 6.23,-4.13 6.68,-6.22 0.45,-2.09 -1.25,-4.23 -1.01,-4.97 0.23,-0.74 2.4,-0.08 3.78,0.13 1.38,0.2 1.96,-0.05 2.18,-3.21 0.22,-3.16 0.06,-9.21 0.02,-15.31 -0.04,-6.1 0.02,-12.24 0.27,-17.72 0.25,-5.48 0.68,-10.29 -0.64,-14.27 -1.32,-3.98 -4.4,-7.12 -7.47,-10.78 -1.21,-1.44 -2.41,-2.96 -3.59,-4.7l-36.8 27.39z"/>
   <path class="fil1" d="M312.97 514.64c1.66,0.06 3.63,0.11 5.98,0.15 11.27,0.18 31.36,0.04 46.88,-2 15.52,-2.03 26.45,-5.95 36.42,-11.49 9.97,-5.54 18.99,-12.71 25.71,-20.43 6.72,-7.72 11.16,-15.99 14.64,-26.01 20.26,-58.22 -22.14,-121.58 -81.94,-133.55 -32.12,28.2 -74.18,45.46 -120.22,46.07l-1.15 0.01 -0.92 -0c-40.88,-0.16 -78.57,-13.71 -108.97,-36.47 -2.49,1.54 -4.76,2.69 -6.75,3.35 -18.17,-6.46 -172.25,50.05 -80.05,165.94l38.23 -27.91c-2.27,-4.8 -58.01,-93.51 42.61,-108.36 -22.75,87.29 -19.21,201.84 -20.7,277.43 91.77,-23.13 191.83,-1.09 271.67,-33.74l-4.82 -85.6c-0.83,0.12 -1.66,0.24 -2.5,0.35 -15.61,2.04 -32.56,2.33 -48.29,2.07 -3.95,-0.06 -7.91,-0.18 -11.85,-0.45 -1.3,-0.09 -2.71,-0.27 -4,-0.29 -0.67,-0.01 -1.16,0.13 -1.77,0.4 -3.19,1.4 -5.21,2.54 -8.82,3.21 -5.34,0.99 -11.17,0.38 -16.46,-0.64 -7.87,-1.52 -15.91,-4.1 -23.53,-6.58 -9.23,-2.99 -18.9,-6.15 -27.85,-9.88 -6.41,-2.67 -11.7,-5.43 -14.11,-12.37 -1.42,-4.09 -1.86,-9.16 -1.46,-13.48 0.39,-4.16 1.68,-8.68 4.38,-11.97 -2.19,-3.81 -2.42,-7.9 -1.42,-12.41 1.11,-5.01 3.84,-11.56 6.8,-15.74 0.94,-1.32 1.82,-2.35 2.74,-3.24 -0.55,-1.58 -0.89,-3.25 -0.94,-5.38 -0.12,-4.85 1.67,-9.77 3.51,-14.19 1.72,-4.15 3.79,-8.68 6.71,-12.11 3.93,-4.61 9.08,-6.75 15.12,-6.3 4.84,0.36 10.17,2.4 14.75,3.97 5.12,1.75 10.28,3.52 15.45,5.13 0.88,-4.06 1.91,-8.06 3.3,-12.02 2.2,-6.3 5.57,-13.42 9.77,-18.62 4.53,-5.63 10.17,-8.73 17.48,-8.2 4.56,0.33 9.53,2.06 13.68,3.94 3.63,1.65 6.52,3.82 7.58,7.96 0.81,3.14 0.1,6.1 -1.52,8.81 -1.37,2.3 -2.97,4.26 -4.07,6.76 -1.24,2.83 -1.85,6.26 -2.1,9.32 -0.24,2.87 -0.23,6.44 0.68,9.18 1.07,3.21 3.69,6.89 5.19,10.1 2,4.27 3.23,8.6 4.91,12.94 4.06,0.97 9.47,0.88 13.46,0.57 6.5,-0.5 14.15,-1.91 20.49,-4.43l-5.18 -92.09c25.16,15.61 37.33,27.98 36.42,60.5 -0.25,8.83 -2.49,16.33 -6.52,22.95 -4.02,6.62 -9.84,12.37 -17.91,16.24 -8.08,3.87 -18.42,5.87 -26.55,6.49 -4.67,0.36 -8.6,0.27 -11.75,-0.05l-20.42 62.11z"/>
   <path class="fil2" d="M322.02 446.16c-1.26,-3.21 -2.81,-8.46 -4.77,-12.63 -1.96,-4.17 -4.32,-7.28 -5.61,-11.15 -1.29,-3.88 -1.52,-8.53 -1.15,-13.04 0.37,-4.51 1.33,-8.87 2.88,-12.41 1.55,-3.55 3.69,-6.28 4.62,-7.83 0.92,-1.55 0.63,-1.92 -1.74,-2.99 -2.36,-1.07 -6.8,-2.84 -10.38,-3.1 -3.58,-0.26 -6.32,1 -9.24,4.62 -2.92,3.62 -6.02,9.61 -8.16,15.74 -2.14,6.13 -3.33,12.41 -3.99,15.88 -0.66,3.47 -0.81,4.14 -1.81,4.32 -1,0.18 -2.84,-0.11 -7.5,-1.52 -4.65,-1.4 -12.12,-3.92 -17.73,-5.84 -5.61,-1.92 -9.38,-3.25 -12.34,-3.47 -2.95,-0.22 -5.1,0.66 -7.02,2.92 -1.92,2.25 -3.62,5.87 -5.14,9.53 -1.51,3.66 -2.84,7.35 -2.77,10.23 0.07,2.88 1.55,4.95 2.33,6.43 0.78,1.48 0.85,2.36 -0.26,3.21 -1.11,0.85 -3.4,1.66 -5.65,4.84 -2.25,3.18 -4.47,8.72 -5.25,12.23 -0.78,3.51 -0.11,4.99 0.92,6.32 1.03,1.33 2.44,2.51 2.95,3.95 0.52,1.44 0.15,3.14 -0.74,3.95 -0.89,0.81 -2.29,0.74 -3.47,1.99 -1.18,1.26 -2.14,3.84 -2.44,6.98 -0.29,3.14 0.07,6.83 0.96,9.38 0.89,2.55 2.29,3.95 8.68,6.61 6.39,2.66 17.77,6.58 27.11,9.6 9.35,3.03 16.66,5.17 22.39,6.28 5.73,1.11 9.86,1.18 12.86,0.63 2.99,-0.55 4.84,-1.74 6.69,-2.55 1.85,-0.81 3.69,-1.26 5.84,-1.22 1.06,0.02 2.18,0.15 4.41,0.31l21.2 -62.58c-0.37,-0.09 -0.72,-0.18 -1.04,-0.27 -3.44,-0.96 -4.4,-2.14 -5.65,-5.36z"/>
   <path class="fil1" d="M117.48 704.65c-1.29,0.08 -3.35,0.23 -6.16,0.06 -2.81,-0.17 -6.38,-0.67 -9.9,-1.88 -3.52,-1.22 -6.99,-3.16 -9.14,-4.68 -2.15,-1.52 -2.96,-2.63 -3.84,-3 -0.88,-0.37 -1.81,-0 -3.07,0.44 -1.27,0.44 -2.86,0.95 -4.06,0.97 -1.2,0.02 -2,-0.46 -2.32,-1.17 -0.33,-0.71 -0.17,-1.65 0.87,-2.32 1.04,-0.67 2.98,-1.07 4.37,-1.46 1.39,-0.39 2.22,-0.78 2.8,-1.79 0.58,-1.02 0.9,-2.67 0.49,-4.7 -0.4,-2.03 -1.53,-4.44 -2.58,-6.01 -1.05,-1.56 -2.01,-2.27 -3.91,-2.37 -1.91,-0.09 -4.75,0.43 -7.59,1 -2.84,0.57 -5.66,1.18 -9.45,1.31 -3.79,0.14 -8.54,-0.2 -14.58,-1.52 -6.04,-1.32 -13.38,-3.62 -17.5,-4.74 -4.13,-1.11 -5.05,-1.03 -5.95,-0.92 -0.9,0.11 -1.78,0.25 -2.72,1.23 -0.94,0.98 -1.94,2.81 -2.32,4.87 -0.38,2.06 -0.14,4.35 2.78,7.4 2.92,3.05 8.52,6.85 16.99,11.74 8.48,4.89 19.83,10.86 31.17,16.38 11.33,5.52 22.64,10.59 28.91,12.79 6.28,2.2 7.52,1.53 8.52,0.67 1,-0.86 1.76,-1.91 2.87,-3.79 1.11,-1.88 2.56,-4.6 3.32,-6.45 0.76,-1.85 0.83,-2.84 1.45,-3.54 0.62,-0.7 1.8,-1.12 2.61,-1.97 0.82,-0.85 1.27,-2.14 1.25,-3.32 -0.01,-1.18 -0.49,-2.24 -0.99,-2.77 -0.5,-0.53 -1.01,-0.52 -2.3,-0.44z"/>
   <path class="fil1" d="M304.34 703.8c1.09,0.69 2.82,1.81 5.37,3.01 2.55,1.2 5.92,2.49 9.59,3.11 3.67,0.63 7.65,0.59 10.26,0.29 2.61,-0.3 3.87,-0.88 4.81,-0.79 0.95,0.1 1.59,0.87 2.49,1.86 0.9,0.99 2.05,2.21 3.1,2.81 1.04,0.59 1.97,0.56 2.6,0.1 0.63,-0.46 0.95,-1.36 0.35,-2.45 -0.59,-1.09 -2.1,-2.37 -3.13,-3.38 -1.03,-1.01 -1.57,-1.75 -1.59,-2.92 -0.02,-1.17 0.5,-2.77 1.83,-4.36 1.33,-1.59 3.48,-3.16 5.15,-4.03 1.67,-0.87 2.85,-1.03 4.57,-0.19 1.72,0.83 3.96,2.66 6.18,4.52 2.21,1.86 4.39,3.75 7.65,5.69 3.26,1.94 7.59,3.93 13.52,5.68 5.93,1.75 13.47,3.26 17.63,4.27 4.15,1.01 4.92,1.52 5.66,2.05 0.74,0.53 1.44,1.08 1.8,2.39 0.35,1.31 0.35,3.4 -0.31,5.39 -0.66,1.99 -1.97,3.88 -6,5.15 -4.03,1.27 -10.76,1.91 -20.55,2.12 -9.78,0.21 -22.61,-0.02 -35.2,-0.63 -12.59,-0.61 -24.94,-1.6 -31.5,-2.69 -6.56,-1.09 -7.33,-2.28 -7.79,-3.51 -0.47,-1.23 -0.63,-2.52 -0.69,-4.7 -0.06,-2.18 -0.03,-5.26 0.19,-7.25 0.22,-1.99 0.64,-2.89 0.43,-3.8 -0.21,-0.91 -1.04,-1.84 -1.35,-2.98 -0.31,-1.14 -0.08,-2.49 0.5,-3.51 0.58,-1.03 1.51,-1.73 2.2,-1.96 0.69,-0.22 1.14,0.03 2.23,0.72z"/>
   <path class="fil2" d="M105.52 730.92c-1.04,-0.64 -3.05,-0.98 -6.16,-2.01 -3.11,-1.03 -7.32,-2.75 -13.29,-5.46 -5.96,-2.7 -13.67,-6.38 -20.92,-9.99 -7.24,-3.61 -14.01,-7.14 -20.68,-10.89 -6.67,-3.75 -13.24,-7.72 -17.41,-10.91 -4.18,-3.19 -5.97,-5.6 -7.01,-7.5 -1.04,-1.91 -1.33,-3.31 -1.75,-3.25 -0.42,0.06 -0.97,1.59 -1.36,2.82 -0.4,1.23 -0.65,2.15 0.06,3.58 0.71,1.43 2.39,3.38 5.71,6.17 3.32,2.79 8.28,6.42 14.48,10.19 6.2,3.77 13.65,7.67 21.12,11.46 7.47,3.79 14.97,7.46 21.84,10.61 6.87,3.15 13.12,5.77 17.21,7.24 4.09,1.48 6.03,1.81 7.23,1.7 1.2,-0.11 1.65,-0.67 1.84,-1.42 0.19,-0.75 0.13,-1.7 -0.91,-2.35z"/>
   <path class="fil2" d="M302.19 732.58c1.22,-0.06 3.14,0.61 6.37,1.2 3.22,0.59 7.75,1.11 14.27,1.6 6.53,0.5 15.06,0.98 23.14,1.3 8.08,0.32 15.72,0.48 23.37,0.4 7.65,-0.08 15.32,-0.4 20.51,-1.19 5.2,-0.79 7.92,-2.04 9.75,-3.21 1.83,-1.17 2.76,-2.26 3.1,-2 0.34,0.26 0.08,1.86 -0.16,3.13 -0.24,1.27 -0.46,2.2 -1.78,3.11 -1.31,0.91 -3.72,1.81 -7.97,2.66 -4.25,0.85 -10.34,1.65 -17.59,1.97 -7.25,0.32 -15.65,0.16 -24.02,-0.11 -8.37,-0.27 -16.71,-0.66 -24.25,-1.2 -7.54,-0.55 -14.27,-1.25 -18.57,-1.93 -4.3,-0.67 -6.16,-1.31 -7.15,-1.99 -0.99,-0.67 -1.12,-1.38 -0.93,-2.13 0.19,-0.75 0.71,-1.55 1.93,-1.62z"/>
   <path class="fil2" d="M125.14 691.03c5.1,-10.36 15.3,-31.62 20.23,-42.32 4.94,-10.7 4.61,-10.84 -2.43,-10.27 -7.04,0.57 -20.81,1.86 -27.83,2.7 -7.03,0.84 -7.31,1.23 -9.91,6.42 -2.59,5.19 -7.49,15.19 -10.36,20.96 -2.87,5.77 -3.72,7.32 -4.29,8.16 -0.57,0.84 -0.86,0.97 -0.59,2.31 0.27,1.34 1.11,3.88 1.39,5.96 0.29,2.08 0.02,3.69 -0.27,4.86 -0.3,1.17 -0.63,1.91 0.11,2.93 0.74,1.03 2.54,2.34 5.28,3.68 2.74,1.34 6.42,2.7 9.6,3.6 3.18,0.9 5.86,1.35 8.11,1.32 2.25,-0.03 4.06,-0.54 4.96,-0.52 0.9,0.02 0.9,0.57 6,-9.79z"/>
   <path class="fil2" d="M304.1 688.53c0.43,-11.18 1.54,-34.01 2.28,-45.41 0.73,-11.4 1.09,-11.37 7.18,-12.15 6.09,-0.78 17.91,-2.36 23.89,-3.61 5.98,-1.24 6.11,-2.15 5.79,7.96 -0.33,10.11 -1.11,31.23 -1.51,42.67 -0.39,11.44 -0.39,13.21 -0.3,14.22 0.1,1.01 0.29,1.27 -0.59,2.31 -0.88,1.04 -2.84,2.87 -4.09,4.56 -1.25,1.68 -1.8,3.22 -2.1,4.39 -0.3,1.17 -0.37,1.97 -1.51,2.52 -1.14,0.55 -3.35,0.83 -6.4,0.69 -3.05,-0.14 -6.93,-0.72 -10.15,-1.46 -3.22,-0.74 -5.79,-1.64 -7.74,-2.74 -1.96,-1.11 -3.3,-2.42 -4.1,-2.84 -0.8,-0.42 -1.06,0.06 -0.64,-11.11z"/>
   <g>
    <path class="fil3" d="M125.72 328.92l-26.52 23.42c-6.65,5.87 -16.94,5.24 -22.82,-1.41l-24.28 -27.49c-5.87,-6.65 -5.24,-16.94 1.41,-22.82l27.27 -24.09 -15.22 -14.26c-4.29,-4.02 -6.03,-9.82 -4.67,-15.54 1.36,-5.73 5.52,-10.11 11.17,-11.77l125.85 -36.95c5.97,-1.75 12.25,-0.01 16.46,4.58 4.21,4.59 5.41,10.99 3.15,16.8l-49.36 126.72c-2.2,5.66 -7.17,9.49 -13.2,10.19 -6.03,0.7 -11.74,-1.9 -15.18,-6.9l-14.08 -20.48z"/>
   </g>
   <path class="fil1" d="M127.06 318.04l18.73 27.24c1.92,2.79 5,4.19 8.36,3.8 3.36,-0.39 6.04,-2.46 7.26,-5.61l49.36 -126.72c1.26,-3.24 0.61,-6.68 -1.73,-9.24 -2.35,-2.56 -5.73,-3.5 -9.06,-2.52l-125.85 36.95c-3.15,0.92 -5.39,3.28 -6.15,6.47 -0.76,3.19 0.18,6.31 2.57,8.55l21.04 19.73 -33.26 29.38c-3.67,3.24 -4.02,8.88 -0.78,12.56l24.28 27.49c3.24,3.67 8.88,4.02 12.56,0.78l32.67 -28.86z"/>
  </g>
 </g>
</svg>
