<?xml version="1.0" encoding="UTF-8"?>
<!DOCTYPE svg PUBLIC "-//W3C//DTD SVG 1.1//EN" "http://www.w3.org/Graphics/SVG/1.1/DTD/svg11.dtd">
<!-- Creator: CorelDRAW 2019 (64-Bit Evaluation Version) -->
<svg xmlns="http://www.w3.org/2000/svg" xml:space="preserve" width="10.4105in" height="14.0622in" version="1.1" style="shape-rendering:geometricPrecision; text-rendering:geometricPrecision; image-rendering:optimizeQuality; fill-rule:evenodd; clip-rule:evenodd"
viewBox="0 0 1312.94 1773.48"
 xmlns:xlink="http://www.w3.org/1999/xlink">
 <defs>
  <style type="text/css">
   <![CDATA[
    .fil5 {fill:none}
    .fil0 {fill:#FEFEFE}
    .fil4 {fill:#FEFEFE}
    .fil2 {fill:#A9ABAE}
    .fil1 {fill:#201E1E}
    .fil3 {fill:#201E1E}
   ]]>
  </style>
 </defs>
 <g id="Layer_x0020_1">
  <metadata id="CorelCorpID_0Corel-Layer"/>
  <path class="fil0" d="M887.69 831.73c1.93,-1.08 4.05,-1.92 6.31,-2.46 16.48,-3.94 32.67,-9.31 47.91,-16.75 21.17,-10.32 41.17,-24.82 58.26,-40.95 15.34,-14.49 28.51,-30.67 40.36,-48.1 8.84,-13.01 17.69,-27.48 23.92,-41.96 4.57,-10.63 6.42,-19.41 7.86,-30.86 1.83,-14.62 2.81,-30.09 1.98,-44.83 -0.72,-12.81 -3.01,-26.03 -7.5,-38.07 -2.94,-7.9 -7.45,-16.81 -13.04,-23.2 -3.24,-3.71 -6.22,-5.65 -10.25,-8.27 -12.31,-7.99 -18.2,-20.61 -12.71,-34.96 2.84,-7.42 8.59,-14.92 14.38,-20.3 8.73,-8.1 19.48,-13.17 31.54,-13.28 12.9,-0.13 24.74,5.48 35.39,12.25 8.28,5.26 16.26,11.35 24.02,17.48 0.05,-0.06 0.1,-0.12 0.15,-0.18 17.06,-21.25 33.44,-43.46 49.74,-65.32 8.83,-11.85 17.67,-27.72 34.38,-28.21 8.27,-0.24 15.5,3.12 22.52,7.06 5.76,3.23 11.51,6.81 17.02,10.45 20.82,13.78 14.79,32.82 5.81,51.44 -6.57,13.62 -13.81,27.4 -21.3,40.97 3.09,2.11 6.11,4.39 8.91,6.57 5.96,4.63 12.76,10.22 17.32,16.22 1.78,2.33 3.22,4.74 4.32,7.23 3.68,1.53 7.05,3.74 10.47,6.29 5.74,4.28 11.66,9.36 16.16,14.94 5.98,7.41 8.98,15.19 10.37,24.54 1.18,7.88 1.41,16.93 -0.14,24.74 -1.87,9.46 -6.08,15.76 -11.48,23.5 -6.02,8.63 -12.19,17.43 -19.08,25.38 -6.32,7.29 -12.98,13.23 -20.72,18.95 -4.57,3.38 -9.34,6.53 -13.85,9.96 -0.3,0.23 -0.65,0.47 -0.92,0.73 -1.31,1.48 -3.16,5.62 -3.98,7.39 -8.34,18.06 -15.05,35.73 -24.67,53.42 -12.78,23.48 -28.71,44.95 -46.88,64.53 -19.34,20.84 -41.82,40.6 -64.83,57.27 -21.91,15.87 -43.84,28.1 -69.04,37.96 -25.51,9.99 -53.41,17.67 -80.37,22.52 -14.98,2.7 -30.13,4.54 -45.31,5.69 -2.63,0.2 -5.2,-0.03 -7.64,-0.63 -2.38,0.9 -4.95,1.42 -7.68,1.55 -1.72,0.08 -3.44,0.15 -5.15,0.21 -8.22,0.29 -15.92,0.24 -23.69,-0.08 21.4,170.95 25.88,343.5 12.73,515.36 -0.97,12.69 -11.49,22.43 -24.21,22.43 -30.8,0 -61.6,0 -92.41,0 -0.07,32.41 -0.45,64.81 -2.14,97.19 -0.76,14.66 -1.89,28.99 -3.46,43.5 2.68,1.13 5.36,2.79 8.07,5.14 7.15,6.18 9.86,14.05 12.33,22.75 0.27,0.96 0.56,2.11 0.9,3.14 0.2,0.13 0.41,0.26 0.6,0.4 0.87,0.59 1.69,1.21 2.47,1.86 5.91,-1.95 12.09,-3.17 18.45,-3.79 14.23,-1.39 30.29,-0.01 43.43,5.8 15.89,7.02 26.89,20.12 31.56,36.82 3.52,12.59 3.74,29.03 0.64,41.69 -4.38,17.88 -15.62,24.85 -32.59,28.91 -17.79,4.25 -36.71,6.61 -54.93,8.01 -27.56,2.12 -56.6,2.39 -84.2,0.47 -21.23,-1.48 -45.98,-4.48 -66.45,-10.52 -15.78,-4.66 -30.21,-13 -31.44,-31.35 -0.6,-8.96 2.46,-18.36 8.28,-25.21 0.07,-0.09 0.15,-0.17 0.22,-0.26 -0.17,-3.73 0.2,-7.6 0.94,-11.54 1.14,-6.02 2.72,-12.14 4.89,-17.87 0.5,-1.33 1.18,-2.79 1.74,-4.2 -1.21,-6.04 -2.34,-10 -0.75,-17.3 1.48,-6.8 5.3,-13.06 10.51,-17.78 0.29,-6.36 1.42,-13.43 1.93,-18.89 1.81,-19.18 2.63,-38.59 2.88,-57.84 0.2,-15.33 -0.1,-30.89 -0.01,-46.36l-251.06 0c0.09,15.47 -0.21,31.03 -0.01,46.36 0.25,19.25 1.07,38.67 2.88,57.84 0.52,5.45 1.65,12.52 1.93,18.89 5.2,4.71 9.02,10.97 10.51,17.78 1.59,7.3 0.46,11.26 -0.75,17.3 0.56,1.41 1.24,2.86 1.74,4.2 2.17,5.73 3.75,11.85 4.89,17.87 0.74,3.94 1.11,7.8 0.94,11.54 0.07,0.09 0.15,0.17 0.22,0.26 5.82,6.85 8.88,16.25 8.28,25.21 -1.23,18.35 -15.66,26.69 -31.44,31.35 -20.47,6.04 -45.22,9.04 -66.45,10.52 -27.6,1.92 -56.64,1.65 -84.2,-0.47 -18.21,-1.4 -37.13,-3.77 -54.93,-8.01 -16.98,-4.05 -28.21,-11.02 -32.59,-28.91 -3.1,-12.65 -2.88,-29.09 0.64,-41.69 4.67,-16.7 15.66,-29.79 31.56,-36.82 13.15,-5.81 29.21,-7.18 43.43,-5.8 6.36,0.62 12.54,1.83 18.45,3.79 0.78,-0.64 1.61,-1.26 2.47,-1.86 0.19,-0.13 0.39,-0.26 0.6,-0.4 0.34,-1.04 0.63,-2.19 0.9,-3.14 2.47,-8.7 5.18,-16.56 12.33,-22.75 2.4,-2.08 5.12,-3.75 8.06,-4.96 0.01,-0 0.02,-0.01 0.03,-0.01 -1.58,-14.56 -2.71,-28.95 -3.48,-43.66 -1.69,-32.37 -2.21,-64.78 -2.33,-97.19 -27.39,0 -54.78,0 -82.17,0 -12.92,0 -23.56,-10.08 -24.25,-22.99 -2.54,-47.5 -3.69,-95.01 -3.36,-142.47 -9.24,-0.94 -18.59,-4.54 -26.61,-7.81 -23.98,-9.77 -48.28,-23.73 -67.03,-41.68 -22.89,-21.91 -38.25,-50.48 -46.8,-80.81 -8.59,-30.45 -10.58,-63.3 -7.79,-94.76 2.74,-30.86 10.21,-61.09 22.28,-89.62 12.19,-28.8 28.84,-55.2 50.48,-77.86 11.27,-11.79 23.07,-23.15 35.74,-33.44 2.19,-1.78 4.52,-3.12 6.98,-4.03 1.53,-2.15 3.45,-4.05 5.75,-5.71 30.52,-21.92 62.06,-33.88 99.12,-40.17 1.41,-0.24 2.64,-0.34 4.07,-0.34l18.29 0 0 -25.01c0,-16.72 5.53,-33.02 15.8,-45.99 0.13,-10.8 0.78,-21.59 1.29,-32.37 0.93,-19.53 -10.48,-36.84 -20.41,-52.7 -5.19,-8.29 -9.3,-12.6 -17.32,-18.12 -13.52,-9.3 -26.17,-17.04 -37.93,-28.85 -19.42,-19.5 -32.16,-44.53 -35.65,-71.89 -5.27,-41.3 14.07,-77.86 33.13,-112.8 75.16,-137.75 153.74,-273.67 225.3,-413.36 11.84,-23.12 34.03,-37.76 60.2,-37.52l44.51 0.4c5.33,0.05 10.61,0.76 15.74,2.1 5.12,-1.34 10.4,-2.05 15.74,-2.1l44.51 -0.4c26.17,-0.24 48.36,14.41 60.2,37.53 71.56,139.69 150.13,275.61 225.29,413.36 19.07,34.95 38.41,71.5 33.14,112.81 -3.5,27.36 -16.24,52.39 -35.66,71.89 -11.76,11.81 -24.41,19.55 -37.93,28.85 -8.02,5.52 -12.13,9.84 -17.32,18.13 -9.93,15.85 -21.35,33.17 -20.42,52.69 0.51,10.57 1.15,21.15 1.29,31.73 10.59,13.07 16.31,29.63 16.31,46.63l0 25.01 16.18 0c14.74,-1.09 29.52,-2.75 44.07,-5.26 2.27,-0.39 4.54,-0.81 6.8,-1.24 2.37,-0.46 4.68,-0.59 6.93,-0.39zm-715.14 180.27c-4.22,13.56 -6.82,28.32 -6.66,42.01 0.02,1.64 0.08,3.31 0.19,5.01 1.98,-15.69 4.13,-31.37 6.47,-47.02z"/>
  <path class="fil1" d="M377.82 1738.37c-12.16,3.59 -34.77,7.74 -61.26,9.59 -26.48,1.84 -56.84,1.37 -80.65,-0.46 -23.81,-1.83 -41.09,-5.02 -51.15,-7.42 -10.06,-2.4 -12.92,-4.02 -14.64,-11.06 -1.72,-7.04 -2.32,-19.51 0.44,-29.37 2.76,-9.86 8.87,-17.12 17.98,-21.14 9.11,-4.02 21.22,-4.82 31.27,-3.84 10.05,0.98 18.03,3.73 24.65,8.37 6.62,4.63 11.88,11.15 15.33,18.99 3.45,7.84 5.09,17.01 6.97,21.9 1.88,4.89 4.01,5.51 10.47,6.05 6.47,0.54 17.27,1.01 31,0.37 13.73,-0.64 30.39,-2.4 43.63,-4.56 13.24,-2.16 23.05,-4.73 28.76,-5.85 5.7,-1.13 7.29,-0.81 8.74,0.89 1.45,1.7 2.76,4.8 2.55,7.86 -0.21,3.06 -1.92,6.1 -14.09,9.69z"/>
  <path class="fil2" d="M278.25 1715.87c-3.2,-5.49 -6.83,-16.78 -11.19,-24.37 -4.36,-7.59 -9.44,-11.48 -11.52,-13.93 -2.08,-2.45 -1.15,-3.46 1.25,-5.1 2.4,-1.64 6.28,-3.92 8.79,-9.73 2.51,-5.81 3.64,-15.14 7.22,-18.24 3.58,-3.1 9.61,0.05 15.65,1.16 6.04,1.11 12.1,0.18 17.51,0.72 5.41,0.53 10.17,2.52 12.05,5.76 1.88,3.24 0.86,7.73 -1.06,11.65 -1.92,3.92 -4.76,7.26 -5.77,9.87 -1.01,2.61 -0.19,4.49 1.81,4.38 2,-0.1 5.18,-2.19 7.75,-4.85 2.57,-2.67 4.53,-5.92 7.84,-6.46 3.31,-0.54 7.97,1.63 12.57,2.24 4.6,0.61 9.15,-0.35 12.94,-2.68 3.79,-2.33 6.83,-6.03 9.05,-9.12 2.23,-3.1 3.64,-5.59 6.35,-5.29 2.72,0.3 6.73,3.4 7.57,7.23 0.84,3.83 -1.51,8.39 -1.64,12.56 -0.12,4.17 1.97,7.95 3.65,12.37 1.68,4.42 2.93,9.49 3.74,13.78 0.81,4.29 1.18,7.79 -1.19,10.1 -2.37,2.31 -7.47,3.42 -16.37,4.98 -8.89,1.56 -21.57,3.56 -33.09,4.87 -11.52,1.31 -21.87,1.92 -29.21,2.3 -7.34,0.38 -11.66,0.52 -15.2,0.75 -3.55,0.23 -6.32,0.54 -9.52,-4.94z"/>
  <path class="fil1" d="M644.24 1738.37c12.16,3.59 34.77,7.74 61.26,9.59 26.48,1.84 56.84,1.37 80.65,-0.46 23.81,-1.83 41.09,-5.02 51.15,-7.42 10.06,-2.4 12.92,-4.02 14.64,-11.06 1.72,-7.04 2.32,-19.51 -0.44,-29.37 -2.76,-9.86 -8.87,-17.12 -17.98,-21.14 -9.11,-4.02 -21.22,-4.82 -31.27,-3.84 -10.05,0.98 -18.03,3.73 -24.65,8.37 -6.62,4.63 -11.88,11.15 -15.33,18.99 -3.45,7.84 -5.09,17.01 -6.97,21.9 -1.88,4.89 -4.01,5.51 -10.47,6.05 -6.47,0.54 -17.27,1.01 -31,0.37 -13.73,-0.64 -30.39,-2.4 -43.63,-4.56 -13.24,-2.16 -23.05,-4.73 -28.76,-5.85 -5.7,-1.13 -7.29,-0.81 -8.74,0.89 -1.45,1.7 -2.76,4.8 -2.55,7.86 0.21,3.06 1.92,6.1 14.09,9.69z"/>
  <path class="fil2" d="M743.8 1715.87c3.2,-5.49 6.83,-16.78 11.19,-24.37 4.36,-7.59 9.44,-11.48 11.52,-13.93 2.08,-2.45 1.15,-3.46 -1.25,-5.1 -2.4,-1.64 -6.28,-3.92 -8.79,-9.73 -2.51,-5.81 -3.64,-15.14 -7.22,-18.24 -3.58,-3.1 -9.61,0.05 -15.65,1.16 -6.04,1.11 -12.1,0.18 -17.51,0.72 -5.41,0.53 -10.17,2.52 -12.05,5.76 -1.88,3.24 -0.86,7.73 1.06,11.65 1.92,3.92 4.76,7.26 5.77,9.87 1.01,2.61 0.19,4.49 -1.81,4.38 -2,-0.1 -5.18,-2.19 -7.75,-4.85 -2.57,-2.67 -4.53,-5.92 -7.84,-6.46 -3.31,-0.54 -7.97,1.63 -12.57,2.24 -4.6,0.61 -9.15,-0.35 -12.94,-2.68 -3.79,-2.33 -6.83,-6.03 -9.05,-9.12 -2.23,-3.1 -3.64,-5.59 -6.35,-5.29 -2.72,0.3 -6.73,3.4 -7.57,7.23 -0.84,3.83 1.51,8.39 1.64,12.56 0.12,4.17 -1.97,7.95 -3.65,12.37 -1.68,4.42 -2.93,9.49 -3.74,13.78 -0.81,4.29 -1.18,7.79 1.19,10.1 2.37,2.31 7.47,3.42 16.37,4.98 8.89,1.56 21.57,3.56 33.09,4.87 11.52,1.31 21.87,1.92 29.21,2.3 7.34,0.38 11.66,0.52 15.2,0.75 3.55,0.23 6.32,0.54 9.52,-4.94z"/>
  <path class="fil3" d="M661.47 1488.78c-0.89,17 -0.3,46.56 -0.62,70.96 -0.35,26.53 -1.77,46.96 -2.99,59.81 -1.22,12.85 -2.23,18.14 -1.83,21.03 0.4,2.89 2.22,3.4 4.01,4.8 1.79,1.4 3.56,3.69 5.47,6.33 1.9,2.63 3.94,5.6 7.89,7.07 3.95,1.47 9.82,1.44 13.18,0.72 3.36,-0.73 4.2,-2.15 4.57,-4.3 0.37,-2.15 0.27,-5.04 2.47,-8.11 2.21,-3.07 6.72,-6.34 13.33,-7.96 6.61,-1.63 15.34,-1.62 19.79,-3.02 4.45,-1.4 4.62,-4.21 5.54,-12.15 0.92,-7.94 2.58,-21.01 3.98,-47.71 1.97,-37.83 2.12,-74.74 2.12,-112.43l-454.94 0c0,37.61 0.36,74.82 2.32,112.43 1.39,26.7 3.06,39.77 3.98,47.71 0.92,7.94 1.1,10.75 5.54,12.15 4.45,1.4 13.17,1.4 19.79,3.02 6.62,1.63 11.13,4.89 13.33,7.96 2.2,3.07 2.1,5.96 2.47,8.11 0.37,2.15 1.22,3.57 4.57,4.3 3.36,0.72 9.23,0.75 13.18,-0.72 3.95,-1.47 5.99,-4.44 7.89,-7.07 1.9,-2.63 3.68,-4.93 5.47,-6.33 1.79,-1.4 3.61,-1.9 4.01,-4.8 0.4,-2.89 -0.61,-8.18 -1.83,-21.03 -1.22,-12.85 -2.64,-33.28 -2.99,-59.81 -0.32,-24.4 0.27,-53.96 -0.62,-70.96l300.89 0z"/>
  <path class="fil1" d="M284.01 777.05c-0.31,-12.83 0.49,-25.35 1.22,-40.63 1.24,-25.83 -11.04,-45.92 -24.1,-66.75 -7.19,-11.47 -13.51,-17.92 -24.13,-25.24 -12.12,-8.34 -23.79,-15.24 -34.49,-25.98 -15.24,-15.31 -25.89,-35.28 -28.77,-57.83 -4.48,-35.05 14.57,-69.15 30.36,-98.09 75.26,-137.93 153.8,-273.77 225.6,-413.92 7.96,-15.54 22.04,-24.46 38.37,-24.32l44.51 0.4c5.64,0.05 11.02,1.27 15.95,3.46 4.93,-2.18 10.32,-3.41 15.95,-3.46l44.51 -0.4c16.33,-0.15 30.41,8.77 38.37,24.32 71.8,140.15 150.33,275.99 225.59,413.92 15.79,28.94 34.84,63.05 30.36,98.09 -2.88,22.56 -13.53,42.53 -28.77,57.83 -10.7,10.74 -22.37,17.64 -34.49,25.98 -10.63,7.31 -16.95,13.77 -24.13,25.24 -13.05,20.83 -25.33,40.92 -24.1,66.75 0.72,15.11 1.52,27.52 1.24,40.2 9.95,8.71 16.34,22.07 16.34,37l0 37.51c0,5.05 0.12,9.89 -1.23,14.46l-39.88 0 -222.64 103.94 -211.55 -103.94 -43.87 0.03c-1.35,-4.57 -2.08,-9.44 -2.08,-14.49l0 -37.51c0,-14.69 6.18,-27.85 15.84,-36.56zm244.32 -262.46c-1.53,0.59 -3.11,1.1 -4.73,1.52 -8.93,2.3 -15.26,11.08 -15.26,21.09 0,11.98 8.89,21.67 19.88,21.67 10.99,0 19.88,-9.69 19.88,-21.67 0,-9.92 -6.22,-18.65 -15.06,-21.03 -1.62,-0.44 -3.19,-0.96 -4.72,-1.57z"/>
  <path class="fil4" d="M330.53 802.33c-12.87,-65.08 19.73,-74.58 -33.44,-159.42 -13.37,-21.34 -25.85,-31.03 -36.85,-38.6 -10.99,-7.56 -20.5,-12.99 -28.23,-20.75 -7.72,-7.76 -13.67,-17.84 -15.15,-29.48 -1.49,-11.64 1.49,-24.83 24.66,-67.3 76.05,-139.36 153.82,-273.79 226.19,-415.04l44.52 0.4 1.36 397.8c-27.97,7.2 -48.78,34.58 -48.78,67.27 0,38.17 28.39,69.12 63.42,69.12 35.03,0 63.42,-30.95 63.42,-69.12 0,-32.43 -20.5,-59.64 -48.14,-67.1l1.35 -397.97 44.51 -0.4c72.36,141.26 150.14,275.68 226.18,415.04 23.18,42.47 26.15,55.66 24.66,67.3 -1.49,11.64 -7.43,21.72 -15.16,29.48 -7.72,7.76 -17.23,13.19 -28.23,20.75 -10.99,7.56 -23.47,17.26 -36.84,38.6 -53.18,84.85 -20.57,94.34 -33.44,159.42l-47.7 0.06 0 0.04 -35.19 0 -96.29 0.12 -0 -0.12 -37.66 0 0 0.12 -179.18 -0.23z"/>
  <path class="fil2" d="M125 907.73c-11,8.94 -21.98,19.33 -33.49,31.37 -19.88,20.81 -34.76,44.75 -45.68,70.56 -10.93,25.8 -17.9,53.47 -20.46,82.29 -2.56,28.83 -0.7,58.82 6.97,86.02 7.67,27.2 21.16,51.61 40.22,69.86 19.06,18.25 43.71,30.34 59.4,36.73 15.69,6.39 22.43,7.09 25.22,5.69 2.79,-1.39 1.63,-4.88 1.16,-17.09 -0.46,-12.21 -0.23,-33.13 1.16,-58 1.39,-24.88 3.95,-53.7 5.7,-69.16 1.74,-15.46 2.67,-17.55 2.67,-19.53 0,-1.98 -0.93,-3.83 -3.72,-6.62 -2.79,-2.79 -7.44,-6.51 -12.32,-17.21 -4.88,-10.69 -10,-28.36 -10.23,-48.35 -0.23,-19.99 4.42,-42.31 12.09,-61.84 4.36,-11.09 9.69,-21.27 15.37,-30.06l-44.06 -54.67z"/>
  <path class="fil3" d="M177.03 1456.03c226.02,0 452.03,0 678.05,0 13.44,-175.59 8.78,-355.36 -16.46,-539.88 4.61,0.44 9.02,0.8 12.91,1.11 15.61,1.24 22.95,1.6 37.85,1.07 1.56,-0.06 3.2,-0.12 4.91,-0.2l-8.94 -62.17c-2.43,0.47 -4.85,0.91 -7.27,1.33 -17.01,2.94 -33.77,4.64 -47.32,5.62l-68.94 0 -234.58 116.93 -232.27 -116.93 -69.39 0c-35.43,6.02 -62.76,17.1 -89.02,35.96l41.35 51.3c1.5,-1.84 2.99,-3.57 4.49,-5.18 10.21,-11.05 20.09,-16.72 30.17,-21.56 -32.99,166.26 -45.69,343.34 -35.56,532.61z"/>
  <path class="fil2" d="M1253.1 557.87c0.31,-1.57 0.69,-3.49 -1.76,-6.72 -2.46,-3.23 -7.76,-7.75 -12.9,-11.75 -5.14,-3.99 -10.13,-7.45 -13.17,-9.06 -3.03,-1.61 -4.11,-1.38 -6.49,2.07 -2.38,3.46 -6.07,10.13 -10.71,17.96 -4.64,7.83 -10.25,16.81 -13.51,22.3 -3.26,5.49 -4.19,7.48 -4.11,9.52 0.08,2.03 1.15,4.11 4.03,6.91 2.88,2.8 7.56,6.33 11.17,8.64 3.61,2.3 6.14,3.38 8.91,3.46 2.76,0.08 5.76,-0.85 11.13,-6.49 5.37,-5.64 13.13,-16 17.96,-22.26 4.84,-6.26 6.75,-8.41 7.83,-10.09 1.07,-1.69 1.31,-2.92 1.61,-4.49z"/>
  <path class="fil2" d="M1096.39 653.65c1.77,-14.19 3.07,-32.41 2.13,-49.21 -0.95,-16.8 -4.14,-32.18 -8.99,-45.19 -4.85,-13.01 -11.36,-23.66 -17.51,-30.7 -6.15,-7.04 -11.95,-10.47 -15.32,-12.66 -3.37,-2.19 -4.32,-3.13 -3.25,-5.91 1.06,-2.78 4.14,-7.39 8.22,-11.18 4.08,-3.79 9.17,-6.74 15.26,-6.8 6.09,-0.06 13.19,2.78 22.12,8.46 8.93,5.68 19.7,14.19 26.44,19.58 6.74,5.38 9.46,7.63 11.89,8.52 2.42,0.89 4.55,0.41 17.8,-16.09 13.25,-16.5 37.62,-49.03 50.27,-66.01 12.66,-16.97 13.6,-18.4 15.62,-18.45 2.01,-0.06 5.09,1.24 9.94,3.96 4.85,2.72 11.48,6.86 15.5,9.52 4.02,2.66 5.44,3.84 -2.66,20.64 -8.1,16.8 -25.73,49.21 -38.21,70.56 -12.48,21.35 -19.82,31.64 -24.49,38.39 -4.67,6.74 -6.68,9.94 -6.62,13.19 0.06,3.25 2.19,6.57 7.27,11.06 5.09,4.49 13.13,10.17 18.39,13.6 5.26,3.43 7.75,4.61 9.82,4.79 2.07,0.18 3.72,-0.65 5.26,-1.18 1.54,-0.53 2.96,-0.77 5.86,1.3 2.9,2.07 7.27,6.45 11.24,9.64 3.96,3.19 7.51,5.2 10.11,6.5 2.6,1.3 4.26,1.89 5.97,2.01 1.71,0.12 3.49,-0.24 7.28,-2.78 3.78,-2.54 9.58,-7.27 12.89,-10.53 3.31,-3.25 4.14,-5.03 2.25,-4.32 -1.89,0.71 -6.51,3.9 -10.11,6.15 -3.61,2.25 -6.21,3.55 -10.59,2.07 -4.38,-1.48 -10.53,-5.74 -14.31,-8.69 -3.79,-2.96 -5.21,-4.62 -5.68,-6.09 -0.47,-1.48 0,-2.78 3.43,-7.45 3.43,-4.67 9.82,-12.72 14.67,-18.75 4.85,-6.03 8.16,-10.06 10.47,-12.54 2.31,-2.48 3.61,-3.43 5.2,-3.37 1.6,0.06 3.49,1.12 6.98,3.72 3.49,2.6 8.58,6.74 11.77,10.71 3.19,3.96 4.49,7.75 5.26,12.89 0.77,5.15 1,11.65 0.06,16.44 -0.95,4.79 -3.07,7.87 -7.57,14.31 -4.5,6.45 -11.36,16.26 -17.51,23.36 -6.15,7.1 -11.59,11.47 -16.8,15.32 -5.2,3.85 -10.17,7.16 -14.13,10.17 -3.96,3.02 -6.92,5.74 -12.24,17.27 -5.32,11.53 -13.01,31.88 -23.95,51.99 -10.94,20.11 -25.14,39.98 -43.35,59.62 -18.22,19.64 -40.46,39.04 -61.27,54.12 -20.82,15.08 -40.22,25.85 -63.64,35.01 -23.42,9.17 -50.87,16.74 -75.83,21.23 -15.68,2.82 -30.37,4.43 -42.83,5.37l-9.25 -64.37c17.95,-4.29 35.85,-10.22 52.91,-18.54 23.89,-11.65 46.13,-27.98 64.29,-45.13 18.16,-17.15 32.23,-35.13 43.77,-52.11 11.53,-16.97 20.52,-32.94 26.14,-46.02 5.62,-13.07 7.87,-23.24 9.64,-37.44z"/>
  <polygon class="fil2" points="525.77,1039.08 526.43,1039.08 747.62,919.01 762.69,918.08 526.1,1048.72 289.5,918.08 304.58,919.01 "/>
  <polygon class="fil5" points="528.54,1015.04 302.56,890.26 306.33,890.49 527.59,1000.89 529.48,1000.89 750.74,890.49 754.51,890.26 "/>
 </g>
</svg>
