<?xml version="1.0" encoding="utf-8"?>
<!-- Generator: Adobe Illustrator 21.0.2, SVG Export Plug-In . SVG Version: 6.00 Build 0)  -->
<svg version="1.1" id="Layer_1" xmlns="http://www.w3.org/2000/svg" xmlns:xlink="http://www.w3.org/1999/xlink" x="0px" y="0px"
	 width="506.662px" height="98.153px" viewBox="0 0 506.662 98.153" enable-background="new 0 0 506.662 98.153"
	 xml:space="preserve">
<g>
	<g>
		<g>
			<g>
				<polygon fill="#7C878E" points="62.65,0.039 62.65,55.414 24.186,0.039 0,0.039 0,98.153 24.892,98.153 24.892,42.658 
					63.356,98.153 87.543,98.153 87.543,0.039 				"/>
				<path fill="#7C878E" d="M136.632,32.486v33.899c0,8.55-2.441,11.729-9.008,11.729c-6.565,0-9.004-3.179-9.004-11.729V32.486
					H94.792v38.048c0,18.326,11.048,27.619,32.832,27.619c21.787,0,32.834-9.293,32.834-27.619V32.486H136.632z"/>
				<rect x="167.146" fill="#7C878E" width="23.32" height="98.153"/>
				<rect x="198.503" fill="#7C878E" width="23.32" height="98.153"/>
			</g>
		</g>
		<g>
			<path fill="#005587" d="M264.829,0.039h-34.83v98.114h34.83c26.161,0,47.445-22.008,47.445-49.057S290.99,0.039,264.829,0.039z
				 M284.913,49.096c0,15.801-9.215,25.236-24.651,25.236h-3.865V23.86h4.106C275.559,23.86,284.913,33.53,284.913,49.096z"/>
			<path fill="#005587" d="M361.721,32.505v4.766c-4.269-3.649-10.181-5.756-16.46-5.756c-17.007,0-30.332,14.611-30.332,33.262
				c0,18.715,13.423,33.376,30.558,33.376c6.573,0,12.381-2.266,16.235-6.203v6.203h23.318V32.505H361.721z M362.396,64.893
				c0,7.3-4.606,12.015-11.736,12.015s-11.736-4.715-11.736-12.015c0-5.843,3.673-12.131,11.736-12.131
				S362.396,59.05,362.396,64.893z"/>
			<path fill="#005587" d="M483.343,32.505v4.766c-4.269-3.649-10.181-5.756-16.46-5.756c-17.007,0-30.332,14.611-30.332,33.262
				c0,18.715,13.423,33.376,30.558,33.376c6.573,0,12.381-2.266,16.235-6.203v6.203h23.318V32.505H483.343z M484.017,64.893
				c0,7.3-4.606,12.015-11.736,12.015s-11.736-4.715-11.736-12.015c0-5.843,3.673-12.131,11.736-12.131
				S484.017,59.05,484.017,64.893z"/>
			<polygon fill="#005587" points="422.5,32.5 422.5,16.42 399.182,16.42 399.182,32.5 392.546,32.5 392.546,53.089 399.182,53.089 
				399.182,98.153 422.5,98.153 422.5,53.089 434.085,53.089 434.085,32.5 			"/>
		</g>
	</g>
</g>
</svg>
